<?xml version="1.0" encoding="UTF-8" standalone="no"?>
<!-- Created with Inkscape (http://www.inkscape.org/) -->

<svg
   width="50mm"
   height="50mm"
   viewBox="0 0 50 50"
   version="1.1"
   id="svg5"
   inkscape:version="1.2.2 (b0a8486541, 2022-12-01)"
   sodipodi:docname="initials.svg"
   xmlns:inkscape="http://www.inkscape.org/namespaces/inkscape"
   xmlns:sodipodi="http://sodipodi.sourceforge.net/DTD/sodipodi-0.dtd"
   xmlns="http://www.w3.org/2000/svg"
   xmlns:svg="http://www.w3.org/2000/svg">
  <sodipodi:namedview
     id="namedview7"
     pagecolor="#ffffff"
     bordercolor="#000000"
     borderopacity="0.25"
     inkscape:showpageshadow="2"
     inkscape:pageopacity="0.0"
     inkscape:pagecheckerboard="0"
     inkscape:deskcolor="#d1d1d1"
     inkscape:document-units="mm"
     showgrid="false"
     inkscape:zoom="4.7572176"
     inkscape:cx="70.419314"
     inkscape:cy="109.6229"
     inkscape:window-width="1920"
     inkscape:window-height="1131"
     inkscape:window-x="0"
     inkscape:window-y="32"
     inkscape:window-maximized="1"
     inkscape:current-layer="layer1" />
  <defs
     id="defs2" />
  <g
     inkscape:label="Layer 1"
     inkscape:groupmode="layer"
     id="layer1">
    <path
       style="fill:#000000;stroke-width:0.264583"
       id="path251"
       d="m 25.865785,27.651815 c 0.153413,0.296157 0.26666,0.613141 0.377669,0.926857 0.0841,0.237673 0.171929,0.47426 0.245181,0.715497 0.181089,0.596355 0.29205,1.120317 0.433637,1.728409 0.189518,0.85898 0.326786,1.726965 0.457139,2.596287 0.04752,0.316953 0.201316,1.309669 0.242541,1.626312 0.03393,0.260631 0.05926,0.522311 0.08889,0.783468 0.127977,1.056336 0.219335,2.119043 0.249661,3.182991 0.01707,0.59886 0.01074,0.830109 0.0072,1.421537 -0.02593,0.851093 -0.102219,1.706629 -0.304128,2.536034 -0.0296,0.1216 -0.06791,0.240914 -0.101862,0.361371 -0.176022,0.519604 -0.447823,1.001612 -0.791342,1.428848 -0.06442,0.08012 -0.134276,0.155728 -0.201414,0.233592 -0.3785,0.3981 -0.843914,0.689758 -1.306817,0.977593 -0.205449,0.101889 -0.390634,0.239861 -0.592155,0.348409 -0.191633,0.103222 -0.397078,0.184883 -0.596293,0.272105 -0.216715,0.0988 -0.44168,0.193077 -0.682837,0.197247 -0.08776,-0.03008 -0.04698,-0.0067 -0.120287,-0.07373 0,0 3.131741,2.367283 3.131741,2.367283 v 0 c 0.149566,-0.02455 0.07797,-0.008 0.215135,-0.04794 0.232373,-0.08407 0.440934,-0.217792 0.658582,-0.332992 0.398214,-0.21959 0.80648,-0.424314 1.180788,-0.683678 0.467503,-0.329797 0.932429,-0.671441 1.310553,-1.105098 0.44046,-0.551392 0.8441,-1.14227 1.020122,-1.835772 0.03037,-0.133133 0.06677,-0.265033 0.09112,-0.399399 0.04985,-0.275061 0.08219,-0.637614 0.102185,-0.913286 0.04316,-0.595133 0.05412,-1.191995 0.02532,-1.788223 -0.02682,-0.753431 -0.06973,-1.505054 -0.113261,-2.257695 -0.01558,-0.269291 -0.02638,-0.538904 -0.04688,-0.807866 -0.0094,-0.122769 -0.142832,-1.491475 -0.154191,-1.608518 -0.06075,-0.452099 -0.155181,-1.171102 -0.224327,-1.619726 -0.178009,-1.154965 -0.427884,-2.296875 -0.630576,-3.447479 -0.08774,-0.499033 -0.209148,-1.148135 -0.271568,-1.656593 -0.0258,-0.210085 -0.0358,-0.421812 -0.0556,-0.632542 -0.02588,-0.275162 -0.06248,-0.548934 -0.08649,-0.824193 0,0 -3.557439,-1.669114 -3.557439,-1.669114 z" />
    <path
       style="fill:#000000;stroke-width:0.264583"
       id="path253"
       d="m 25.021385,27.131518 c -0.159627,0.380703 -0.413771,0.71216 -0.606963,1.075335 -0.04847,0.09112 -0.09041,0.185579 -0.135611,0.278366 -0.283976,0.572397 -0.522223,1.165135 -0.77021,1.753499 -0.04266,0.101219 -0.08577,0.202248 -0.127975,0.303652 -0.140422,0.337367 -0.126656,0.31605 -0.274733,0.655725 -0.109215,0.250528 -0.205993,0.451157 -0.306451,0.706776 -0.05862,0.149169 -0.110912,0.300746 -0.166368,0.451122 -0.385881,0.977313 -0.857242,1.919007 -1.362867,2.839194 -0.409478,0.717515 -0.877144,1.399627 -1.359183,2.069798 -0.07328,0.09586 -0.146313,0.191905 -0.219836,0.287578 -0.192569,0.250579 -0.264379,0.352534 -0.479472,0.585701 -0.246581,0.2673 -0.520072,0.505899 -0.792105,0.746352 -0.531543,0.453716 -1.13086,0.810223 -1.742566,1.142791 -0.668565,0.342921 -1.375723,0.603033 -2.094648,0.817626 -0.616065,0.173352 -1.249829,0.243911 -1.886888,0.273682 -0.573026,0.0069 -1.145774,0.02289 -1.718674,0.03565 -0.227963,-0.0084 -0.460736,0.02217 -0.687624,-0.01458 -0.05046,-0.0082 -0.09878,-0.02635 -0.148164,-0.03952 0,0 3.107988,2.308772 3.107988,2.308772 v 0 c 0.258999,-0.01259 0.516537,-0.04334 0.775666,-0.05494 0.573306,-0.02368 1.147866,0.0011 1.71972,-0.05378 0.645006,-0.06352 1.27602,-0.164471 1.890647,-0.379667 0.723471,-0.25073 1.442439,-0.516816 2.118076,-0.8813 0.169546,-0.08918 0.514118,-0.267261 0.679752,-0.366766 0.402216,-0.241631 0.783671,-0.525992 1.130628,-0.841081 0.55418,-0.519345 1.076701,-1.07473 1.524255,-1.689899 0.07292,-0.101433 0.149308,-0.200462 0.218755,-0.304303 0.134097,-0.200509 0.269261,-0.441865 0.386647,-0.651563 0.145558,-0.26003 0.291667,-0.519771 0.433849,-0.781661 0.07873,-0.145021 0.154278,-0.291753 0.231418,-0.437631 0.09535,-0.179724 0.401962,-0.754793 0.491344,-0.934842 0.313705,-0.631918 0.595791,-1.279647 0.916052,-1.908461 0.0751,-0.13921 0.153132,-0.276878 0.2253,-0.417631 0.275756,-0.537819 0.513671,-1.095343 0.767089,-1.643706 0.245147,-0.577334 0.484883,-1.158322 0.77157,-1.716611 0.248158,-0.436258 0.486077,-0.893614 0.879888,-1.218917 0,0 -3.388306,-1.994765 -3.388306,-1.994765 z" />
    <path
       style="fill:#000000;stroke-width:0.264583"
       id="path255"
       d="m 40.212002,44.420102 c -0.02966,-0.04115 -0.06177,-0.08065 -0.08899,-0.123458 -0.09336,-0.14683 -0.21884,-0.38708 -0.291248,-0.528793 -0.250325,-0.489913 -0.465262,-0.99269 -0.68108,-1.498481 -0.07162,-0.183632 -0.143852,-0.367025 -0.21486,-0.550892 -0.07842,-0.203054 -0.160973,-0.404606 -0.233413,-0.60987 C 38.562536,40.712262 38.375134,40.089804 38.27033,39.69323 38.106924,39.074907 38.019635,38.631883 37.884565,38.003527 37.544266,36.3885 37.33546,34.75052 37.106584,33.117223 c -0.26507,-1.492027 -0.393096,-3.003182 -0.538387,-4.510206 -0.135459,-1.559248 -0.211296,-3.122695 -0.331499,-4.682943 -7.94e-4,-0.339935 -0.01646,-0.680161 -0.0024,-1.019806 0.02693,-0.650112 0.124777,-1.382928 0.233288,-2.024108 0.115602,-0.683086 0.234249,-1.229114 0.417957,-1.895082 0.08173,-0.296267 0.178229,-0.588257 0.267346,-0.882386 0.355478,-1.035936 0.801587,-2.040942 1.319228,-3.005931 0.128558,-0.239663 0.256458,-0.480013 0.398023,-0.712231 0.138907,-0.227856 0.295188,-0.444654 0.44278,-0.666981 0.52581,-0.729742 1.106242,-1.423286 1.761607,-2.040696 0.292153,-0.275234 0.44823,-0.395433 0.751768,-0.644791 0.491416,-0.388602 1.024668,-0.716421 1.601859,-0.95916 0.212466,-0.079888 0.423133,-0.1618563 0.638816,-0.2326 0,0 -3.174746,-2.1329994 -3.174746,-2.1329994 v 0 c -0.2065,0.091752 -0.414298,0.1807438 -0.617511,0.2796913 -0.153723,0.079735 -0.336826,0.1699392 -0.481291,0.2649979 -0.378989,0.249378 -0.707601,0.5732799 -1.035896,0.8827858 -0.366652,0.3806793 -0.726739,0.7663746 -1.059635,1.1775324 -0.448117,0.553471 -0.851242,1.141339 -1.247828,1.732149 -0.225457,0.354126 -0.669372,1.038792 -0.869765,1.404779 -0.128312,0.234336 -0.241872,0.476573 -0.354412,0.718877 -0.359773,0.774601 -0.651119,1.576779 -0.891027,2.39631 -0.08532,0.302919 -0.180123,0.603326 -0.255958,0.908757 -0.078,0.314151 -0.142226,0.631633 -0.205332,0.949111 -0.264782,1.332083 -0.422241,2.681609 -0.52542,4.03519 -0.01508,0.292202 -0.04402,0.584017 -0.04526,0.876606 -0.0011,0.2513 0.02328,0.502081 0.03837,0.75293 0.06073,1.009558 0.152688,2.017066 0.227256,3.025615 0.08571,1.00828 0.174305,2.016747 0.298,3.021248 0.03084,0.250455 0.06746,0.500166 0.100306,0.750364 0.03242,0.246912 0.06366,0.493977 0.09549,0.740966 0.285784,1.65414 0.640548,3.296152 0.894239,4.956069 0.243297,1.425075 0.451098,2.874713 1.016987,4.216154 0.236328,0.662717 0.479112,1.325983 0.639828,2.011981 0,0 3.598627,1.610686 3.598627,1.610686 z" />
    <ellipse
       style="fill:#000000;stroke-width:0.264583"
       id="path311"
       cx="33.973686"
       cy="45.7225"
       rx="0.67083138"
       ry="0.65954667" />
    <path
       style="fill:#000000;stroke-width:0.264583"
       id="path448"
       d="m 4.1535802,10.136478 c 0.057209,0.01642 0.1152697,0.03012 0.1716275,0.04926 0.47215,0.160331 0.935201,0.349774 1.4048515,0.516991 0.7359899,0.262045 0.9175396,0.311874 1.6882134,0.556618 1.0520571,0.326087 2.1174858,0.606007 3.1765164,0.907802 1.101684,0.31395 1.399905,0.421781 2.532533,0.717431 0.482737,0.126008 0.96861,0.239676 1.452916,0.359515 2.005592,0.446408 4.037713,0.785536 6.087702,0.940814 0.442536,0.03352 0.885745,0.0626 1.32944,0.07245 0.41333,0.0092 0.8268,-0.01026 1.2402,-0.01539 1.537275,-0.118983 3.065815,-0.423915 4.535886,-0.889935 0.693473,-0.219835 0.948004,-0.341701 1.597466,-0.613065 0.714082,-0.347857 1.473605,-0.719584 1.97512,-1.36138 0.06036,-0.07724 0.108072,-0.163585 0.162105,-0.245378 0.152403,-0.300454 0.25667,-0.638684 0.217601,-0.980423 -0.027,-0.2362067 -0.08595,-0.3524633 -0.168391,-0.5750583 C 31.399543,9.21484 31.190345,8.87552 30.927706,8.5800104 30.76363,8.3953971 30.704665,8.3519168 30.522619,8.1892187 29.266975,7.2465421 30.112946,7.8682669 26.856176,6.0428057 26.786289,6.003632 26.705329,5.988419 26.628341,5.966239 26.408075,5.90278 26.212831,5.88503 25.985455,5.880425 c -0.335357,0.02644 -0.710627,0.065864 -1.025493,0.1927085 -0.07093,0.028576 -0.137283,0.067428 -0.205925,0.1011417 -0.636049,0.4081481 -1.157993,0.9611966 -1.694004,1.4871777 -0.106686,0.1194319 -0.217316,0.235454 -0.320057,0.3582958 -0.160861,0.1923331 -0.471393,0.6065579 -0.617566,0.8079129 -0.241008,0.3319923 -0.365631,0.5109782 -0.579226,0.8623326 -0.09185,0.1510882 -0.177345,0.3059481 -0.266018,0.4589218 -0.0828,0.167903 -0.16868,0.334318 -0.248384,0.503711 -0.08394,0.178397 -0.169488,0.356338 -0.242468,0.539492 -0.311854,0.78264 -0.512316,1.604975 -0.791173,2.39915 -0.10803,0.307667 -0.229969,0.610272 -0.344954,0.915408 -0.527563,1.317692 -1.026212,2.647381 -1.60772,3.942728 -0.142513,0.317456 -0.935256,2.015314 -1.061526,2.286251 -0.59696,1.2164 -1.272604,2.390536 -1.975768,3.547846 -0.234875,0.386572 -0.467319,0.774768 -0.712242,1.155054 -0.44751,0.694839 -0.962538,1.415776 -1.437474,2.093107 -0.783934,1.077204 -1.589386,2.141432 -2.514248,3.102925 -0.4251711,0.44201 -0.5357968,0.531109 -0.969854,0.927314 -0.4109249,0.343377 -0.8481708,0.670081 -1.3708729,0.817573 -0.2238962,0.06318 -0.3475479,0.06978 -0.5762096,0.09802 -0.3848496,0.0329 -0.7721089,0.04399 -1.1548808,-0.01672 C 6.0399609,32.424388 5.9412211,32.39276 5.716684,32.334208 5.4741897,32.24585 5.4280987,32.239154 5.2015143,32.116802 5.1226561,32.07422 4.893239,31.933875 4.9710972,31.978259 5.968607,32.549306 6.9661169,33.120351 7.9636267,33.691399 7.8839678,33.637262 7.802265,33.586018 7.7246503,33.528987 7.6432555,33.469183 7.5661535,33.403744 7.486905,33.341122 7.044783,32.985509 6.7327999,32.520734 6.4628267,32.02909 6.3024974,31.686878 6.1539228,31.33458 6.0533187,30.969413 5.9754243,30.686677 5.9546952,30.511125 5.9077118,30.222841 5.8548372,29.799714 5.8022317,29.375335 5.8037658,28.948139 c 9.525e-4,-0.266991 0.00936,-0.294148 0.033941,-0.557522 0.055097,-0.434647 0.2132508,-0.843166 0.4964597,-1.181095 0.056437,-0.06734 0.1215064,-0.126952 0.1822595,-0.190428 0.2635825,-0.253545 0.5772312,-0.44636 0.9271138,-0.555511 0.2240846,-0.06991 0.3399319,-0.08069 0.5728853,-0.119478 0.532978,-0.06375 1.0647432,-0.0095 1.5682003,0.179567 0.1185216,0.0445 0.2327124,0.09978 0.3490684,0.149667 0.1208602,0.05907 0.2433432,0.11494 0.3625822,0.177223 0.124296,0.06492 0.245181,0.136179 0.367772,0.204266 -0.908655,-0.522234 -1.815521,-1.047591 -2.7259647,-1.566699 -0.1356648,-0.07735 0.2693615,0.158201 0.4015354,0.241378 0.3433733,0.216083 0.5113472,0.340978 0.8497091,0.57871 1.0443892,0.781296 2.0705602,1.587693 3.0710522,2.424522 1.112238,0.957535 2.16621,1.98006 3.222477,2.998256 0.348807,0.330081 0.828542,0.791869 1.19157,1.103326 0.240746,0.206544 0.489001,0.404219 0.736779,0.602276 0.533445,0.426392 0.89273,0.705088 1.45822,1.086387 0.242252,0.163346 0.49243,0.314616 0.738646,0.471924 1.62527,0.862838 3.190458,2.035336 4.962736,2.653001 0.742022,0.258604 1.511978,0.421899 2.278844,0.584618 0.24661,0.04738 0.491731,0.103283 0.739825,0.142129 1.02689,0.160792 2.118712,0.205724 3.156384,0.168767 0.316984,-0.0113 0.633264,-0.03741 0.949896,-0.05612 0.559949,-0.02532 1.536849,-0.06011 2.090539,-0.12342 0.719024,-0.08222 1.437667,-0.227827 2.137246,-0.41107 0.346332,-0.09072 0.691335,-0.188341 1.029952,-0.304591 0.338256,-0.116128 0.66585,-0.26126 0.998778,-0.391893 0.328134,-0.152133 0.666409,-0.284064 0.984398,-0.456395 0.357384,-0.193681 0.699492,-0.414976 1.038193,-0.639729 0.901798,-0.59841 1.366237,-0.980707 2.215431,-1.66553 0.728953,-0.587854 1.438277,-1.181518 2.158373,-1.779831 1.047546,-0.880811 2.211078,-1.666981 3.030783,-2.784166 0.451623,-0.615524 0.601499,-0.984922 0.953289,-1.676246 0.667263,-1.40857 0.337476,-0.67977 0.985181,-2.18829 0,0 -2.557854,-1.450586 -2.557854,-1.450586 v 0 c -0.758497,1.429043 -0.375208,0.74003 -1.145873,2.069259 -0.251564,0.385794 -0.760765,1.176531 -1.040654,1.570395 -0.768435,1.081346 -1.693,2.034637 -2.648879,2.950337 -0.829945,0.750821 -1.193792,1.109503 -2.092275,1.798949 -0.73838,0.566595 -1.510382,1.096741 -2.328942,1.542241 -0.578027,0.314589 -1.505833,0.709162 -2.123516,0.980757 -0.81751,0.305319 -1.143863,0.452485 -1.989365,0.668023 -1.390827,0.354552 -2.823811,0.452355 -4.254791,0.439351 -0.492133,-0.0085 -1.393505,-0.01958 -1.907863,-0.04475 -1.020318,-0.04991 -2.034556,-0.179134 -3.0365,-0.377706 -0.251198,-0.05653 -0.504117,-0.105897 -0.753594,-0.169596 -0.749659,-0.191407 -1.48548,-0.440348 -2.19047,-0.759957 -0.228686,-0.103677 -0.888312,-0.466098 -0.676575,-0.331142 0.675185,0.430345 1.379779,0.81271 2.06967,1.219065 C 21.977741,35.767274 21.762681,35.65395 21.130369,35.197515 20.221399,34.541372 19.382342,33.794258 18.583727,33.00916 18.049884,32.49223 17.525799,31.964492 16.98816,31.451568 16.478277,30.965121 15.952932,30.49465 15.43587,30.015928 14.468803,29.200012 13.481232,28.40886 12.493774,27.617846 12.114356,27.327971 11.73622,27.028778 11.322515,26.787827 9.9378705,25.981383 8.5474867,25.053151 7.0526539,24.412722 6.7212495,24.296183 6.6243842,24.246805 6.2845555,24.184582 c -0.440654,-0.08068 -0.8898808,-0.04513 -1.3292013,0.02439 -0.2576049,0.05699 -0.3887081,0.07532 -0.6347971,0.171933 -0.3852836,0.151258 -0.720822,0.401289 -1.0164884,0.686747 -0.06839,0.07609 -0.1408871,0.148678 -0.2051698,0.228268 -0.3223966,0.399166 -0.5245346,0.845401 -0.5896492,1.355303 -0.011288,0.100092 -0.02652,0.199816 -0.033864,0.300276 -0.040544,0.55459 0.035185,1.107302 0.1325384,1.652047 0.2016913,1.436836 -0.092934,-0.65324 0.1105783,0.761783 0.016364,0.113777 0.026358,0.228537 0.046793,0.341652 0.048698,0.269539 0.143877,0.524052 0.2618452,0.770387 0.2512605,0.533508 0.5607373,1.044535 0.9899825,1.455034 1.1728309,1.118671 1.9980534,1.318765 3.8978024,2.407007 0.2417395,0.138477 0.5257692,0.196831 0.7913455,0.267078 0.253606,0.04568 0.3261264,0.06584 0.5837351,0.0838 0.402432,0.02805 0.8088689,-0.0027 1.2064759,-0.0655 0.332319,-0.08106 0.616019,-0.158983 0.908365,-0.348951 0.36748,-0.238789 0.654432,-0.579496 0.94263,-0.902946 1.10977,-1.382914 2.119743,-2.843168 3.058597,-4.347088 0.889746,-1.413293 0.440125,-0.695196 1.348549,-2.154487 0.242042,-0.385418 0.494942,-0.764083 0.730486,-1.153506 0.703371,-1.162876 1.334615,-2.368617 2.000075,-3.552997 0.215328,-0.384142 0.436849,-0.764878 0.645985,-1.152426 0.495841,-0.918839 0.603579,-1.172533 1.040912,-2.104775 0.441637,-0.941418 0.876203,-1.886284 1.250104,-2.857288 0.119861,-0.302803 0.23373,-0.608047 0.359582,-0.908409 0.460894,-1.099988 1.012316,-2.160706 1.574021,-3.211664 0.20261,-0.337234 0.319751,-0.543378 0.540955,-0.867636 0.367229,-0.538313 0.780688,-1.045494 1.239481,-1.5083654 0.109875,-0.1040763 0.216378,-0.2118326 0.329626,-0.3122287 0.435065,-0.3856951 0.921811,-0.724752 1.463087,-0.9424239 0.366242,-0.1130385 0.747274,-0.1845937 1.131663,-0.1375928 0.193559,0.037027 0.377918,0.080437 0.559374,0.1601491 0.06551,0.028777 0.25414,0.1312955 0.192482,0.095 -2.390881,-1.4073745 -4.08825,-2.3597568 -2.788076,-1.6290334 0.07464,0.051687 0.15203,0.099607 0.223914,0.1550601 0.368377,0.2841749 0.674185,0.6497206 0.895445,1.0576779 0.03557,0.078181 0.07538,0.154568 0.106702,0.2345423 0.135839,0.3467965 0.119184,0.6645875 -0.01111,1.0102278 -0.03468,0.072416 -0.06402,0.1476341 -0.104029,0.2172497 -0.358976,0.6247063 -0.985967,1.0393323 -1.573972,1.4221573 -0.615686,0.345323 -0.702819,0.418166 -1.392455,0.695427 -1.384049,0.556444 -2.854127,0.841933 -4.341726,0.918129 -0.98079,0.03047 -1.425946,0.06228 -2.414695,0.01883 C 16.395,12.42876 14.3959,12.093324 12.43905,11.602666 11.931226,11.461527 11.421402,11.327415 10.915584,11.17927 10.651362,11.101884 8.5638493,10.449596 8.2354273,10.348702 7.7990014,10.214628 6.4160463,9.7995538 5.9551246,9.6540721 5.6096772,9.5450378 5.26626,9.4296721 4.9218278,9.3174721 4.5988774,9.2009163 4.2739098,9.089805 3.9529768,8.9678046 2.9730297,8.5952842 2.0276273,8.1455296 1.0667769,7.728483 c 0,0 3.0868033,2.407995 3.0868033,2.407995 z" />
  </g>
</svg>
