<?xml version="1.0" standalone="no"?>
<!DOCTYPE svg PUBLIC "-//W3C//DTD SVG 20010904//EN"
 "http://www.w3.org/TR/2001/REC-SVG-20010904/DTD/svg10.dtd">
<svg version="1.0" xmlns="http://www.w3.org/2000/svg"
 width="700.000000pt" height="700.000000pt" viewBox="0 0 700.000000 700.000000"
 preserveAspectRatio="xMidYMid meet">
<metadata>
Created by potrace 1.11, written by Peter Selinger 2001-2013
</metadata>
<g transform="translate(0.000000,700.000000) scale(0.100000,-0.100000)"
fill="#000000" stroke="none">
<path d="M5077 6838 c-23 -24 -60 -79 -81 -123 -35 -71 -40 -88 -40 -155 -1
-62 4 -84 27 -131 15 -31 27 -66 27 -79 0 -20 -33 -70 -87 -129 -39 -44 -3
-72 85 -66 61 5 97 22 181 88 85 68 121 125 121 191 -1 66 -27 120 -85 176
-65 62 -89 112 -80 164 20 117 0 136 -68 64z"/>
<path d="M980 6757 c0 -7 22 -76 49 -153 43 -124 68 -190 129 -339 18 -45 150
-306 204 -405 119 -216 128 -229 254 -369 23 -25 48 -55 57 -66 8 -11 53 -66
99 -123 45 -57 95 -121 110 -144 15 -22 35 -49 44 -59 24 -26 17 -29 -41 -13
-61 17 -186 16 -262 -2 -116 -27 -221 -89 -321 -190 -23 -24 -56 -51 -72 -59
-28 -14 -40 -27 -22 -23 4 0 14 -1 22 -4 8 -3 35 -11 60 -18 25 -7 79 -28 120
-47 41 -20 98 -42 125 -50 48 -15 134 -20 165 -11 8 3 31 8 52 12 20 5 45 16
55 26 11 9 29 22 40 29 27 14 143 158 143 177 0 8 3 14 8 14 8 0 132 -278 132
-295 0 -5 -28 -27 -63 -47 -78 -47 -169 -136 -206 -202 -16 -28 -41 -85 -56
-126 -23 -65 -26 -84 -21 -147 10 -113 31 -178 107 -331 75 -152 146 -255 259
-373 60 -63 79 -89 67 -89 -1 0 -40 14 -87 31 -47 17 -121 43 -165 59 -104 37
-339 139 -391 170 -23 14 -65 39 -94 55 -93 54 -425 308 -472 361 -18 20 -53
66 -78 103 -25 36 -75 104 -111 151 -72 95 -100 149 -119 230 -7 30 -21 82
-32 114 -15 46 -18 76 -14 131 7 88 19 124 53 151 20 17 24 28 19 47 -14 58
-105 31 -182 -56 -50 -57 -144 -217 -169 -287 -37 -103 -38 -354 -3 -485 5
-22 12 -58 14 -80 17 -155 299 -512 494 -624 49 -29 174 -103 282 -168 102
-60 342 -180 418 -209 19 -7 27 -13 17 -13 -25 -1 -257 -90 -287 -111 -14 -9
-48 -26 -76 -37 -29 -12 -76 -36 -105 -55 -30 -18 -67 -40 -82 -48 -72 -37
-276 -294 -325 -410 -26 -62 -54 -185 -53 -241 0 -44 25 -122 71 -223 27 -60
117 -150 168 -168 63 -22 235 -17 317 10 157 52 225 130 233 270 5 93 -10 132
-69 190 -56 55 -116 82 -183 82 -97 0 -128 -28 -106 -95 11 -32 10 -36 -17
-59 -57 -50 -92 -56 -136 -24 -29 21 -43 117 -28 180 18 71 63 170 113 245 35
54 55 72 146 129 105 66 283 152 397 192 51 18 181 52 250 66 11 3 43 10 70
16 56 14 348 20 410 9 22 -4 60 -10 85 -14 25 -3 61 -10 80 -15 19 -5 53 -11
75 -14 39 -5 61 -9 119 -22 90 -19 387 -172 414 -212 18 -28 48 -133 58 -204
9 -68 9 -156 0 -758 -14 -878 -11 -836 -55 -913 -46 -82 -215 -307 -231 -307
-3 0 -18 -12 -33 -26 -26 -24 -184 -95 -252 -114 -54 -14 -65 -22 -65 -45 0
-59 157 -60 332 -2 101 34 232 93 305 138 l32 20 50 -63 c96 -121 252 -237
365 -269 33 -9 79 -24 102 -32 90 -33 144 -28 144 14 0 17 -57 69 -75 69 -4 0
-23 11 -41 25 -18 14 -37 25 -42 25 -18 0 -149 147 -171 192 -17 37 -21 60
-19 114 2 37 8 69 13 71 6 1 20 -13 32 -31 21 -33 106 -107 214 -187 45 -34
144 -72 214 -84 17 -2 41 -7 55 -9 87 -17 115 -20 207 -20 94 -1 103 1 127 23
32 30 33 41 4 41 -37 0 -168 44 -238 80 -36 18 -103 63 -149 99 -91 71 -231
209 -231 227 0 7 -19 38 -43 70 -96 133 -113 173 -122 282 -3 36 1 45 22 60
158 109 298 339 329 542 3 19 7 46 10 60 5 30 6 246 0 275 -2 11 -7 40 -11 65
-9 57 -112 269 -163 336 -45 58 -202 289 -202 297 0 8 -140 249 -164 282 -12
17 -34 49 -48 72 l-27 41 189 -3 c103 -2 197 -5 207 -8 10 -3 40 -8 67 -12 37
-4 64 -17 106 -48 31 -24 82 -56 113 -72 38 -19 70 -45 94 -77 21 -26 40 -48
44 -48 4 0 14 -17 22 -38 8 -21 31 -59 50 -84 51 -66 61 -88 43 -88 -55 0
-121 -69 -159 -168 -17 -43 -24 -161 -12 -212 11 -47 6 -125 -9 -170 -29 -83
-13 -113 39 -76 11 7 23 14 28 15 21 3 117 58 155 89 55 45 117 151 133 227
l12 60 13 -30 c7 -16 42 -59 79 -94 36 -35 74 -80 84 -100 33 -64 59 -166 61
-237 4 -135 1 -240 -8 -301 -7 -54 -6 -68 12 -106 12 -24 36 -57 53 -74 l32
-31 -29 -10 c-38 -14 -136 -86 -155 -115 -8 -13 -29 -63 -45 -111 -27 -79 -30
-99 -28 -185 l3 -96 50 1 c63 2 199 54 238 91 39 38 99 165 100 214 1 21 3 39
5 39 2 0 56 -50 118 -112 120 -118 182 -164 235 -173 18 -3 35 -8 39 -10 3 -2
12 0 19 5 20 12 7 36 -25 44 -15 4 -44 24 -64 44 -91 91 -352 393 -434 500
-24 32 -25 408 -1 494 8 32 10 32 56 16 80 -28 289 -217 365 -331 48 -73 111
-145 172 -202 65 -59 78 -128 32 -170 -11 -10 -17 -22 -14 -26 8 -14 42 -5 62
17 18 19 49 91 47 109 -8 74 -35 128 -118 237 l-29 38 54 0 c71 -1 120 -18
347 -121 24 -12 58 -35 75 -52 17 -18 56 -48 86 -66 30 -19 75 -51 100 -71 25
-20 68 -45 95 -55 28 -10 73 -31 100 -46 28 -15 66 -32 85 -37 19 -6 67 -22
105 -37 84 -32 120 -36 120 -15 0 8 -26 28 -60 44 -33 16 -90 46 -126 66 -36
20 -79 40 -95 44 -16 4 -51 22 -79 39 l-50 32 79 6 c62 5 93 14 150 43 40 20
83 47 97 59 14 12 37 29 51 37 59 34 118 92 118 117 0 22 -3 24 -28 18 -26 -5
-42 0 -157 50 -16 7 -41 16 -55 21 -74 23 -196 21 -300 -5 -128 -33 -231 -72
-243 -93 -7 -10 -16 -18 -22 -18 -11 0 -70 56 -179 168 -79 82 -123 100 -285
117 -59 6 -121 34 -157 70 -12 12 -37 33 -54 45 -18 13 -57 44 -86 70 -30 27
-81 58 -112 70 -104 40 -126 54 -217 138 -102 95 -118 118 -154 222 -15 41
-29 80 -33 85 -3 6 -18 42 -33 80 -16 39 -39 86 -52 105 -13 19 -28 53 -34 75
-16 59 -109 246 -136 273 -13 12 -23 26 -23 30 0 13 -77 89 -121 119 -24 17
-68 39 -98 50 l-54 20 44 30 c24 17 58 37 74 46 57 29 195 177 227 241 27 56
77 227 78 268 0 9 4 27 9 40 5 13 9 26 10 30 7 30 38 88 62 116 16 18 29 37
29 42 0 5 17 19 38 30 120 66 144 78 165 83 100 24 289 67 293 67 3 0 -2 -7
-10 -16 -9 -8 -17 -26 -17 -40 -1 -13 -2 -30 -3 -36 -5 -35 93 -189 157 -248
18 -17 33 -46 45 -90 19 -71 44 -91 61 -48 6 13 26 41 45 62 19 21 47 61 61
88 25 45 27 57 22 124 -6 86 -34 142 -97 197 l-41 35 57 7 c67 8 125 31 196
79 29 20 56 36 60 36 5 0 44 23 88 50 68 43 182 106 385 215 112 60 155 88
155 102 0 32 -117 -2 -200 -57 -8 -6 -31 -17 -50 -25 -19 -9 -51 -25 -70 -37
-19 -11 -74 -40 -122 -64 -47 -24 -93 -50 -100 -58 -8 -7 -34 -24 -58 -36 -54
-28 -53 -23 42 117 40 59 81 125 91 147 10 21 41 75 69 120 28 44 64 102 81
128 16 26 52 69 81 95 28 27 65 66 83 88 17 22 63 65 102 95 38 30 70 61 70
68 1 20 -29 27 -53 12 -11 -7 -39 -23 -60 -34 -96 -52 -295 -285 -371 -436
-15 -30 -58 -98 -95 -150 -36 -52 -85 -127 -108 -166 -64 -110 -136 -156 -317
-199 -165 -39 -146 -37 -325 -36 -47 0 -100 -4 -118 -10 -18 -6 -38 -9 -45 -6
-6 2 -19 1 -27 -3 -29 -14 -92 -22 -85 -11 3 6 8 21 10 32 4 22 17 39 70 97
30 33 261 153 320 167 98 22 305 118 415 193 72 49 209 185 248 247 14 22 42
63 63 90 21 28 42 62 48 78 7 19 20 29 41 33 35 8 40 31 8 43 -32 12 -71 -10
-99 -56 -12 -21 -34 -49 -49 -63 -14 -14 -50 -53 -80 -88 -57 -67 -136 -114
-286 -172 l-73 -28 23 47 c41 83 16 225 -63 354 -22 35 -25 37 -44 24 -12 -8
-25 -28 -29 -45 -5 -19 -28 -48 -58 -74 -126 -107 -143 -212 -54 -319 19 -22
34 -42 34 -44 0 -9 -102 -36 -146 -39 -68 -5 -140 -25 -196 -53 -57 -28 -56
-30 -29 95 11 48 22 105 24 127 7 52 10 65 41 165 30 97 78 177 160 267 l57
62 33 -33 c51 -50 172 -69 273 -43 13 3 53 25 90 49 38 24 81 50 96 57 41 22
107 80 107 96 0 8 -13 23 -29 34 -23 17 -44 21 -105 21 -46 0 -91 6 -116 16
-45 18 -101 12 -172 -20 l-38 -16 46 62 c24 35 68 95 96 135 l51 71 36 -23
c39 -26 137 -55 186 -55 41 0 122 27 160 54 38 26 135 125 135 137 0 5 -12 14
-26 19 -14 6 -47 22 -72 38 -58 34 -159 61 -208 55 -20 -2 -61 -12 -90 -23
l-54 -18 15 34 c8 20 17 58 21 86 6 45 5 50 -11 47 -13 -3 -27 -27 -45 -80
-14 -41 -35 -91 -47 -110 -11 -18 -37 -68 -57 -110 -25 -50 -56 -94 -94 -132
l-58 -57 -56 54 c-71 70 -90 101 -126 213 -42 125 -44 140 -47 288 -2 170 -16
228 -58 248 -22 11 -35 13 -44 5 -10 -8 -7 -17 13 -41 24 -28 25 -34 18 -101
-4 -39 -8 -110 -8 -158 -1 -48 -5 -90 -8 -93 -3 -4 -16 -2 -27 4 -45 25 -143
49 -198 49 -92 0 -139 -24 -305 -149 -26 -19 -18 -49 13 -49 11 0 39 -16 62
-35 65 -56 130 -75 239 -71 83 3 141 17 219 50 12 5 18 0 24 -21 10 -43 91
-157 132 -189 49 -36 62 -54 63 -81 0 -28 -26 -46 -175 -121 -41 -21 -115 -87
-136 -121 -9 -15 -20 -43 -24 -61 -4 -19 -16 -55 -27 -80 -23 -53 -46 -152
-54 -230 -6 -63 -20 -135 -39 -200 -7 -25 -23 -89 -35 -143 -18 -82 -30 -110
-71 -172 -27 -40 -49 -79 -49 -86 0 -8 -9 -27 -20 -44 -11 -16 -20 -37 -20
-45 0 -8 -13 -42 -29 -75 -51 -105 -118 -301 -135 -398 -13 -75 -146 -331
-209 -401 -9 -11 -32 -41 -49 -66 -17 -25 -47 -55 -66 -68 -34 -23 -52 -23
-162 -6 -78 12 -251 -51 -414 -150 -32 -20 -62 -36 -67 -36 -5 0 -10 12 -10
28 -1 15 -3 50 -4 77 -3 40 3 62 28 109 32 61 69 87 140 100 59 11 74 47 34
84 -36 34 -90 46 -252 56 -54 3 -151 -20 -185 -44 -16 -11 -30 -20 -32 -20 -2
0 -22 24 -43 53 -22 28 -50 63 -63 77 -12 14 -34 41 -48 61 l-25 37 20 60 c10
33 26 71 35 84 8 13 22 50 30 83 24 93 37 393 22 505 -19 144 -22 202 -12 188
28 -36 69 -56 126 -63 54 -6 66 -4 122 23 75 36 99 57 160 142 26 36 52 70 57
77 6 6 25 40 43 75 17 35 38 71 46 80 27 33 11 49 -78 80 -127 43 -261 34
-343 -24 -105 -73 -152 -117 -168 -157 -12 -29 -28 -18 -34 25 -2 16 -8 52
-14 79 -5 28 -12 73 -15 100 -14 146 -96 355 -156 402 -28 22 -33 -5 -6 -34
26 -27 63 -90 71 -123 3 -8 13 -45 24 -81 25 -86 35 -195 33 -344 -8 -524 -6
-496 -34 -555 -25 -54 -26 -54 -36 -29 -17 42 -92 95 -173 122 -18 6 -34 70
-50 197 -11 85 -12 98 -24 219 -3 36 -15 103 -26 150 -11 48 -22 95 -25 106
-2 11 -6 29 -8 40 -48 221 -60 274 -71 295 -46 89 -75 181 -75 241 0 52 22
108 43 110 81 5 90 29 15 36 -34 4 -51 -1 -81 -21 -21 -14 -40 -26 -42 -26 -2
0 -21 28 -43 63 -40 62 -97 127 -113 127 -16 0 -18 -17 -5 -42 44 -84 91 -260
132 -488 3 -14 9 -41 14 -60 9 -37 19 -136 25 -260 7 -139 16 -234 31 -319 8
-46 12 -86 9 -89 -3 -4 -14 -2 -23 4 -22 14 -155 167 -187 216 -14 21 -57 75
-97 120 -39 46 -86 106 -105 135 l-33 52 45 42 c64 59 79 90 108 219 21 96 24
127 18 185 -11 92 -45 202 -74 242 -13 18 -32 51 -42 73 -10 22 -25 40 -33 40
-35 0 -180 -178 -237 -290 -25 -49 -28 -64 -26 -145 l1 -90 -57 90 c-142 223
-248 454 -373 813 -38 108 -60 148 -60 109z m3603 -508 c40 -11 85 -31 101
-44 l28 -22 -58 -19 c-41 -13 -87 -19 -149 -19 -80 1 -96 4 -144 30 -53 29
-53 29 -30 45 39 26 102 48 142 49 21 1 71 -8 110 -20z m1012 -74 c87 -30 93
-39 42 -71 -103 -66 -225 -61 -274 12 -13 21 -11 23 54 48 67 25 125 29 178
11z m-3860 -259 c20 -88 16 -169 -10 -261 -17 -55 -31 -77 -65 -95 -13 -7 -21
-7 -25 0 -26 43 -47 280 -25 280 7 0 10 7 6 15 -13 34 79 183 94 153 5 -7 16
-49 25 -92z m362 -98 c-3 -8 -6 -5 -6 6 -1 11 2 17 5 13 3 -3 4 -12 1 -19z
m21 -88 c0 -9 -3 -7 -8 5 -5 11 -8 29 -8 40 0 16 2 15 8 -5 4 -14 8 -32 8 -40z
m3142 17 c20 -6 62 -12 95 -11 45 0 54 -2 40 -10 -10 -6 -29 -21 -44 -32 -60
-49 -112 -67 -174 -61 -33 3 -66 12 -76 21 -10 9 -22 16 -28 16 -5 0 -18 9
-28 20 -17 19 -17 20 16 34 92 37 142 43 199 23z m-2974 -487 c3 -19 10 -51
15 -71 6 -26 5 -47 -5 -75 l-15 -39 -1 65 c-1 36 -3 72 -4 80 -2 8 -6 42 -9
75 -4 46 -3 53 4 30 5 -16 12 -46 15 -65z m2877 14 c17 -90 12 -148 -18 -221
-13 -31 -17 -34 -32 -22 -32 27 -55 96 -52 162 2 49 8 71 30 104 25 36 48 55
57 48 1 -1 8 -33 15 -71z m-2963 -11 c-1 -21 1 -80 4 -132 7 -102 1 -119 -9
-31 -13 107 -14 135 -8 168 7 43 14 41 13 -5z m1018 -34 c59 -20 61 -21 51
-47 -26 -67 -63 -120 -112 -156 -104 -77 -184 -94 -263 -56 -55 27 -78 53 -69
79 8 26 127 151 144 151 7 0 31 9 54 19 80 36 113 38 195 10z m-1360 -246 c34
-8 62 -19 62 -24 0 -16 -106 -111 -150 -134 -89 -45 -212 -54 -317 -22 -97 29
-101 33 -51 73 23 18 67 45 98 59 30 15 64 31 75 37 10 6 35 13 55 15 19 3 37
7 39 9 10 9 134 1 189 -13z m3020 -98 c-3 -3 -25 -8 -49 -11 -24 -4 -55 -11
-68 -16 -20 -7 -22 -6 -12 6 7 8 25 17 39 19 42 6 96 8 90 2z m-73 -88 c-11
-8 -39 -21 -62 -30 -24 -9 -72 -37 -109 -63 -36 -25 -67 -44 -70 -42 -15 16
150 124 211 139 46 11 51 10 30 -4z m-2626 -83 c12 -20 20 -41 19 -46 -2 -5
-13 11 -26 36 -26 55 -22 60 7 10z m2374 -79 c-3 -9 -8 -14 -10 -11 -3 3 -2 9
2 15 9 16 15 13 8 -4z m-1809 -102 c-3 -43 -17 -118 -30 -168 l-25 -90 5 67
c3 37 12 91 20 120 8 29 17 74 21 101 10 74 15 55 9 -30z m1696 -28 c0 -3 -6
-20 -14 -38 -7 -18 -16 -55 -20 -82 -4 -28 -19 -67 -32 -88 -38 -58 -75 -127
-69 -127 3 0 -2 -15 -12 -32 -10 -18 -21 -42 -24 -53 -5 -14 -7 -15 -8 -4 -2
28 85 270 112 314 7 11 21 41 31 68 10 26 22 47 27 47 5 0 9 -2 9 -5z m736
-146 c90 -67 121 -162 72 -224 -21 -27 -21 -27 -33 -6 -6 12 -31 43 -57 69
-49 51 -78 99 -78 132 0 19 27 70 37 70 2 0 29 -18 59 -41z m-796 -200 c-11
-95 -33 -173 -75 -265 -30 -65 -55 -100 -55 -76 0 15 32 117 40 127 4 6 10 30
14 54 4 24 13 56 21 71 8 15 17 42 20 59 6 34 36 114 40 109 2 -2 -1 -37 -5
-79z m-1654 -7 c-8 -16 -13 -32 -10 -35 3 -3 1 -8 -5 -12 -6 -3 -11 -3 -11 2
0 15 35 92 38 84 2 -6 -4 -23 -12 -39z m-375 -26 c14 -29 4 -76 -15 -76 -7 0
-19 -7 -26 -15 -27 -33 29 -75 105 -79 20 -1 45 -46 147 -271 27 -60 83 -177
124 -260 50 -102 75 -166 79 -200 3 -27 19 -78 35 -112 16 -35 26 -63 22 -63
-17 0 -214 216 -283 310 -15 19 -59 100 -98 180 -40 80 -81 161 -91 180 -25
48 -78 225 -83 280 -11 102 52 196 84 126z m179 -186 c3 -14 28 -71 57 -127
29 -57 50 -103 48 -103 -2 0 -21 26 -41 58 -20 31 -44 68 -54 82 -31 45 -59
107 -53 114 14 14 38 0 43 -24z m319 -186 c23 -31 36 -54 29 -52 -11 4 -84
108 -75 108 2 0 23 -25 46 -56z m1196 -174 c-33 -33 -63 -60 -68 -60 -5 0 -23
-11 -41 -25 -32 -25 -57 -32 -55 -17 0 12 53 50 105 76 27 14 62 38 78 55 17
17 32 31 35 31 3 0 -21 -27 -54 -60z m-1305 -112 c0 -40 -4 -36 -29 32 l-20
55 24 -28 c15 -17 25 -40 25 -59z m1005 -163 c36 -13 76 -31 88 -40 12 -8 40
-15 62 -15 22 0 49 -6 60 -14 11 -7 36 -18 56 -25 20 -6 44 -20 54 -31 17 -18
16 -18 -36 1 -30 11 -67 27 -84 36 -16 9 -48 20 -70 24 -22 4 -65 16 -95 27
-30 11 -77 26 -105 33 -44 12 -47 14 -25 20 14 4 26 7 27 8 2 1 32 -10 68 -24z
m378 -59 c37 -36 49 -54 25 -40 -25 15 -96 72 -124 98 l-29 27 45 -25 c25 -14
62 -41 83 -60z m165 -151 c24 -43 27 -46 -47 45 -15 19 -32 46 -36 60 -9 30
48 -43 83 -105z m-8 -140 c10 -11 25 -38 34 -60 l17 -40 -26 30 c-14 17 -44
52 -67 79 l-42 50 32 -20 c18 -10 41 -28 52 -39z m105 -270 c32 -41 56 -77 53
-80 -9 -10 -80 70 -103 118 -32 63 -20 54 50 -38z m89 2 c14 -32 21 -55 15
-52 -14 9 -49 81 -49 101 0 24 4 17 34 -49z m-1262 -165 c11 -23 19 -45 16
-47 -11 -11 -40 23 -47 55 -5 19 -12 44 -16 55 l-7 20 17 -20 c9 -11 26 -39
37 -63z m1083 11 c4 -16 9 -58 11 -95 4 -63 1 -73 -37 -145 -46 -88 -63 -109
-101 -129 -24 -12 -27 -12 -26 4 0 9 -3 56 -7 103 -8 92 -2 123 42 215 25 52
50 72 89 73 16 1 24 -7 29 -26z m271 -112 c15 -16 33 -46 40 -66 14 -43 12
-41 -45 38 -44 60 -41 77 5 28z m-1379 -212 c-2 -58 -9 -114 -15 -124 -7 -14
-9 -6 -7 31 2 27 4 94 5 149 1 79 3 95 12 75 6 -15 8 -69 5 -131z m290 89 c26
-38 48 -85 96 -198 37 -87 76 -211 87 -280 6 -41 13 -86 16 -100 6 -41 6 -132
-1 -185 -3 -28 -26 -90 -52 -142 -25 -51 -46 -93 -47 -93 0 0 -2 21 -2 48 -4
136 -14 251 -40 432 -8 58 -17 123 -19 145 -3 22 -7 51 -10 65 -2 14 -7 48
-11 75 -3 28 -17 99 -30 159 -13 60 -24 111 -24 113 0 11 12 -2 37 -39z m-171
-39 c12 -48 5 -192 -11 -240 -9 -27 -18 -49 -19 -49 -5 0 3 256 9 288 7 37 13
37 21 1z m1510 -96 c-7 -7 -66 26 -66 37 0 5 16 0 35 -12 20 -11 34 -23 31
-25z m-1462 -460 c-3 -38 -9 -88 -15 -113 -5 -25 -11 -97 -14 -160 -8 -175
-26 -279 -56 -320 -17 -24 -3 138 18 205 8 27 11 54 18 160 8 119 13 179 19
196 3 8 10 33 16 57 6 23 13 42 15 42 3 0 2 -30 -1 -67z m2691 38 c-3 -5 -29
-17 -58 -26 -28 -10 -67 -26 -84 -36 -35 -20 -44 -12 -15 14 15 14 84 39 137
50 11 3 21 5 23 6 2 0 1 -3 -3 -8z m288 -12 c22 -6 52 -18 68 -28 l28 -17 -56
-33 c-55 -31 -175 -65 -261 -74 -58 -6 -121 7 -166 34 -35 20 -36 22 -18 35
10 7 32 16 48 20 16 4 48 15 71 25 22 10 56 20 75 24 18 3 51 10 73 14 57 12
95 12 138 0z m-2888 -381 c-3 -11 -7 -53 -11 -92 -7 -73 -17 -111 -53 -206
l-22 -55 6 50 c13 128 18 154 41 218 13 38 24 79 24 93 0 14 4 23 9 19 6 -3 8
-15 6 -27z m1361 -135 c-8 -79 -50 -141 -121 -179 -83 -45 -85 -45 -79 24 10
118 45 187 121 242 l57 41 14 -38 c8 -23 11 -58 8 -90z m-1696 -560 c-20 -44
-124 -163 -142 -163 -5 0 18 35 50 78 32 42 69 94 82 114 32 49 37 33 10 -29z
m19 -155 c-50 -39 -62 -39 -24 1 22 23 41 37 44 30 2 -7 -7 -20 -20 -31z"/>
<path d="M2439 6253 c0 -5 -2 -55 -3 -113 -3 -84 -8 -118 -29 -170 -60 -155
-54 -278 23 -429 30 -60 53 -85 86 -95 38 -12 84 -15 84 -6 0 4 -15 32 -34 60
-19 29 -40 75 -46 102 -12 47 -11 75 6 193 9 62 9 98 1 205 -9 100 -21 148
-53 212 -23 46 -33 57 -35 41z"/>
<path d="M1183 5828 c-17 -21 -33 -82 -52 -190 -32 -188 -8 -242 181 -398 56
-46 108 -110 108 -134 0 -18 29 -29 35 -13 14 37 31 137 29 169 -3 59 -24 139
-56 205 -23 50 -43 74 -103 123 -79 65 -94 91 -100 187 -5 61 -20 79 -42 51z"/>
<path d="M4045 5646 c-235 -77 -368 -165 -459 -306 -49 -76 -94 -167 -112
-228 -19 -63 -11 -229 16 -322 21 -73 25 -89 35 -140 3 -14 7 -34 9 -45 20
-100 27 -194 22 -285 -8 -133 -12 -160 -37 -241 -39 -124 -15 -136 79 -42 102
101 179 223 218 345 9 32 19 56 21 55 2 -2 7 -25 12 -51 10 -56 -6 -148 -39
-221 -22 -48 -21 -75 2 -75 47 0 216 104 280 173 105 110 162 321 129 469 -13
55 -37 108 -103 228 -26 47 -46 92 -45 100 2 8 11 37 22 63 15 41 16 50 4 57
-35 22 -139 -85 -160 -165 l-11 -40 -15 45 c-21 66 -18 155 6 230 31 97 151
272 279 408 13 15 8 32 -11 31 -7 0 -70 -20 -142 -43z"/>
<path d="M4944 4239 c-3 -6 -8 -45 -11 -87 -7 -147 -58 -283 -122 -330 -99
-73 -228 -218 -294 -332 -72 -124 -97 -359 -57 -534 22 -97 46 -148 79 -165
18 -10 24 -3 65 77 58 111 108 164 221 231 183 109 293 219 363 361 44 90 47
100 47 177 0 76 -2 84 -31 120 -40 49 -67 50 -75 3 -6 -38 -40 -119 -61 -146
-23 -31 -111 -115 -130 -125 -34 -18 -21 48 34 170 68 153 79 191 85 287 4 63
1 94 -16 147 -40 131 -74 182 -97 146z"/>
</g>
</svg>
