<svg version="1" xmlns="http://www.w3.org/2000/svg" width="933.333" height="933.333" viewBox="0 0 700.000000 700.000000"><path d="M507.7 16.2c-2.3 2.4-6 7.9-8.1 12.3-3.5 7.1-4 8.8-4 15.5-.1 6.2.4 8.4 2.7 13.1 1.5 3.1 2.7 6.6 2.7 7.9 0 2-3.3 7-8.7 12.9-3.9 4.4-.3 7.2 8.5 6.6 6.1-.5 9.7-2.2 18.1-8.8 8.5-6.8 12.1-12.5 12.1-19.1-.1-6.6-2.7-12-8.5-17.6-6.5-6.2-8.9-11.2-8-16.4 2-11.7 0-13.6-6.8-6.4z"/><path d="M98 24.3c0 .7 2.2 7.6 4.9 15.3 4.3 12.4 6.8 19 12.9 33.9 1.8 4.5 15 30.6 20.4 40.5 11.9 21.6 12.8 22.9 25.4 36.9 2.3 2.5 4.8 5.5 5.7 6.6.8 1.1 5.3 6.6 9.9 12.3 4.5 5.7 9.5 12.1 11 14.4 1.5 2.2 3.5 4.9 4.4 5.9 2.4 2.6 1.7 2.9-4.1 1.3-6.1-1.7-18.6-1.6-26.2.2-11.6 2.7-22.1 8.9-32.1 19-2.3 2.4-5.6 5.1-7.2 5.9-2.8 1.4-4 2.7-2.2 2.3.4 0 1.4.1 2.2.4.8.3 3.5 1.1 6 1.8s7.9 2.8 12 4.7c4.1 2 9.8 4.2 12.5 5 4.8 1.5 13.4 2 16.5 1.1.8-.3 3.1-.8 5.2-1.2 2-.5 4.5-1.6 5.5-2.6 1.1-.9 2.9-2.2 4-2.9 2.7-1.4 14.3-15.8 14.3-17.7 0-.8.3-1.4.8-1.4.8 0 13.2 27.8 13.2 29.5 0 .5-2.8 2.7-6.3 4.7-7.8 4.7-16.9 13.6-20.6 20.2-1.6 2.8-4.1 8.5-5.6 12.6-2.3 6.5-2.6 8.4-2.1 14.7 1 11.3 3.1 17.8 10.7 33.1 7.5 15.2 14.6 25.5 25.9 37.3 6 6.3 7.9 8.9 6.7 8.9-.1 0-4-1.4-8.7-3.1-4.7-1.7-12.1-4.3-16.5-5.9-10.4-3.7-33.9-13.9-39.1-17-2.3-1.4-6.5-3.9-9.4-5.5-9.3-5.4-42.5-30.8-47.2-36.1-1.8-2-5.3-6.6-7.8-10.3-2.5-3.6-7.5-10.4-11.1-15.1-7.2-9.5-10-14.9-11.9-23-.7-3-2.1-8.2-3.2-11.4-1.5-4.6-1.8-7.6-1.4-13.1.7-8.8 1.9-12.4 5.3-15.1 2-1.7 2.4-2.8 1.9-4.7-1.4-5.8-10.5-3.1-18.2 5.6C49.4 218 40 234 37.5 241c-3.7 10.3-3.8 35.4-.3 48.5.5 2.2 1.2 5.8 1.4 8 1.7 15.5 29.9 51.2 49.4 62.4 4.9 2.9 17.4 10.3 28.2 16.8 10.2 6 34.2 18 41.8 20.9 1.9.7 2.7 1.3 1.7 1.3-2.5.1-25.7 9-28.7 11.1-1.4.9-4.8 2.6-7.6 3.7-2.9 1.2-7.6 3.6-10.5 5.5-3 1.8-6.7 4-8.2 4.8-7.2 3.7-27.6 29.4-32.5 41-2.6 6.2-5.4 18.5-5.3 24.1 0 4.4 2.5 12.2 7.1 22.3 2.7 6 11.7 15 16.8 16.8 6.3 2.2 23.5 1.7 31.7-1 15.7-5.2 22.5-13 23.3-27 .5-9.3-1-13.2-6.9-19-5.6-5.5-11.6-8.2-18.3-8.2-9.7 0-12.8 2.8-10.6 9.5 1.1 3.2 1 3.6-1.7 5.9-5.7 5-9.2 5.6-13.6 2.4-2.9-2.1-4.3-11.7-2.8-18 1.8-7.1 6.3-17 11.3-24.5 3.5-5.4 5.5-7.2 14.6-12.9 10.5-6.6 28.3-15.2 39.7-19.2 5.1-1.8 18.1-5.2 25-6.6 1.1-.3 4.3-1 7-1.6 5.6-1.4 34.8-2 41-.9 2.2.4 6 1 8.5 1.4 2.5.3 6.1 1 8 1.5 1.9.5 5.3 1.1 7.5 1.4 3.9.5 6.1.9 11.9 2.2 9 1.9 38.7 17.2 41.4 21.2 1.8 2.8 4.8 13.3 5.8 20.4.9 6.8.9 15.6 0 75.8-1.4 87.8-1.1 83.6-5.5 91.3-4.6 8.2-21.5 30.7-23.1 30.7-.3 0-1.8 1.2-3.3 2.6-2.6 2.4-18.4 9.5-25.2 11.4-5.4 1.4-6.5 2.2-6.5 4.5 0 5.9 15.7 6 33.2.2 10.1-3.4 23.2-9.3 30.5-13.8l3.2-2 5 6.3c9.6 12.1 25.2 23.7 36.5 26.9 3.3.9 7.9 2.4 10.2 3.2 9 3.3 14.4 2.8 14.4-1.4 0-1.7-5.7-6.9-7.5-6.9-.4 0-2.3-1.1-4.1-2.5-1.8-1.4-3.7-2.5-4.2-2.5-1.8 0-14.9-14.7-17.1-19.2-1.7-3.7-2.1-6-1.9-11.4.2-3.7.8-6.9 1.3-7.1.6-.1 2 1.3 3.2 3.1 2.1 3.3 10.6 10.7 21.4 18.7 4.5 3.4 14.4 7.2 21.4 8.4 1.7.2 4.1.7 5.5.9 8.7 1.7 11.5 2 20.7 2 9.4.1 10.3-.1 12.7-2.3 3.2-3 3.3-4.1.4-4.1-3.7 0-16.8-4.4-23.8-8-3.6-1.8-10.3-6.3-14.9-9.9-9.1-7.1-23.1-20.9-23.1-22.7 0-.7-1.9-3.8-4.3-7-9.6-13.3-11.3-17.3-12.2-28.2-.3-3.6.1-4.5 2.2-6 15.8-10.9 29.8-33.9 32.9-54.2.3-1.9.7-4.6 1-6 .5-3 .6-24.6 0-27.5-.2-1.1-.7-4-1.1-6.5-.9-5.7-11.2-26.9-16.3-33.6-4.5-5.8-20.2-28.9-20.2-29.7 0-.8-14-24.9-16.4-28.2-1.2-1.7-3.4-4.9-4.8-7.2l-2.7-4.1 18.9.3c10.3.2 19.7.5 20.7.8 1 .3 4 .8 6.7 1.2 3.7.4 6.4 1.7 10.6 4.8 3.1 2.4 8.2 5.6 11.3 7.2 3.8 1.9 7 4.5 9.4 7.7 2.1 2.6 4 4.8 4.4 4.8.4 0 1.4 1.7 2.2 3.8.8 2.1 3.1 5.9 5 8.4 5.1 6.6 6.1 8.8 4.3 8.8-5.5 0-12.1 6.9-15.9 16.8-1.7 4.3-2.4 16.1-1.2 21.2 1.1 4.7.6 12.5-.9 17-2.9 8.3-1.3 11.3 3.9 7.6 1.1-.7 2.3-1.4 2.8-1.5 2.1-.3 11.7-5.8 15.5-8.9 5.5-4.5 11.7-15.1 13.3-22.7l1.2-6 1.3 3c.7 1.6 4.2 5.9 7.9 9.4 3.6 3.5 7.4 8 8.4 10 3.3 6.4 5.9 16.6 6.1 23.7.4 13.5.1 24-.8 30.1-.7 5.4-.6 6.8 1.2 10.6 1.2 2.4 3.6 5.7 5.3 7.4l3.2 3.1-2.9 1c-3.8 1.4-13.6 8.6-15.5 11.5-.8 1.3-2.9 6.3-4.5 11.1-2.7 7.9-3 9.9-2.8 18.5l.3 9.6 5-.1c6.3-.2 19.9-5.4 23.8-9.1 3.9-3.8 9.9-16.5 10-21.4.1-2.1.3-3.9.5-3.9s5.6 5 11.8 11.2c12 11.8 18.2 16.4 23.5 17.3 1.8.3 3.5.8 3.9 1 .3.2 1.2 0 1.9-.5 2-1.2.7-3.6-2.5-4.4-1.5-.4-4.4-2.4-6.4-4.4-9.1-9.1-35.2-39.3-43.4-50-2.4-3.2-2.5-40.8-.1-49.4.8-3.2 1-3.2 5.6-1.6 8 2.8 28.9 21.7 36.5 33.1 4.8 7.3 11.1 14.5 17.2 20.2 6.5 5.9 7.8 12.8 3.2 17-1.1 1-1.7 2.2-1.4 2.6.8 1.4 4.2.5 6.2-1.7 1.8-1.9 4.9-9.1 4.7-10.9-.8-7.4-3.5-12.8-11.8-23.7l-2.9-3.8h5.4c7.1.1 12 1.8 34.7 12.1 2.4 1.2 5.8 3.5 7.5 5.2 1.7 1.8 5.6 4.8 8.6 6.6 3 1.9 7.5 5.1 10 7.1s6.8 4.5 9.5 5.5c2.8 1 7.3 3.1 10 4.6 2.8 1.5 6.6 3.2 8.5 3.7 1.9.6 6.7 2.2 10.5 3.7 8.4 3.2 12 3.6 12 1.5 0-.8-2.6-2.8-6-4.4-3.3-1.6-9-4.6-12.6-6.6-3.6-2-7.9-4-9.5-4.4-1.6-.4-5.1-2.2-7.9-3.9l-5-3.2 7.9-.6c6.2-.5 9.3-1.4 15-4.3 4-2 8.3-4.7 9.7-5.9 1.4-1.2 3.7-2.9 5.1-3.7 5.9-3.4 11.8-9.2 11.8-11.7 0-2.2-.3-2.4-2.8-1.8-2.6.5-4.2 0-15.7-5-1.6-.7-4.1-1.6-5.5-2.1-7.4-2.3-19.6-2.1-30 .5-12.8 3.3-23.1 7.2-24.3 9.3-.7 1-1.6 1.8-2.2 1.8-1.1 0-7-5.6-17.9-16.8-7.9-8.2-12.3-10-28.5-11.7-5.9-.6-12.1-3.4-15.7-7-1.2-1.2-3.7-3.3-5.4-4.5-1.8-1.3-5.7-4.4-8.6-7-3-2.7-8.1-5.8-11.2-7-10.4-4-12.6-5.4-21.7-13.8-10.2-9.5-11.8-11.8-15.4-22.2-1.5-4.1-2.9-8-3.3-8.5-.3-.6-1.8-4.2-3.3-8-1.6-3.9-3.9-8.6-5.2-10.5-1.3-1.9-2.8-5.3-3.4-7.5-1.6-5.9-10.9-24.6-13.6-27.3-1.3-1.2-2.3-2.6-2.3-3 0-1.3-7.7-8.9-12.1-11.9-2.4-1.7-6.8-3.9-9.8-5l-5.4-2 4.4-3c2.4-1.7 5.8-3.7 7.4-4.6 5.7-2.9 19.5-17.7 22.7-24.1 2.7-5.6 7.7-22.7 7.8-26.8 0-.9.4-2.7.9-4 .5-1.3.9-2.6 1-3 .7-3 3.8-8.8 6.2-11.6 1.6-1.8 2.9-3.7 2.9-4.2s1.7-1.9 3.8-3c12-6.6 14.4-7.8 16.5-8.3 10-2.4 28.9-6.7 29.3-6.7.3 0-.2.7-1 1.6-.9.8-1.7 2.6-1.7 4-.1 1.3-.2 3-.3 3.6-.5 3.5 9.3 18.9 15.7 24.8 1.8 1.7 3.3 4.6 4.5 9 1.9 7.1 4.4 9.1 6.1 4.8.6-1.3 2.6-4.1 4.5-6.2 1.9-2.1 4.7-6.1 6.1-8.8 2.5-4.5 2.7-5.7 2.2-12.4-.6-8.6-3.4-14.2-9.7-19.7l-4.1-3.5 5.7-.7c6.7-.8 12.5-3.1 19.6-7.9 2.9-2 5.6-3.6 6-3.6.5 0 4.4-2.3 8.8-5 6.8-4.3 18.2-10.6 38.5-21.5 11.2-6 15.5-8.8 15.5-10.2 0-3.2-11.7.2-20 5.7-.8.6-3.1 1.7-5 2.5-1.9.9-5.1 2.5-7 3.7-1.9 1.1-7.4 4-12.2 6.4-4.7 2.4-9.3 5-10 5.8-.8.7-3.4 2.4-5.8 3.6-5.4 2.8-5.3 2.3 4.2-11.7 4-5.9 8.1-12.5 9.1-14.7 1-2.1 4.1-7.5 6.9-12 2.8-4.4 6.4-10.2 8.1-12.8 1.6-2.6 5.2-6.9 8.1-9.5 2.8-2.7 6.5-6.6 8.3-8.8 1.7-2.2 6.3-6.5 10.2-9.5 3.8-3 7-6.1 7-6.8.1-2-2.9-2.7-5.3-1.2-1.1.7-3.9 2.3-6 3.4-9.6 5.2-29.5 28.5-37.1 43.6-1.5 3-5.8 9.8-9.5 15-3.6 5.2-8.5 12.7-10.8 16.6-6.4 11-13.6 15.6-31.7 19.9-16.5 3.9-14.6 3.7-32.5 3.6-4.7 0-10 .4-11.8 1-1.8.6-3.8.9-4.5.6-.6-.2-1.9-.1-2.7.3-2.9 1.4-9.2 2.2-8.5 1.1.3-.6.8-2.1 1-3.2.4-2.2 1.7-3.9 7-9.7 3-3.3 26.1-15.3 32-16.7 9.8-2.2 30.5-11.8 41.5-19.3 7.2-4.9 20.9-18.5 24.8-24.7 1.4-2.2 4.2-6.3 6.3-9 2.1-2.8 4.2-6.2 4.8-7.8.7-1.9 2-2.9 4.1-3.3 3.5-.8 4-3.1.8-4.3-3.2-1.2-7.1 1-9.9 5.6-1.2 2.1-3.4 4.9-4.9 6.3-1.4 1.4-5 5.3-8 8.8-5.7 6.7-13.6 11.4-28.6 17.2l-7.3 2.8 2.3-4.7c4.1-8.3 1.6-22.5-6.3-35.4-2.2-3.5-2.5-3.7-4.4-2.4-1.2.8-2.5 2.8-2.9 4.5-.5 1.9-2.8 4.8-5.8 7.4-12.6 10.7-14.3 21.2-5.4 31.9 1.9 2.2 3.4 4.2 3.4 4.4 0 .9-10.2 3.6-14.6 3.9-6.8.5-14 2.5-19.6 5.3-5.7 2.8-5.6 3-2.9-9.5 1.1-4.8 2.2-10.5 2.4-12.7.7-5.2 1-6.5 4.1-16.5 3-9.7 7.8-17.7 16-26.7l5.7-6.2 3.3 3.3c5.1 5 17.2 6.9 27.3 4.3 1.3-.3 5.3-2.5 9-4.9 3.8-2.4 8.1-5 9.6-5.7 4.1-2.2 10.7-8 10.7-9.6 0-.8-1.3-2.3-2.9-3.4-2.3-1.7-4.4-2.1-10.5-2.1-4.6 0-9.1-.6-11.6-1.6-4.5-1.8-10.1-1.2-17.2 2L508 122l4.6-6.2c2.4-3.5 6.8-9.5 9.6-13.5l5.1-7.1 3.6 2.3c3.9 2.6 13.7 5.5 18.6 5.5 4.1 0 12.2-2.7 16-5.4C569.3 95 579 85.1 579 83.9c0-.5-1.2-1.4-2.6-1.9-1.4-.6-4.7-2.2-7.2-3.8-5.8-3.4-15.9-6.1-20.8-5.5-2 .2-6.1 1.2-9 2.3l-5.4 1.8 1.5-3.4c.8-2 1.7-5.8 2.1-8.6.6-4.5.5-5-1.1-4.7-1.3.3-2.7 2.7-4.5 8-1.4 4.1-3.5 9.1-4.7 11-1.1 1.8-3.7 6.8-5.7 11-2.5 5-5.6 9.4-9.4 13.2l-5.8 5.7-5.6-5.4c-7.1-7-9-10.1-12.6-21.3-4.2-12.5-4.4-14-4.7-28.8-.2-17-1.6-22.8-5.8-24.8-2.2-1.1-3.5-1.3-4.4-.5-1 .8-.7 1.7 1.3 4.1 2.4 2.8 2.5 3.4 1.8 10.1-.4 3.9-.8 11-.8 15.8-.1 4.8-.5 9-.8 9.3-.3.4-1.6.2-2.7-.4-4.5-2.5-14.3-4.9-19.8-4.9-9.2 0-13.9 2.4-30.5 14.9-2.6 1.9-1.8 4.9 1.3 4.9 1.1 0 3.9 1.6 6.2 3.5 6.5 5.6 13 7.5 23.9 7.1 8.3-.3 14.1-1.7 21.9-5 1.2-.5 1.8 0 2.4 2.1 1 4.3 9.1 15.7 13.2 18.9 4.9 3.6 6.2 5.4 6.3 8.1 0 2.8-2.6 4.6-17.5 12.1-4.1 2.1-11.5 8.7-13.6 12.1-.9 1.5-2 4.3-2.4 6.1-.4 1.9-1.6 5.5-2.7 8-2.3 5.3-4.6 15.2-5.4 23-.6 6.3-2 13.5-3.9 20-.7 2.5-2.3 8.9-3.5 14.3-1.8 8.2-3 11-7.1 17.2-2.7 4-4.9 7.9-4.9 8.6 0 .8-.9 2.7-2 4.4-1.1 1.6-2 3.7-2 4.5 0 .8-1.3 4.2-2.9 7.5-5.1 10.5-11.8 30.1-13.5 39.8-1.3 7.5-14.6 33.1-20.9 40.1-.9 1.1-3.2 4.1-4.9 6.6-1.7 2.5-4.7 5.5-6.6 6.8-3.4 2.3-5.2 2.3-16.2.6-7.8-1.2-25.1 5.1-41.4 15-3.2 2-6.2 3.6-6.7 3.6s-1-1.2-1-2.8c-.1-1.5-.3-5-.4-7.7-.3-4 .3-6.2 2.8-10.9 3.2-6.1 6.9-8.7 14-10 5.9-1.1 7.4-4.7 3.4-8.4-3.6-3.4-9-4.6-25.2-5.6-5.4-.3-15.1 2-18.5 4.4-1.6 1.1-3 2-3.2 2-.2 0-2.2-2.4-4.3-5.3-2.2-2.8-5-6.3-6.3-7.7-1.2-1.4-3.4-4.1-4.8-6.1l-2.5-3.7 2-6c1-3.3 2.6-7.1 3.5-8.4.8-1.3 2.2-5 3-8.3 2.4-9.3 3.7-39.3 2.2-50.5-1.9-14.4-2.2-20.2-1.2-18.8 2.8 3.6 6.9 5.6 12.6 6.3 5.4.6 6.6.4 12.2-2.3 7.5-3.6 9.9-5.7 16-14.2 2.6-3.6 5.2-7 5.7-7.7.6-.6 2.5-4 4.3-7.5 1.7-3.5 3.8-7.1 4.6-8 2.7-3.3 1.1-4.9-7.8-8-12.7-4.3-26.1-3.4-34.3 2.4-10.5 7.3-15.2 11.7-16.8 15.7-1.2 2.9-2.8 1.8-3.4-2.5-.2-1.6-.8-5.2-1.4-7.9-.5-2.8-1.2-7.3-1.5-10-1.4-14.6-9.6-35.5-15.6-40.2-2.8-2.2-3.3.5-.6 3.4 2.6 2.7 6.3 9 7.1 12.3.3.8 1.3 4.5 2.4 8.1 2.5 8.6 3.5 19.5 3.3 34.4-.8 52.4-.6 49.6-3.4 55.5-2.5 5.4-2.6 5.4-3.6 2.9-1.7-4.2-9.2-9.5-17.3-12.2-1.8-.6-3.4-7-5-19.7-1.1-8.5-1.2-9.8-2.4-21.9-.3-3.6-1.5-10.3-2.6-15-1.1-4.8-2.2-9.5-2.5-10.6-.2-1.1-.6-2.9-.8-4-4.8-22.1-6-27.4-7.1-29.5-4.6-8.9-7.5-18.1-7.5-24.1 0-5.2 2.2-10.8 4.3-11 8.1-.5 9-2.9 1.5-3.6-3.4-.4-5.1.1-8.1 2.1-2.1 1.4-4 2.6-4.2 2.6-.2 0-2.1-2.8-4.3-6.3-4-6.2-9.7-12.7-11.3-12.7-1.6 0-1.8 1.7-.5 4.2 4.4 8.4 9.1 26 13.2 48.8.3 1.4.9 4.1 1.4 6 .9 3.7 1.9 13.6 2.5 26 .7 13.9 1.6 23.4 3.1 31.9.8 4.6 1.2 8.6.9 8.9-.3.4-1.4.2-2.3-.4-2.2-1.4-15.5-16.7-18.7-21.6-1.4-2.1-5.7-7.5-9.7-12-3.9-4.6-8.6-10.6-10.5-13.5l-3.3-5.2 4.5-4.2c6.4-5.9 7.9-9 10.8-21.9 2.1-9.6 2.4-12.7 1.8-18.5-1.1-9.2-4.5-20.2-7.4-24.2-1.3-1.8-3.2-5.1-4.2-7.3s-2.5-4-3.3-4c-3.5 0-18 17.8-23.7 29-2.5 4.9-2.8 6.4-2.6 14.5l.1 9-5.7-9c-14.2-22.3-24.8-45.4-37.3-81.3-3.8-10.8-6-14.8-6-10.9zm360.3 50.8c4 1.1 8.5 3.1 10.1 4.4l2.8 2.2-5.8 1.9c-4.1 1.3-8.7 1.9-14.9 1.9-8-.1-9.6-.4-14.4-3-5.3-2.9-5.3-2.9-3-4.5 3.9-2.6 10.2-4.8 14.2-4.9 2.1-.1 7.1.8 11 2zm101.2 7.4c8.7 3 9.3 3.9 4.2 7.1-10.3 6.6-22.5 6.1-27.4-1.2-1.3-2.1-1.1-2.3 5.4-4.8 6.7-2.5 12.5-2.9 17.8-1.1zm-386 25.9c2 8.8 1.6 16.9-1 26.1-1.7 5.5-3.1 7.7-6.5 9.5-1.3.7-2.1.7-2.5 0-2.6-4.3-4.7-28-2.5-28 .7 0 1-.7.6-1.5-1.3-3.4 7.9-18.3 9.4-15.3.5.7 1.6 4.9 2.5 9.2zm36.2 9.8c-.3.8-.6.5-.6-.6-.1-1.1.2-1.7.5-1.3.3.3.4 1.2.1 1.9zm2.1 8.8c0 .9-.3.7-.8-.5-.5-1.1-.8-2.9-.8-4 0-1.6.2-1.5.8.5.4 1.4.8 3.2.8 4zm314.2-1.7c2 .6 6.2 1.2 9.5 1.1 4.5 0 5.4.2 4 1-1 .6-2.9 2.1-4.4 3.2-6 4.9-11.2 6.7-17.4 6.1-3.3-.3-6.6-1.2-7.6-2.1-1-.9-2.2-1.6-2.8-1.6-.5 0-1.8-.9-2.8-2-1.7-1.9-1.7-2 1.6-3.4 9.2-3.7 14.2-4.3 19.9-2.3zM228.6 174c.3 1.9 1 5.1 1.5 7.1.6 2.6.5 4.7-.5 7.5l-1.5 3.9-.1-6.5c-.1-3.6-.3-7.2-.4-8-.2-.8-.6-4.2-.9-7.5-.4-4.6-.3-5.3.4-3 .5 1.6 1.2 4.6 1.5 6.5zm287.7-1.4c1.7 9 1.2 14.8-1.8 22.1-1.3 3.1-1.7 3.4-3.2 2.2-3.2-2.7-5.5-9.6-5.2-16.2.2-4.9.8-7.1 3-10.4 2.5-3.6 4.8-5.5 5.7-4.8.1.1.8 3.3 1.5 7.1zM220 173.7c-.1 2.1.1 8 .4 13.2.7 10.2.1 11.9-.9 3.1-1.3-10.7-1.4-13.5-.8-16.8.7-4.3 1.4-4.1 1.3.5zm101.8 3.4c5.9 2 6.1 2.1 5.1 4.7-2.6 6.7-6.3 12-11.2 15.6-10.4 7.7-18.4 9.4-26.3 5.6-5.5-2.7-7.8-5.3-6.9-7.9.8-2.6 12.7-15.1 14.4-15.1.7 0 3.1-.9 5.4-1.9 8-3.6 11.3-3.8 19.5-1zm-136 24.6c3.4.8 6.2 1.9 6.2 2.4 0 1.6-10.6 11.1-15 13.4-8.9 4.5-21.2 5.4-31.7 2.2-9.7-2.9-10.1-3.3-5.1-7.3 2.3-1.8 6.7-4.5 9.8-5.9 3-1.5 6.4-3.1 7.5-3.7 1-.6 3.5-1.3 5.5-1.5 1.9-.3 3.7-.7 3.9-.9 1-.9 13.4-.1 18.9 1.3zm302 9.8c-.3.3-2.5.8-4.9 1.1-2.4.4-5.5 1.1-6.8 1.6-2 .7-2.2.6-1.2-.6.7-.8 2.5-1.7 3.9-1.9 4.2-.6 9.6-.8 9-.2zm-7.3 8.8c-1.1.8-3.9 2.1-6.2 3-2.4.9-7.2 3.7-10.9 6.3-3.6 2.5-6.7 4.4-7 4.2-1.5-1.6 15-12.4 21.1-13.9 4.6-1.1 5.1-1 3 .4zm-262.6 8.3c1.2 2 2 4.1 1.9 4.6-.2.5-1.3-1.1-2.6-3.6-2.6-5.5-2.2-6 .7-1zm237.4 7.9c-.3.9-.8 1.4-1 1.1-.3-.3-.2-.9.2-1.5.9-1.6 1.5-1.3.8.4zm-180.9 10.2c-.3 4.3-1.7 11.8-3 16.8l-2.5 9 .5-6.7c.3-3.7 1.2-9.1 2-12 .8-2.9 1.7-7.4 2.1-10.1 1-7.4 1.5-5.5.9 3zm169.6 2.8c0 .3-.6 2-1.4 3.8-.7 1.8-1.6 5.5-2 8.2-.4 2.8-1.9 6.7-3.2 8.8-3.8 5.8-7.5 12.7-6.9 12.7.3 0-.2 1.5-1.2 3.2-1 1.8-2.1 4.2-2.4 5.3-.5 1.4-.7 1.5-.8.4-.2-2.8 8.5-27 11.2-31.4.7-1.1 2.1-4.1 3.1-6.8 1-2.6 2.2-4.7 2.7-4.7s.9.2.9.5zm73.6 14.6c9 6.7 12.1 16.2 7.2 22.4-2.1 2.7-2.1 2.7-3.3.6-.6-1.2-3.1-4.3-5.7-6.9-4.9-5.1-7.8-9.9-7.8-13.2 0-1.9 2.7-7 3.7-7 .2 0 2.9 1.8 5.9 4.1zm-79.6 20c-1.1 9.5-3.3 17.3-7.5 26.5-3 6.5-5.5 10-5.5 7.6 0-1.5 3.2-11.7 4-12.7.4-.6 1-3 1.4-5.4.4-2.4 1.3-5.6 2.1-7.1s1.7-4.2 2-5.9c.6-3.4 3.6-11.4 4-10.9.2.2-.1 3.7-.5 7.9zm-165.4.7c-.8 1.6-1.3 3.2-1 3.5.3.3.1.8-.5 1.2-.6.3-1.1.3-1.1-.2 0-1.5 3.5-9.2 3.8-8.4.2.6-.4 2.3-1.2 3.9zm-37.5 2.6c1.4 2.9.4 7.6-1.5 7.6-.7 0-1.9.7-2.6 1.5-2.7 3.3 2.9 7.5 10.5 7.9 2 .1 4.5 4.6 14.7 27.1 2.7 6 8.3 17.7 12.4 26 5 10.2 7.5 16.6 7.9 20 .3 2.7 1.9 7.8 3.5 11.2 1.6 3.5 2.6 6.3 2.2 6.3-1.7 0-21.4-21.6-28.3-31-1.5-1.9-5.9-10-9.8-18-4-8-8.1-16.1-9.1-18-2.5-4.8-7.8-22.5-8.3-28-1.1-10.2 5.2-19.6 8.4-12.6zM253 306c.3 1.4 2.8 7.1 5.7 12.7 2.9 5.7 5 10.3 4.8 10.3-.2 0-2.1-2.6-4.1-5.8-2-3.1-4.4-6.8-5.4-8.2-3.1-4.5-5.9-10.7-5.3-11.4 1.4-1.4 3.8 0 4.3 2.4zm31.9 18.6c2.3 3.1 3.6 5.4 2.9 5.2-1.1-.4-8.4-10.8-7.5-10.8.2 0 2.3 2.5 4.6 5.6zM404.5 342c-3.3 3.3-6.3 6-6.8 6s-2.3 1.1-4.1 2.5c-3.2 2.5-5.7 3.2-5.5 1.7 0-1.2 5.3-5 10.5-7.6 2.7-1.4 6.2-3.8 7.8-5.5 1.7-1.7 3.2-3.1 3.5-3.1.3 0-2.1 2.7-5.4 6zM274 353.2c0 4-.4 3.6-2.9-3.2l-2-5.5 2.4 2.8c1.5 1.7 2.5 4 2.5 5.9zm100.5 16.3c3.6 1.3 7.6 3.1 8.8 4 1.2.8 4 1.5 6.2 1.5s4.9.6 6 1.4c1.1.7 3.6 1.8 5.6 2.5 2 .6 4.4 2 5.4 3.1 1.7 1.8 1.6 1.8-3.6-.1-3-1.1-6.7-2.7-8.4-3.6-1.6-.9-4.8-2-7-2.4-2.2-.4-6.5-1.6-9.5-2.7s-7.7-2.6-10.5-3.3c-4.4-1.2-4.7-1.4-2.5-2 1.4-.4 2.6-.7 2.7-.8.2-.1 3.2 1 6.8 2.4zm37.8 5.9c3.7 3.6 4.9 5.4 2.5 4-2.5-1.5-9.6-7.2-12.4-9.8l-2.9-2.7 4.5 2.5c2.5 1.4 6.2 4.1 8.3 6zm16.5 15.1c2.4 4.3 2.7 4.6-4.7-4.5-1.5-1.9-3.2-4.6-3.6-6-.9-3 4.8 4.3 8.3 10.5zm-.8 14c1 1.1 2.5 3.8 3.4 6l1.7 4-2.6-3c-1.4-1.7-4.4-5.2-6.7-7.9l-4.2-5 3.2 2c1.8 1 4.1 2.8 5.2 3.9zm10.5 27c3.2 4.1 5.6 7.7 5.3 8-.9 1-8-7-10.3-11.8-3.2-6.3-2-5.4 5 3.8zm8.9-.2c1.4 3.2 2.1 5.5 1.5 5.2-1.4-.9-4.9-8.1-4.9-10.1 0-2.4.4-1.7 3.4 4.9zm-126.2 16.5c1.1 2.3 1.9 4.5 1.6 4.7-1.1 1.1-4-2.3-4.7-5.5-.5-1.9-1.2-4.4-1.6-5.5l-.7-2 1.7 2c.9 1.1 2.6 3.9 3.7 6.3zm108.3-1.1c.4 1.6.9 5.8 1.1 9.5.4 6.3.1 7.3-3.7 14.5-4.6 8.8-6.3 10.9-10.1 12.9-2.4 1.2-2.7 1.2-2.6-.4 0-.9-.3-5.6-.7-10.3-.8-9.2-.2-12.3 4.2-21.5 2.5-5.2 5-7.2 8.9-7.3 1.6-.1 2.4.7 2.9 2.6zm27.1 11.2c1.5 1.6 3.3 4.6 4 6.6 1.4 4.3 1.2 4.1-4.5-3.8-4.4-6-4.1-7.7.5-2.8zm-137.9 21.2c-.2 5.8-.9 11.4-1.5 12.4-.7 1.4-.9.6-.7-3.1.2-2.7.4-9.4.5-14.9.1-7.9.3-9.5 1.2-7.5.6 1.5.8 6.9.5 13.1zm29-8.9c2.6 3.8 4.8 8.5 9.6 19.8 3.7 8.7 7.6 21.1 8.7 28 .6 4.1 1.3 8.6 1.6 10 .6 4.1.6 13.2-.1 18.5-.3 2.8-2.6 9-5.2 14.2-2.5 5.1-4.6 9.3-4.7 9.3 0 0-.2-2.1-.2-4.8-.4-13.6-1.4-25.1-4-43.2-.8-5.8-1.7-12.3-1.9-14.5-.3-2.2-.7-5.1-1-6.5-.2-1.4-.7-4.8-1.1-7.5-.3-2.8-1.7-9.9-3-15.9s-2.4-11.1-2.4-11.3c0-1.1 1.2.2 3.7 3.9zm-17.1 3.9c1.2 4.8.5 19.2-1.1 24-.9 2.7-1.8 4.9-1.9 4.9-.5 0 .3-25.6.9-28.8.7-3.7 1.3-3.7 2.1-.1zm151 9.6c-.7.7-6.6-2.6-6.6-3.7 0-.5 1.6 0 3.5 1.2 2 1.1 3.4 2.3 3.1 2.5zm-146.2 46c-.3 3.8-.9 8.8-1.5 11.3-.5 2.5-1.1 9.7-1.4 16-.8 17.5-2.6 27.9-5.6 32-1.7 2.4-.3-13.8 1.8-20.5.8-2.7 1.1-5.4 1.8-16 .8-11.9 1.3-17.9 1.9-19.6.3-.8 1-3.3 1.6-5.7.6-2.3 1.3-4.2 1.5-4.2.3 0 .2 3-.1 6.7zm269.1-3.8c-.3.5-2.9 1.7-5.8 2.6-2.8 1-6.7 2.6-8.4 3.6-3.5 2-4.4 1.2-1.5-1.4 1.5-1.4 8.4-3.9 13.7-5 1.1-.3 2.1-.5 2.3-.6.2 0 .1.3-.3.8zm28.8 1.2c2.2.6 5.2 1.8 6.8 2.8l2.8 1.7-5.6 3.3c-5.5 3.1-17.5 6.5-26.1 7.4-5.8.6-12.1-.7-16.6-3.4-3.5-2-3.6-2.2-1.8-3.5 1-.7 3.2-1.6 4.8-2 1.6-.4 4.8-1.5 7.1-2.5 2.2-1 5.6-2 7.5-2.4 1.8-.3 5.1-1 7.3-1.4 5.7-1.2 9.5-1.2 13.8 0zm-288.8 38.1c-.3 1.1-.7 5.3-1.1 9.2-.7 7.3-1.7 11.1-5.3 20.6l-2.2 5.5.6-5c1.3-12.8 1.8-15.4 4.1-21.8 1.3-3.8 2.4-7.9 2.4-9.3 0-1.4.4-2.3.9-1.9.6.3.8 1.5.6 2.7zm136.1 13.5c-.8 7.9-5 14.1-12.1 17.9-8.3 4.5-8.5 4.5-7.9-2.4 1-11.8 4.5-18.7 12.1-24.2l5.7-4.1 1.4 3.8c.8 2.3 1.1 5.8.8 9zm-169.6 56c-2 4.4-12.4 16.3-14.2 16.3-.5 0 1.8-3.5 5-7.8 3.2-4.2 6.9-9.4 8.2-11.4 3.2-4.9 3.7-3.3 1 2.9zm1.9 15.5c-5 3.9-6.2 3.9-2.4-.1 2.2-2.3 4.1-3.7 4.4-3 .2.7-.7 2-2 3.1z"/><path d="M243.9 74.7c0 .5-.2 5.5-.3 11.3-.3 8.4-.8 11.8-2.9 17-6 15.5-5.4 27.8 2.3 42.9 3 6 5.3 8.5 8.6 9.5 3.8 1.2 8.4 1.5 8.4.6 0-.4-1.5-3.2-3.4-6-1.9-2.9-4-7.5-4.6-10.2-1.2-4.7-1.1-7.5.6-19.3.9-6.2.9-9.8.1-20.5-.9-10-2.1-14.8-5.3-21.2-2.3-4.6-3.3-5.7-3.5-4.1zM118.3 117.2c-1.7 2.1-3.3 8.2-5.2 19-3.2 18.8-.8 24.2 18.1 39.8 5.6 4.6 10.8 11 10.8 13.4 0 1.8 2.9 2.9 3.5 1.3 1.4-3.7 3.1-13.7 2.9-16.9-.3-5.9-2.4-13.9-5.6-20.5-2.3-5-4.3-7.4-10.3-12.3-7.9-6.5-9.4-9.1-10-18.7-.5-6.1-2-7.9-4.2-5.1zM404.5 135.4c-23.5 7.7-36.8 16.5-45.9 30.6-4.9 7.6-9.4 16.7-11.2 22.8-1.9 6.3-1.1 22.9 1.6 32.2 2.1 7.3 2.5 8.9 3.5 14 .3 1.4.7 3.4.9 4.5 2 10 2.7 19.4 2.2 28.5-.8 13.3-1.2 16-3.7 24.1-3.9 12.4-1.5 13.6 7.9 4.2 10.2-10.1 17.9-22.3 21.8-34.5.9-3.2 1.9-5.6 2.1-5.5.2.2.7 2.5 1.2 5.1 1 5.6-.6 14.8-3.9 22.1-2.2 4.8-2.1 7.5.2 7.5 4.7 0 21.6-10.4 28-17.3 10.5-11 16.2-32.1 12.9-46.9-1.3-5.5-3.7-10.8-10.3-22.8-2.6-4.7-4.6-9.2-4.5-10 .2-.8 1.1-3.7 2.2-6.3 1.5-4.1 1.6-5 .4-5.7-3.5-2.2-13.9 8.5-16 16.5l-1.1 4-1.5-4.5c-2.1-6.6-1.8-15.5.6-23 3.1-9.7 15.1-27.2 27.9-40.8 1.3-1.5.8-3.2-1.1-3.1-.7 0-7 2-14.2 4.3zM494.4 276.1c-.3.6-.8 4.5-1.1 8.7-.7 14.7-5.8 28.3-12.2 33-9.9 7.3-22.8 21.8-29.4 33.2-7.2 12.4-9.7 35.9-5.7 53.4 2.2 9.7 4.6 14.8 7.9 16.5 1.8 1 2.4.3 6.5-7.7 5.8-11.1 10.8-16.4 22.1-23.1 18.3-10.9 29.3-21.9 36.3-36.1 4.4-9 4.7-10 4.7-17.7 0-7.6-.2-8.4-3.1-12-4-4.9-6.7-5-7.5-.3-.6 3.8-4 11.9-6.1 14.6-2.3 3.1-11.1 11.5-13 12.5-3.4 1.8-2.1-4.8 3.4-17 6.8-15.3 7.9-19.1 8.5-28.7.4-6.3.1-9.4-1.6-14.7-4-13.1-7.4-18.2-9.7-14.6z"/></svg>