<?xml version="1.0" standalone="no"?>
<!DOCTYPE svg PUBLIC "-//W3C//DTD SVG 20010904//EN"
 "http://www.w3.org/TR/2001/REC-SVG-20010904/DTD/svg10.dtd">
<svg version="1.0" xmlns="http://www.w3.org/2000/svg"
 width="700.000000pt" height="700.000000pt" viewBox="0 0 700.000000 700.000000"
 preserveAspectRatio="xMidYMid meet">
<metadata>
Created by potrace 1.11, written by Peter Selinger 2001-2013
</metadata>
<g transform="translate(0.000000,700.000000) scale(0.100000,-0.100000)"
fill="#000000" stroke="none">
<path d="M3370 6919 c-58 -34 -115 -63 -127 -64 -13 -2 -76 -38 -140 -81 -65
-42 -480 -286 -923 -542 -443 -256 -830 -481 -860 -500 -218 -139 -424 -345
-565 -567 -68 -107 -144 -270 -190 -406 -124 -374 -126 -771 -4 -1149 37 -115
152 -352 250 -515 40 -66 348 -597 685 -1180 365 -633 640 -1098 683 -1155
224 -302 552 -539 903 -654 319 -105 523 -105 837 0 253 85 482 221 670 399
40 39 76 69 78 67 3 -2 14 9 24 25 10 15 49 66 87 112 93 113 88 105 763 1274
327 565 640 1107 697 1205 56 97 116 211 134 252 169 403 199 803 91 1214
-111 424 -377 801 -738 1045 -55 37 -399 240 -765 451 -942 543 -963 555
-1086 637 -61 40 -117 73 -124 73 -7 0 -59 27 -116 59 l-104 60 0 -46 c0 -37
11 -65 64 -157 81 -142 105 -191 149 -301 63 -161 103 -340 121 -538 l7 -69
-29 21 -29 20 -61 -62 c-82 -83 -82 -98 3 -156 63 -43 65 -44 85 -26 20 18 20
18 20 -11 0 -58 -13 -133 -22 -128 -5 3 -33 -14 -63 -38 -46 -36 -54 -48 -55
-77 0 -27 8 -41 40 -70 29 -26 38 -40 31 -50 -8 -12 -15 -11 -46 8 l-37 21
-54 -46 c-30 -26 -54 -48 -54 -50 0 -14 62 -124 69 -124 6 0 21 4 35 10 31 11
31 9 2 -55 -19 -42 -24 -47 -29 -30 -4 11 -19 28 -34 37 -26 16 -28 15 -86
-24 -64 -43 -64 -45 -32 -121 15 -37 51 -57 76 -41 9 5 10 2 6 -10 -4 -10 -10
-29 -13 -43 -5 -18 -11 -22 -23 -17 -41 17 -58 14 -95 -15 -21 -17 -42 -28
-47 -25 -19 12 -7 34 36 65 l45 32 -28 51 c-36 63 -72 79 -106 47 -21 -20 -24
-21 -30 -5 -4 11 1 26 15 40 l22 23 -29 45 c-19 29 -38 48 -55 51 -22 5 -57
50 -47 61 2 1 22 -3 46 -9 42 -11 42 -11 86 32 39 38 44 48 39 75 -9 50 -19
62 -69 81 l-48 18 -39 -46 c-21 -26 -43 -47 -48 -47 -17 0 -9 27 21 66 34 45
35 54 15 93 -10 20 -26 32 -52 38 -33 7 -38 13 -41 40 l-3 31 52 -13 c29 -8
54 -13 55 -12 8 12 84 146 84 149 0 3 -34 19 -76 38 l-77 33 -28 -34 -28 -34
-1 33 c0 18 5 42 10 52 7 13 7 21 0 25 -15 9 -12 164 5 282 35 248 111 459
255 709 51 88 63 118 64 157 1 26 2 47 1 47 0 0 -47 -28 -105 -61z m118 -2275
c8 -14 13 -14 51 5 38 20 42 20 48 5 7 -18 -2 -26 -57 -56 l-31 -18 20 -27
c11 -16 31 -40 44 -56 l23 -27 41 22 c41 22 42 22 62 3 12 -10 35 -43 52 -72
26 -45 35 -53 60 -53 44 0 85 -35 99 -85 15 -52 43 -70 97 -62 48 8 75 -6 44
-22 -18 -10 -21 -21 -21 -71 0 -55 2 -61 28 -74 26 -13 31 -13 60 6 24 15 34
30 38 58 5 28 10 37 21 33 11 -4 13 -15 8 -43 -6 -34 -4 -38 34 -63 46 -30 48
-35 25 -63 -8 -10 -13 -14 -10 -8 9 18 -67 47 -103 39 -30 -6 -31 -8 -31 -63
1 -69 15 -92 54 -85 26 5 27 5 15 -16 -8 -11 -24 -21 -36 -21 -19 0 -22 -7
-28 -53 -10 -81 -20 -89 -93 -75 -72 13 -92 3 -92 -46 0 -26 7 -35 45 -56 41
-23 44 -28 32 -44 -13 -17 -15 -17 -49 13 -42 37 -45 37 -75 9 -30 -28 -29
-32 8 -79 30 -38 30 -39 57 -21 30 19 27 11 -17 -48 -14 -19 -27 -38 -27 -42
-1 -5 -2 -12 -3 -16 0 -5 -26 -7 -56 -4 l-55 4 0 -50 c0 -42 3 -51 21 -55 26
-7 19 -33 -8 -30 -26 3 -66 -77 -57 -112 6 -24 4 -25 -37 -25 -41 0 -46 -3
-68 -42 -23 -40 -23 -42 -5 -55 10 -7 21 -13 26 -13 18 0 6 -29 -13 -32 -15
-2 -27 -17 -40 -52 -10 -27 -18 -51 -17 -55 2 -19 -4 -29 -21 -34 -10 -2 -27
-23 -37 -45 -10 -23 -22 -42 -25 -42 -17 0 -17 35 0 69 l19 37 -44 28 c-24 15
-52 29 -61 30 -10 2 -18 10 -18 19 0 9 -10 26 -21 39 -25 28 -64 95 -64 110 0
7 -10 22 -21 34 -16 17 -22 37 -23 75 -1 50 -2 53 -35 64 -50 16 -55 40 -7 31
32 -6 37 -4 45 16 22 59 22 62 -13 85 l-33 21 -37 -36 c-31 -31 -36 -34 -36
-17 0 12 7 31 16 44 16 22 15 24 -17 57 -24 25 -36 31 -45 23 -15 -12 -34 -4
-34 13 0 7 10 22 22 35 18 20 20 26 9 45 -28 52 -39 61 -68 53 -32 -8 -39 -5
-35 14 2 7 -15 35 -37 61 -45 53 -114 166 -116 190 -2 25 -36 84 -59 103 l-21
17 21 18 c34 27 39 60 15 86 l-21 23 25 11 c23 11 27 9 37 -13 10 -22 17 -25
69 -25 51 0 61 3 75 25 17 26 12 58 -12 86 -13 14 -8 20 38 48 l53 33 -29 -30
-28 -31 22 -35 c21 -35 24 -36 81 -36 54 0 59 2 59 23 0 12 3 32 6 45 6 20 0
25 -45 44 -50 21 -66 38 -36 38 8 0 30 -7 49 -16 33 -16 35 -16 65 5 24 18 31
30 31 56 0 19 -5 37 -10 40 -14 9 -1 28 15 21 13 -5 99 77 90 86 -8 8 54 59
92 74 42 18 50 46 23 82 -13 18 -18 35 -14 47 7 17 9 16 30 -8 13 -15 27 -34
32 -43z"/>
<path d="M3427 4522 c-61 -33 -63 -63 -7 -109 21 -18 42 -33 45 -33 10 0 85
54 85 61 0 3 -17 28 -38 56 l-38 51 -47 -26z"/>
<path d="M3665 4457 c-11 -5 -37 -21 -57 -34 l-38 -23 31 -50 c27 -44 35 -50
64 -50 24 0 39 7 54 26 26 33 26 31 -7 92 -24 45 -30 49 -47 39z"/>
<path d="M3307 4403 c-31 -22 -37 -32 -37 -63 0 -34 3 -38 51 -60 l51 -24 33
39 c19 22 33 42 32 45 -1 3 -23 25 -48 47 l-45 42 -37 -26z"/>
<path d="M3493 4320 c-18 -21 -33 -43 -33 -47 0 -5 20 -28 44 -52 l44 -43 31
45 c17 25 31 50 31 54 0 9 -72 83 -80 83 -3 0 -20 -18 -37 -40z"/>
<path d="M3751 4301 l-20 -28 28 -45 c38 -60 75 -71 108 -31 24 29 25 51 4
106 -9 24 -16 27 -55 27 -38 0 -48 -4 -65 -29z"/>
<path d="M3222 4267 c-16 -17 -22 -36 -22 -68 l0 -44 55 -16 56 -17 25 50 c14
28 24 51 22 53 -8 7 -106 65 -110 65 -2 0 -14 -10 -26 -23z"/>
<path d="M3631 4218 c-17 -23 -31 -45 -31 -48 0 -3 18 -23 39 -44 l39 -38 36
38 c19 22 36 43 36 48 0 4 -10 26 -22 47 -29 53 -57 52 -97 -3z"/>
<path d="M3412 4228 c-13 -18 -54 -99 -50 -102 2 -1 24 -14 50 -29 l46 -27 26
44 c14 25 26 47 26 50 0 7 -73 75 -81 76 -4 0 -11 -6 -17 -12z"/>
<path d="M3890 4165 c-24 -25 -24 -25 -6 -80 9 -30 19 -55 21 -55 3 0 23 7 45
16 40 16 40 16 40 70 0 35 -5 56 -12 58 -52 16 -66 15 -88 -9z"/>
<path d="M3522 4108 c-18 -23 -32 -45 -32 -49 0 -9 66 -59 77 -59 5 0 26 17
46 38 l37 38 -38 37 c-21 20 -42 37 -48 37 -5 0 -24 -19 -42 -42z"/>
<path d="M3751 4101 l-44 -38 33 -41 c31 -39 34 -41 59 -27 64 34 65 36 36 88
-15 26 -30 49 -33 51 -4 2 -27 -13 -51 -33z"/>
<path d="M3011 4094 c-26 -33 -26 -38 0 -81 22 -35 23 -35 73 -28 28 3 52 8
55 10 2 2 0 29 -3 58 -7 51 -9 55 -38 61 -52 10 -66 7 -87 -20z"/>
<path d="M3183 4113 c-9 -3 -13 -26 -13 -64 l0 -59 59 0 58 0 13 45 c7 25 11
47 9 49 -9 6 -95 36 -104 35 -6 0 -16 -3 -22 -6z"/>
<path d="M3326 4054 c-3 -26 -6 -60 -6 -75 0 -28 2 -29 45 -29 42 0 46 2 65
40 11 21 20 41 20 44 0 4 -106 66 -113 66 -3 0 -7 -21 -11 -46z"/>
<path d="M2834 4035 c-7 -29 0 -63 20 -88 14 -18 16 -18 70 -1 31 10 56 22 56
27 0 5 -5 27 -12 48 l-11 39 -58 0 c-54 0 -59 -2 -65 -25z"/>
<path d="M3623 4007 c-41 -28 -45 -69 -8 -93 22 -14 29 -14 67 -2 53 18 58 38
23 83 -30 40 -38 42 -82 12z"/>
<path d="M3963 4015 c-35 -15 -37 -23 -27 -87 l7 -38 53 0 54 0 0 58 c0 81
-20 97 -87 67z"/>
<path d="M3452 3974 c-31 -37 -31 -38 -14 -66 31 -54 40 -55 83 -12 l39 40
-39 38 -38 37 -31 -37z"/>
<path d="M3825 3967 c-27 -11 -52 -22 -53 -23 -2 -1 1 -19 8 -38 12 -36 12
-36 72 -36 57 0 60 1 55 23 -3 12 -9 39 -12 60 -4 20 -10 37 -14 36 -3 0 -28
-10 -56 -22z"/>
<path d="M3073 3947 c-23 -7 -44 -15 -48 -19 -8 -8 34 -108 46 -108 5 0 24 8
44 17 34 16 35 19 35 70 0 59 -2 60 -77 40z"/>
<path d="M3180 3907 c0 -51 2 -54 34 -70 l35 -16 31 49 c26 40 29 52 20 69 -9
17 -20 21 -65 21 l-55 0 0 -53z"/>
<path d="M2918 3898 c-27 -11 -48 -25 -48 -30 0 -6 12 -32 27 -58 l27 -48 51
25 c27 14 51 27 53 28 6 5 -48 105 -56 104 -4 0 -28 -10 -54 -21z"/>
<path d="M3323 3912 c-6 -4 -14 -23 -18 -43 -6 -33 -4 -39 23 -58 39 -27 45
-27 76 9 l25 30 -20 35 c-21 35 -56 46 -86 27z"/>
<path d="M3544 3879 c-16 -13 -33 -26 -38 -30 -6 -5 -2 -23 10 -44 17 -32 23
-35 61 -35 l43 0 0 43 c0 33 -6 49 -23 65 l-24 22 -29 -21z"/>
<path d="M3678 3878 c-24 -8 -28 -15 -28 -48 0 -36 2 -38 38 -44 61 -10 70 -7
80 22 7 20 5 34 -6 55 -17 29 -38 33 -84 15z"/>
<path d="M3957 3843 c-11 -3 -16 -11 -13 -21 2 -9 7 -31 11 -48 5 -26 12 -32
52 -42 25 -7 47 -11 48 -10 2 2 6 31 10 66 l7 62 -49 -1 c-26 -1 -56 -3 -66
-6z"/>
<path d="M3134 3808 c-16 -12 -33 -25 -37 -28 -5 -4 -2 -23 6 -42 12 -29 21
-36 53 -41 30 -5 42 -3 52 10 20 28 15 82 -10 104 -29 23 -30 23 -64 -3z"/>
<path d="M3814 3822 c-12 -8 -34 -46 -34 -60 0 -5 22 -19 50 -32 48 -23 50
-23 70 -5 20 18 24 42 14 83 -5 18 -13 22 -48 22 -22 0 -46 -4 -52 -8z"/>
<path d="M3417 3788 l-38 -30 41 -30 41 -31 25 23 c13 13 24 28 24 33 0 12
-40 67 -48 67 -4 -1 -24 -15 -45 -32z"/>
<path d="M2995 3769 c-22 -16 -42 -35 -44 -40 -5 -17 61 -79 84 -79 32 0 45
20 45 70 0 33 -6 52 -18 63 -23 21 -20 22 -67 -14z"/>
<path d="M3247 3792 c-3 -4 -7 -27 -8 -52 l-4 -45 46 -3 c36 -2 49 1 64 18 20
22 20 22 -17 56 -35 32 -71 44 -81 26z"/>
<path d="M3638 3744 c-3 -3 1 -27 10 -55 16 -49 37 -62 68 -41 12 7 44 76 44
93 0 10 -113 13 -122 3z"/>
<path d="M3524 3704 c-23 -29 -25 -37 -13 -45 39 -26 48 -28 78 -18 27 10 31
15 31 49 0 62 -54 70 -96 14z"/>
<path d="M3362 3698 c-16 -16 -15 -43 3 -77 12 -24 45 -49 49 -39 1 2 16 20
35 40 l33 36 -50 26 c-60 30 -55 29 -70 14z"/>
<path d="M3771 3682 c-14 -33 -7 -54 27 -86 20 -17 22 -17 51 0 25 15 31 25
31 51 0 27 -5 35 -25 43 -63 24 -71 23 -84 -8z"/>
<path d="M3102 3642 l-24 -18 23 -40 c12 -21 23 -40 24 -41 1 -2 20 5 44 14
41 16 42 18 39 57 -3 40 -4 41 -43 44 -27 1 -48 -4 -63 -16z"/>
<path d="M3230 3622 c0 -27 7 -45 21 -57 19 -19 21 -19 55 0 36 19 40 29 24
69 -8 23 -15 26 -55 26 l-45 0 0 -38z"/>
<path d="M3465 3605 c-15 -25 -26 -47 -24 -49 13 -11 71 -36 84 -36 26 0 17
98 -12 117 -20 14 -23 12 -48 -32z"/>
<path d="M3602 3613 c-23 -5 -42 -37 -42 -74 0 -17 6 -20 42 -17 38 3 43 6 50
36 8 32 -3 64 -21 61 -3 -1 -16 -4 -29 -6z"/>
<path d="M3676 3578 c-12 -47 -6 -67 23 -82 27 -14 29 -14 61 19 l34 35 -24
25 c-31 33 -85 35 -94 3z"/>
<path d="M3330 3550 l-35 -30 35 -30 c19 -16 37 -29 40 -29 7 0 49 54 55 71 4
11 -40 48 -57 48 -2 0 -19 -13 -38 -30z"/>
<path d="M3164 3527 l-32 -23 37 -42 36 -43 26 33 c41 53 41 55 5 77 -40 25
-34 25 -72 -2z"/>
<path d="M3767 3492 l-36 -37 21 -33 c16 -26 26 -32 42 -28 12 3 29 6 38 6 10
0 25 11 34 25 15 23 14 26 -17 65 -18 22 -35 40 -39 40 -3 0 -22 -17 -43 -38z"/>
<path d="M3417 3492 c-35 -36 -37 -82 -4 -82 45 0 66 12 77 44 9 27 8 33 -11
49 -28 22 -31 22 -62 -11z"/>
<path d="M3632 3477 c-27 -29 -27 -35 3 -72 l24 -29 36 17 c30 14 35 21 30 40
-6 20 -52 67 -66 67 -3 0 -15 -10 -27 -23z"/>
<path d="M3511 3452 c-17 -33 -17 -39 -4 -59 12 -18 25 -23 60 -23 44 0 45 1
38 28 -11 47 -29 75 -52 83 -20 7 -26 3 -42 -29z"/>
<path d="M3261 3445 l-24 -36 23 -24 c27 -29 40 -31 80 -10 42 22 40 57 -4 84
-44 28 -47 27 -75 -14z"/>
<path d="M3388 3374 c-11 -23 -8 -28 23 -60 l35 -35 28 40 c23 33 26 43 16 60
-8 16 -20 21 -51 21 -33 0 -41 -4 -51 -26z"/>
<path d="M3658 3364 c-44 -24 -37 -55 18 -78 25 -10 47 -17 48 -15 2 2 8 21
14 41 8 31 7 39 -7 52 -22 20 -38 20 -73 0z"/>
<path d="M3324 3340 c-12 -5 -27 -23 -33 -41 -19 -55 -16 -59 43 -59 65 0 75
15 51 73 -16 38 -25 42 -61 27z"/>
<path d="M3512 3325 c-18 -39 -15 -47 22 -77 l35 -28 20 34 c37 59 26 96 -28
96 -31 0 -40 -5 -49 -25z"/>
<path d="M3613 3229 l-26 -40 33 -34 c32 -33 34 -33 61 -19 22 11 29 22 29 43
0 16 2 36 5 43 4 10 -7 20 -35 31 l-41 16 -26 -40z"/>
<path d="M3435 3230 l-28 -29 27 -36 c15 -19 30 -35 34 -35 4 1 24 16 45 34
l37 34 -35 31 c-20 17 -39 31 -43 31 -5 0 -21 -13 -37 -30z"/>
<path d="M3286 3188 c-10 -38 -7 -54 15 -81 l20 -27 42 27 c23 14 44 27 45 29
2 1 -1 19 -8 38 -11 35 -13 36 -60 36 -41 0 -49 -3 -54 -22z"/>
<path d="M3511 3132 c-27 -22 -32 -32 -26 -51 7 -22 59 -61 82 -61 6 0 23 21
37 46 l25 45 -27 24 c-35 32 -51 31 -91 -3z"/>
<path d="M3378 3084 c-33 -17 -48 -31 -48 -44 0 -20 56 -79 75 -80 12 0 65 65
65 80 0 16 -29 70 -38 70 -4 -1 -28 -12 -54 -26z"/>
<path d="M3462 2977 l-31 -44 45 -31 c24 -18 48 -32 52 -32 4 0 19 22 33 48
l27 48 -43 27 c-23 15 -44 27 -47 27 -2 0 -19 -20 -36 -43z"/>
<path d="M3442 5773 c-29 -47 -52 -86 -50 -87 2 -1 34 -22 72 -45 l69 -43 53
58 c71 79 72 102 1 147 -98 63 -86 66 -145 -30z"/>
<path d="M3617 5642 c-39 -39 -47 -54 -47 -85 0 -35 3 -38 61 -68 l62 -31 58
59 c74 75 73 95 -11 141 -31 18 -62 32 -67 32 -5 0 -30 -22 -56 -48z"/>
<path d="M3326 5554 l-46 -56 25 -42 c21 -34 32 -43 75 -54 l50 -12 37 41 c62
68 69 83 51 111 -12 18 -114 68 -140 68 -3 0 -26 -25 -52 -56z"/>
<path d="M3506 5411 l-59 -60 26 -40 c21 -31 34 -40 67 -46 37 -6 45 -3 96 36
35 27 53 47 49 56 -3 8 -5 23 -5 33 0 17 -84 80 -106 80 -5 0 -36 -27 -68 -59z"/>
<path d="M3423 5178 l-42 -52 25 -48 c32 -64 60 -65 129 -5 l49 44 -19 42
c-10 24 -28 46 -39 51 -59 22 -60 21 -103 -32z"/>
</g>
</svg>
