<svg viewBox="0 0 1211 1215" xmlns="http://www.w3.org/2000/svg" fill-rule="evenodd" clip-rule="evenodd" stroke-linecap="round" stroke-linejoin="round" stroke-miterlimit="1.5">
  <path fill="#dfdbe5" stroke="#dfdbe5" d="M0 0h1211v1215H0z"/>
  <path d="M1703.72 1308.62l10.44 7.69-.83 24.98-23.06-10.43 13.45-22.24zM1674.98 1293.13l-7.72 9.44 6.87 17.16 8.15 4.72 16.3-18.45-23.6-12.87zM1562.59 1342.04l19.74 15.87-.86 12.87-7.72 9.86-26.6-13.29 15.44-25.31zM1532.13 1324.45l20.17 14.58-12.87 24.45-27.89-17.15 20.59-21.88M1669.18 1286.66l-7.13 9.88-22.79-.82 3.02-24.43 8.24-1.1 18.66 16.47zM1625.53 1230.38l24.99.27 6.31 8.79-15.1 23.88-16.2-7.69v-25.25zM1630.47 1189.75l-7.96 4.94-.27 26.9 27.45.55 7.42-22.24-26.64-10.15zM1642.28 1147.74l-11.26 11.53.28 20.87 25.53 7.41 11.8-23.61-26.35-16.2zM1665.89 1113.15l-16.75 13.18.28 16.47 23.06 11.8 16.47-20.04-23.06-21.41zM1675.5 1106.28l21.41 17.85 20.32-14.83-18.67-25.8-21.69 12.08-1.37 10.7zM1705.69 1074.44l21.69 25.8 25.26-14-14.55-29.65-32.4 17.85zM1749.07 1053.02l35.69-15.37 9.06 35.96-29.92 8.24-14.83-28.83zM1797.39 1037.92l32.12-10.98 7.42 7.69 1.37 29.92-31.57 5.77-9.34-32.4zM1804.81 1081.85l37.06-4.39 1.1 35.69h-30.2l-7.96-31.3zM1840.04 1333.46l26.08 17.16-20.93 25.06-18.88-21.97 13.73-20.25zM1817.39 1361.61l-14.76 9.6 14.42 25.4 19.9-17.16-19.56-17.84zM1800.23 1358.86l-7.89 9.95-17.85 2.75-10.29-14.76 18.87-18.19 17.16 20.25zM1745.66 1346.85l12.36 9.27 3.43 11.66-16.82 7.55-12.35-17.5 13.38-10.98zM1724.04 1353.37l8.24 23.68-20.25 1.03-7.89-11.33 8.92-17.16 10.98 3.78zM1704.83 1348.91l-12.7-7.55-14.42 14.76-.34 9.95 20.59-.35 6.87-16.81zM1672.22 1325.91l14.76 9.96-14.41 18.87-18.19-14.07 17.84-14.76zM1638.59 1307.38l-1.03 17.16 11.67 8.92 15.79-11.32-5.49-14.41-20.94-.35zM1621.43 1263.46l13.39 10.29-.35 11.33-4.8 10.98-19.56-1.72-7.21-17.16 18.53-13.72zM1584.71 1238.06l12.01 26.77 19.91-8.92-.69-26.09-31.23 8.24zM1586.77 1191.39l24.37 1.37 2.4 27.45-25.05 5.15-11.33-20.24 9.61-13.73zM1595.01 1149.18l-14.07 14.75 9.26 17.85 28.83-1.03 1.37-21.62-25.39-9.95zM1773.9 1378.5l-.86 21.88 13.73 6.86 17.58-9.87-10.29-18.87h-20.16zM1755.88 1375.92l-17.59 8.58.43 9.01 22.74 10.3 4.71-20.59-10.29-7.3zM1711.27 1384.08l18.01-.43 3.44 12.44-10.3 18.44-17.16-13.72 6.01-16.73zM1679.09 1372.92l20.59-.86 5.15 9.01-13.3 18.02-15.44-15.44 3-10.73zM1653.36 1350.19l17.15 11.15-.42 12.44-16.73 7.29-13.3-12.44 13.3-18.44zM1630.62 1334.31l-16.73 10.3 17.16 19.73 15.44-20.16-15.87-9.87zM1601.02 1315.01l10.72 18.87 18.45-7.29v-19.3l-21.02.43-8.15 7.29zM1566.27 1287.98l24.03-16.73 7.29 6.87 1.29 22.73-6.44 6.44-10.72-1.72-15.45-17.59zM1573.57 1240.37l-27.03 12.87 15.01 25.31 24.46-13.3-12.44-24.88zM1567.99 1205.62l-27.46.43-3.86 15.01 10.3 15.88 27.45-9.01-6.43-22.31zM1542.68 1163.15l-8.15 20.59 6 11.59 29.17-.43 6.87-10.3-6.01-15.01-27.88-6.44zM1554.26 1117.25l26.6 14.59 3.86 7.29-12.87 18.87-33.03-12.44 15.44-28.31zM1740.44 1405.52l18.01 6.44-3 21.88-10.72 5.57-16.3-15.87 12.01-18.02zM1698.4 1406.81l18.01 14.59-20.16 16.73-13.72-18.45 15.87-12.87zM1772.61 1411.53l-12.44 24.02 13.3 11.58 19.73-8.57-3.86-17.16-16.73-9.87zM1812.93 1406.38l-16.3 8.15 6.01 26.17 26.17-10.72-15.88-23.6zM1670.94 1383.22l7.72 18.44-2.57 8.15-25.74-1.28 5.58-19.74 15.01-5.57zM1632.34 1375.07l15.87 9.86-6.44 20.17-21.02-4.72-3-9.87 14.59-15.44zM1605.74 1354.48l16.3 15.44-11.15 15.87-21.45-11.15 3-9.44 13.3-10.72zM1582.14 1320.59l10.3-.86 12.87 18.44-14.16 13.73-22.73-15.44 13.72-15.87zM1559.84 1292.7l16.3 21.45-18.02 19.31-21.45-19.74 23.17-21.02z" fill="#c4bdce" stroke="#c4bdce" transform="matrix(1 0 0 1 -1101.85 -740.686)"/>
  <path d="M1535.82 1263.96l-21.88 9.87-.43 15.01 16.73 11.58 22.31-16.3-16.73-20.16z" fill="#c4bdce" stroke="#c4bdce" transform="matrix(1 0 0 1 -1100.85 -739.686)"/>
  <path d="M1695.53 1265.58l-18.77 15.42 18.1 13.4 13.4-13.4-12.73-15.42zM1676.76 1241.45l-17.43 1.34-4.02 18.77 16.76 10.72 14.07-14.74-9.38-16.09zM1664.03 1195.87l-4.03 34.18 21.45 2.02 10.73-20.78-28.15-15.42zM1686.14 1159.67l-15.41 27.49 23.46 13.4 13.4-22.12-21.45-18.77zM1713.63 1129.51l-18.77 22.12 22.79 21.45 14.74-22.12-18.76-21.45zM1751.16 1103.37l-26.81 16.09 14.75 24.13 15.41.67 10.73-14.75-14.08-26.14zM1774.62 1137.56l20.11.67 8.71 24.13-12.73 13.4-12.74-2.68-13.4-21.45 10.05-14.07zM1808.81 1126.16h29.49l-.67 30.16-6.71 6.71-10.05 1.34-10.73-6.03-6.7-22.79 5.37-9.39zM1798.08 1186.49l10.73-12.74 17.71 3.45.86 26.16-20.59 8.58-8.71-25.45zM1812.79 1221.81l20.16-9.44 9.01 5.58-.43 29.6-23.59-.86-5.15-24.88zM1817.51 1260.42l4.29 22.73 22.31 6.01 3.43-31.32-30.03 2.58zM1817.51 1293.02l-8.58 6.01.86 15.01 21.45 11.58 12.87-27.02-26.6-5.58zM1758.31 1097.84l16.3 28.31 21.88-4.29 1.72-13.3-6.87-20.59-33.03 9.87zM1848.4 1166.9l-11.16 6.86.86 27.89 11.16 6.43 16.3-9.01 1.71-24.45-18.87-7.72zM1853.97 1219.24l-.43 25.73 6.87 8.58 18.87-6 6.87-23.6-15.88-9-16.3 4.29zM1857.47 1263.05l-3.85 29.37 22.52 4.4 14.82-23.34-7.41-9.61-26.08-.82zM1855.55 1302.86l-10.71 21.41 22.24 15.92 12.08-21.41-1.38-9.06-22.23-6.86zM1805.03 1320.7l-14.83 11.81 16.2 22.51 18.95-16.75-20.32-17.57zM1752.59 1320.15l-3.29 11.53-.55 10.44 12.63 6.86 17.02-15.1-11.26-12.9-14.55-.83zM1739.96 1316.31l-16.47 4.67-1.92 18.94 19.22-1.1 3.29-15.1-4.12-7.41M1723.01 1246.81l-18.1 13.41 10.73 16.75 18.76-1.34-1.34-21.45-10.05-7.37zM1743.79 1253.51l.67 18.1 24.13 2.68 5.36-13.4-8.71-13.41-21.45 6.03zM1748.48 1211.96l-19.44 12.73 1.34 13.41 10.06 6.7 21.45-8.04 1.34-6.03-14.75-18.77zM1718.99 1236.09l-17.43-18.1-15.42 18.77 13.41 18.1 19.44-18.77zM1721 1181.79l-18.77 23.46 19.44 14.08 20.11-17.43-20.78-20.11zM1750.49 1195.87l-19.44-19.44 14.75-19.44 10.05-2.01 12.07 20.78-17.43 20.11zM1779.98 1185.82l14.75 25.47-20.11 12.06-16.09-18.77 21.45-18.76zM1801.43 1224.02l-28.15 11.4 6.03 16.08h28.15l-6.03-27.48zM1781.99 1265.58l-6.03 15.42 24.13 11.39 10.73-8.71-4.03-21.45-24.8 3.35zM1777.97 1293.06l-7.37 15.42 14.75 16.75 15.41-10.72v-13.41l-22.79-8.04zM1769.93 1283.68l-8.04 23.46-14.08 3.35-8.04-25.47 30.16-1.34zM1717.65 1287.03l-12.07 16.08 14.08 8.72 15.42-5.36-1.35-18.77-16.08-.67M1508.54 1298.28l-25.74 15.01 5.15 17.16 19.3 7.72 19.74-22.3-18.45-17.59zM1490.95 1262.25l12.87 12.01-.86 15.44-22.73 15.87-19.73-25.31 30.45-18.01zM1499.1 1234.79l-2.14 19.31 10.72 12.44 29.6-17.16-11.58-20.17-26.6 5.58zM1492.67 1188.89l-5.15 22.31 12.44 13.3 26.6-8.15 3.86-13.73-7.29-8.58-30.46-5.15zM1496.53 1145.13l-8.15 29.61 36.46 4.71 8.58-19.3-36.89-15.02zM1509.83 1094.94l-12.44 33.46 30.46 10.73 18.01-25.74-36.03-18.45zM1534.28 1050.33l-17.16 34.32 28.74 12.87 17.59-27.03-29.17-20.16zM1573.75 1076.93l-16.73 28.31 29.16 13.73 18.02-18.45-30.45-23.59M1613.64 1109.96l-18.45 16.73.43 12.87 25.74 12.01 13.73-9.87.86-15.87-22.31-15.87zM1639.38 1070.92l-21.88 20.16v9.87l23.59 16.73 19.74-19.3-21.45-27.46M1623.51 1410.24l18.87 5.15.86 19.3-21.88 5.15-11.15-15.44 13.3-14.16zM1653.11 1419.68l-2.15 17.59 9.01 12.44 21.88-13.3-5.58-17.16-23.16.43zM1720.45 1430.4l-20.16 14.59 5.58 12.44 17.59 8.58 12.87-22.74-15.88-12.87zM1742.33 1447.99l-11.58 19.31 25.74 12.44 5.58-8.15 1.28-20.59-5.57-4.29-15.45 1.28zM1773.65 1455.29l18.44-5.58 8.16 10.29 1.28 20.17-29.6.85 1.72-25.73zM1804.11 1452.71l9.43 24.02 24.03-2.57 8.15-10.72-13.73-21.02-27.88 10.29zM1664.69 1456.14l-1.29 9.87 18.45 15.44 15.87-19.3-8.58-17.59-24.45 11.58zM1640.66 1443.27l12.45 9.87-.86 11.58-23.17 15.02-12.87-24.03 24.45-12.44zM1657.82 1471.59l-21.01 14.15 17.58 25.31 21.02-19.73-17.59-19.73zM1682.28 1498.18l-16.73 18.88 17.58 18.44 11.59-2.14 11.58-20.16-24.02-15.02zM1705.01 1467.3l-15.87 20.16 23.16 16.3 13.73-23.59-21.02-12.87zM1733.75 1482.74l-9 23.59 21.02 15.45 12.01-10.3.42-23.59-24.45-5.15zM1769.79 1489.17l-1.29 23.17 21.45 14.16 9.87-12.02-4.72-23.59-25.31-1.72zM1814.4 1482.31l-8.15 10.73 6.01 17.58 23.59 5.15 14.16-15.01-8.58-15.45-27.03-3zM1826.41 1402.52l12.01 23.6 26.6-16.31-17.59-22.3-21.02 15.01zM1841.86 1440.27l12.01 16.73 27.02-4.72.43-18.01-12.01-12.44-27.45 18.44zM1849.15 1481.88l6.43 11.16 30.89 3.43 5.15-21.45-9.87-13.3-24.88 3.43-7.72 16.73zM1857.24 1505.65l-8.58 14.07 5.83 15.79 28.49 4.8 11.32-21.27-4.46-14.08-32.6.69zM1897.05 1496.73l9.95 10.29 30.54.35-.69-34.66-28.14 2.06-11.66 21.96zM1893.27 1437.7l-2.4 16.13 11.32 13.73 28.49-7.9-2.06-26.76-10.98-5.49-24.37 10.29zM1876.11 1415.39l14.42 13.73 23.33-11.32.34-18.19-15.44-8.58-20.25 13.73-2.4 10.63zM1873.71 1358.77l-21.28 20.93 18.19 17.16 21.62-13.72-.34-12.7-18.19-11.67zM1875.42 1347.79l19.22 13.04 23-20.59-9.27-15.44-17.84-1.72-15.11 24.71zM1899.1 1277.09l-11.32 22.65 16.13 14.07 23.68-21.96-10.3-14.07-18.19-.69zM1894.64 1225.62l-6.52 20.93 8.93 16.82 18.87-2.41 12.7-20.93-16.48-15.79-17.5 1.38zM1878.86 1175.85l-4.47 25.4 21.97 13.38 18.19-30.54-22.31-14.07-13.38 5.83zM1846.94 1130.55l5.84 27.8 19.21 4.12 10.64-8.24 2.75-27.45-30.2-5.15-8.24 8.92zM1850.37 1076.33l3.44 32.6 36.03 6.52 2.06-40.83-41.53 1.71zM1851.06 1032.06l31.23-8.92 8.58 11.67-4.46 28.82-35.69-.34.34-31.23zM1902.88 1080.79l-3.78 31.23 30.89 11.33 13.04-32.26-7.55-8.92-32.6-1.38zM1895.67 1126.44l-4.46 31.91 28.48 12.7 15.11-33.97-39.13-10.64zM1926.9 1181.69l-11.32 28.48 19.56 16.82 23.34-29.17-31.58-16.13zM1936.85 1242.09l-13.04 22.65 12.36 19.56 13.72-1.03 18.54-21.96-19.91-19.91-11.67.69zM1946.12 1141.54l-14.07 28.48 30.54 16.82 18.19-31.92-34.66-13.38zM1955.04 1095.21l-11.32 27.8 33.97 17.15 16.48-26.08-4.12-15.44-35.01-3.43zM1937.54 1031.72l10.3 15.79-10.3 24.7-33.97-4.11-4.47-9.27 4.47-23.68 33.97-3.43zM1957.79 1048.53l-9.27 25.4 18.88 13.73 24.36-3.44 8.24-18.87-7.89-18.53-34.32 1.71zM1968.08 1203.65l-15.44 26.77 22.65 20.93 25.05-28.14-32.26-19.56zM1934.11 1297.34h13.38l16.48 22.31-24.03 20.93-20.25-20.25 14.42-22.99zM1924.84 1348.13l-21.27 17.5.34 14.76 16.13 10.64 23.68-17.85-6.18-21.27-12.7-3.78zM1926.22 1397.21l26.42-12.36 12.7 24.71-26.08 16.13-10.98-9.61-2.06-18.87zM1944.4 1349.5l17.51 25.74 30.88-20.24-19.56-28.15-28.83 22.65zM1955.13 1291.85l20.59 23.34 28.14-22.65-27.46-25.74-21.27 25.05zM2007.98 1232.14l-21.28 25.74 24.71 25.05 25.39-26.77-28.82-24.02zM1990.47 1163.16l-16.13 26.76 28.15 19.57 19.56-20.94-.35-13.38-31.23-12.01zM2005.57 1118.54l-14.75 21.62.34 9.96 35.35 15.1 15.78-19.91-1.03-14.07-35.69-12.7zM2012.78 1072.56l-9.61 18.53 4.81 15.79 31.91 7.2 13.04-17.84-5.49-19.57-34.66-4.11zM2009.35 1302.14l-24.02 20.25 18.53 29.86 29.51-22.31-24.02-27.8zM1969.88 1382.79l27.11-16.47 18.54 33.98-35.35 14.41-10.3-31.92zM1937.97 1434.96l1.71 24.36 7.55 6.52 33.98-9.61-6.18-30.54-37.06 9.27zM1945.86 1478.2l-.34 32.94h35l7.21-7.21-6.18-33.28-35.69 7.55zM1981.21 1425.35l9.61 31.23 37.4-8.93-10.63-31.23-36.38 8.93zM1990.13 1472.71l7.55 34.31 32.26-2.74 8.24-7.9-13.05-30.88-35 7.21zM2033.37 1463.78l13.04 28.14 27.8-.68 10.3-9.27-14.76-30.88-36.38 12.69zM2026.16 1408.53l11.67 31.57 31.23-6.52 2.75-15.1-14.76-24.71-30.89 14.76zM2036.8 1345.73l-27.45 15.79 14.76 32.25 30.54-10.98 2.4-10.98-20.25-26.08M1853.28 1543.54l-15.87 17.59 2.58 11.59 29.16 15.01 15.88-32.6-31.75-11.59zM1809.53 1519.95l-9.87 9.87 1.29 18.44 27.02 10.73 12.87-16.3-1.71-15.88-29.6-6.86zM1764.49 1523.81l25.73 10.73v13.29l-12.01 15.45-24.45-12.87v-16.3l10.73-10.3zM1717.3 1516.09l-12.01 20.16 20.59 17.59 18.44-12.01-4.29-15.02-22.73-10.72zM1688.56 1545.26l12.44-.43 19.3 19.73-3 11.59-22.74 11.58-17.59-22.31 11.59-20.16zM1727.16 1573.14l2.15 10.3 23.16 18.02 18.45-17.59-.43-9.44-24.88-17.16-18.45 15.87M1783.36 1571v12.44l26.6 18.87 18.44-26.59-28.74-18.45-16.3 13.73zM1836.12 1585.15l-17.15 23.6 30.02 21.45 18.88-31.32-31.75-13.73zM1720.73 1588.59l-23.16 15.44 18.44 31.32 28.31-21.88-23.59-24.88M1779.93 1592.88l-22.31 17.59 26.17 31.74 20.16-26.6-24.02-22.73M1813.82 1622.48l-21.88 24.45 20.59 22.73 11.15.86 17.59-29.6-27.45-18.44zM1854.57 1643.5l-19.73 31.74 18.87 18.02 14.16-2.15 12.87-30.03-26.17-17.58zM1879.02 1602.31l-18.01 30.89 24.87 16.3 11.59-2.57 11.58-31.32-30.03-13.3M1897.04 1558.56l-15.01 31.31 26.16 12.44 13.73-2.14 6-35.18-30.88-6.43M1930.93 1616.04l-12.01 3.86-8.58 28.32 18.44 15.87 19.74-6.44 6-21.02-4.29-12.44-19.3-8.15zM1932.22 1601.46l27.02 15.01 12.44-9.01-.86-29.17-27.88-11.15-10.72 34.32zM1902.19 1516.09l34.31 3-4.28 37.75-35.18-9.01 5.15-31.74zM1947.23 1519.52l33.46 2.58 1.29 34.31-9.87 5.15-26.6-7.29 1.72-34.75zM1999.13 1516.52l-7.72 6.43 1.72 32.18 25.31 6.43 11.15-9.44-2.14-30.88-28.32-4.72zM2039.03 1514.8l3.43 27.89 12.87 10.72 15.44-.86 15.45-13.29-12.01-30.89-27.89-.43-7.29 6.86zM1982.4 1573.14l10.3-6.43 21.88 4.72 7.29 9.44-.43 26.59-15.01 13.3-23.17-11.15-.86-36.47zM1965.67 1625.48l11.59-5.58 20.59 8.58 3.86 34.75-18.88 13.3-22.73-16.3 5.57-34.75zM1892.79 1664.77l11.8-2.68 21.45 15.01-6.98 27.35-9.11 9.11h-13.94l-18.23-16.08 15.01-32.71zM1937.3 1678.17l15.01-5.36 19.84 13.94-1.61 31.1-21.98 8.58-20.38-12.87 9.12-35.39zM1576.42 1390.22l.53 23.6 27.35 3.22 9.12-9.66-9.12-13.94-15.01-8.04-12.87 4.82zM1546.93 1380.04l-11.26 17.69 5.9 18.23 26.81-3.75 2.68-23.06-24.13-9.11zM1515.29 1364.49l23.06 9.11-10.19 29.49-20.91-1.07-11.26-11.26 19.3-26.27zM1486.87 1338.75l19.3 17.16-11.26 25.2-18.23-.54-12.87-18.23 23.06-23.59zM1474 1394.51l14.48 1.08 10.19 13.94-12.34 24.66-13.4 1.08-18.77-18.77 19.84-21.99zM1507.25 1414.89l-13.94 19.84 11.79 15.01 17.16-1.07 11.26-24.13-7.5-10.72-18.77 1.07zM1540.49 1424.54l-6.97 24.67 12.87 10.72 21.45-8.04-1.07-25.2-26.28-2.15zM1578.56 1423.47l-2.14 30.56 7.51 5.37 25.73-10.19-9.11-23.6-21.99-2.14zM1585 1467.98l24.13-6.97 11.8 19.84-19.84 16.62-13.41-9.12-2.68-20.37zM1626.29 1489.96l-22.52 14.48 8.04 24.67 13.41 3.21 17.69-15.01-16.62-27.35M1546.93 1468.51l24.13-5.36 8.58 26.81-14.48 12.33-17.7-6.97-.53-26.81zM1571.06 1513.55l12.33-9.11 12.87 5.9 8.04 21.98-9.65 11.8-22.52-2.68-1.07-27.89zM1601.62 1555.38l9.12-11.8 16.62-2.68 13.94 24.67-7.5 13.4-25.21 1.08-6.97-24.67zM1637.55 1537.15l18.23-15.02 20.91 22.52-8.04 14.48-16.09 4.29-15.01-26.27zM1655.78 1573.61l15.55-1.07 15.55 20.37-3.22 10.19-26.81 9.66-12.87-27.35 11.8-11.8zM1687.95 1614.36l-27.88 10.73 16.09 35.93 31.63-19.85-19.84-26.81zM1726.03 1645.46l23.05-18.76 23.06 20.37-26.81 27.35-19.3-28.96zM1713.69 1652.97l-30.56 19.84 18.23 28.42 29.49-21.98-17.16-26.28zM1604.84 1595.06l30.03-5.36 14.48 27.35-34.32 15.01-10.19-37zM1562.48 1558.6l7.51-8.05 20.91 4.83 8.58 23.59-5.36 11.26-30.57-.53-1.07-31.1zM1561.94 1603.1l32.71 2.15 8.58 27.88-35.39 9.65-5.9-39.68zM1618.78 1644.93l30.57-11.26 14.47 27.35-33.24 18.76-11.8-34.85zM1512.61 1463.15l16.09-3.75 10.18 9.65-1.07 26.27-11.79 8.58-20.92-13.94 7.51-26.81zM1477.22 1449.21l-16.62 22.52 21.45 18.77 11.26-.54 9.65-30.56-15.55-12.34-10.19 2.15zM1439.15 1424.01l-20.38 25.2 28.42 21.98 18.77-28.95-26.81-18.23zM1445.58 1362.88l-26.27 21.98 19.84 24.67 9.65-1.61 16.62-21.45-19.84-23.59zM1434.86 1327.49l10.19 21.44 16.62 4.83 14.48-17.16-2.69-19.3-16.08-4.83-22.52 15.02zM1446.65 1271.18l11.8 27.89-29.49 19.3-18.23-33.25 35.92-13.94zM1448.26 1231.5v24.67l12.34 11.26 23.59-12.87 2.14-23.06-10.18-5.36-27.89 5.36zM1480.44 1209.52l-4.83 8.58-30.03 3.21-4.82-35.39 38.6-5.36 1.08 28.96zM1398.39 1240.62l12.34 33.24 28.42-10.18-1.08-29.5-39.68 6.44zM1491.66 1503.55l-13.94 26.81 28.95 13.95 10.19-7.51 3.22-23.6-28.42-9.65zM1453.59 1484.79l26.81 14.47-9.65 33.25-34.32-15.01 17.16-32.71zM1412.84 1460.12l27.88 20.91-17.7 28.96-30.56-15.55-.54-10.19 20.92-24.13zM1375.84 1430.09l27.88 21.99-21.45 26.27-27.88-17.16-1.61-14.48 23.06-16.62zM1408.55 1392.02l-24.67 19.84 24.67 31.64 21.45-24.67-21.45-26.81zM1352.78 1371.11l-.54 11.79 21.99 20.38 27.88-20.38-18.23-26.27-31.1 14.48zM1389.24 1349.66l20.91 25.2 27.89-20.38-15.55-25.2-33.25 20.38zM1399.97 1287.99l-35.39 13.94 19.84 32.18 31.63-16.09-16.08-30.03M1357.61 1312.66l-27.35 8.04-4.29 10.73 17.69 24.66 8.05 3.22 23.05-14.48-17.15-32.17zM1314.71 1342.15l23.06 24.67v11.79l-22.53 15.55-27.34-23.05 2.68-17.7 24.13-11.26zM1321.14 1403.28l-2.68 15.01 26.28 20.38 23.05-17.69-.53-9.12-22.52-21.98-23.6 13.4zM1310.42 1428.48l26.81 19.84-.54 13.41-17.69 15.55-31.64-15.02.54-16.62 22.52-17.16zM1326.5 1487.47l-.53 18.23 33.24 16.62 18.77-21.45-1.07-12.33-27.88-16.62-22.53 15.55zM1372.08 1526.08l-3.21 11.79 32.17 13.94 19.3-20.91-3.75-12.87-26.27-11.26-18.24 19.31zM1432.14 1528.22l32.71 15.01-10.19 29.5-34.85-6.44-5.37-12.33 17.7-25.74zM1477.18 1545.38l31.64 9.65-.54 16.09-6.43 15.01-34.32-2.14-3.22-11.26 12.87-27.35zM1520.08 1553.42l-8.04 35.93 40.75 4.82-1.07-30.56-31.64-10.19M1543.67 1504.63l-16.62 8.57-.53 30.03 24.66 4.83 11.26-8.04-3.75-25.74-15.02-9.65zM1516.33 1600.61l33.78 5.9 2.68 29.49-32.71 7.51-9.65-8.58 5.9-34.32zM1465.92 1595.78l41.29 5.9-6.43 31.1-35.93 1.61-6.97-10.19 8.04-28.42zM1421.95 1578.62l-18.77 24.13 9.66 15.55 32.17 1.08 11.26-21.99-4.29-12.33-30.03-6.44zM1371.01 1551.28l27.35 10.72 7.51 11.26-10.19 23.06-35.93-4.29-4.83-17.7 16.09-23.05zM1325.97 1518.03l-18.23 10.73-.54 25.2 35.93 11.8 17.16-20.38-5.37-15.02-28.95-12.33zM1283.07 1471.38l-16.62 10.19 1.07 28.42 28.96 12.33 18.76-13.94-2.68-19.3-29.49-17.7zM1263.23 1521.25l-16.09 11.26-2.68 26.81 34.32 11.26 16.62-11.8-1.6-25.2-30.57-12.33zM1206.39 1473.53l16.09-6.44 25.2 14.48 1.61 25.74-11.8 10.72-33.24-12.87 2.14-31.63zM1277.71 1377.54l-20.38 10.19-2.68 17.16 24.67 24.13 23.05-14.48-2.14-16.62-22.52-20.38zM1231.59 1428.48l-6.97 23.6 28.96 19.84 18.23-10.73 4.83-19.84-29.5-21.98-15.55 9.11M1201.03 1519.1l-13.41 6.44-6.97 35.93 40.75 10.18 9.12-6.97-.53-31.63-28.96-13.95zM1173.14 1580.77l7.51-6.97 37.54 12.33 3.75 34.86-5.9 5.89-45.58-3.75 2.68-42.36zM1233.74 1584.52l11.26-8.04 32.71 9.12 4.82 23.05-9.11 15.55-39.14-7.5-.54-32.18M1224.62 1641.36l9.12-8.58 39.14 5.36 9.65 25.74-9.65 11.8-43.97 2.15-4.29-36.47M1293.8 1579.7l12.33-12.34 31.1 9.66 8.58 17.15-12.87 17.16-35.39-2.68-3.75-28.95M1359.75 1604.9l-14.48 16.09 9.65 24.66h34.32l10.19-16.08-8.58-20.38-31.1-4.29zM1286.29 1634.39l12.33-13.94 32.17 4.29 10.73 23.59-9.65 13.41-38.07 2.14-7.51-29.49zM1226.77 1688.01l45.04 3.22 8.58 25.74-3.22 12.33-43.97 10.19-6.43-51.48M1283.61 1689.62l10.19-13.4 36.46 3.75 11.26 21.98-8.04 13.41-39.15 5.36-10.72-31.1zM1343.66 1674.07l10.19-13.94 38.61-.54 6.97 17.16-10.19 17.16-35.92 5.9-9.66-25.74zM1411.23 1631.17l-10.19 20.38 12.33 20.38 31.1-3.76 9.65-22.52-8.04-12.87-34.85-1.61zM1358.68 1714.29l-11.26 13.4 15.55 25.74 33.78-8.58 8.04-14.48-12.87-20.91-33.24 4.83zM1293.8 1737.35l38.6-5.9 15.55 24.66-2.14 12.34-37.54 10.72-14.47-41.82zM1406.4 1698.2l8.04-15.01 30.03-6.44 12.87 16.63-4.82 21.44-31.64 6.44-14.48-23.06zM1460.02 1669.78l9.12 17.7 33.24-8.05 2.69-22.52-7.51-11.79-26.28 2.14-9.65 6.43-1.61 16.09zM1519.01 1653.16l-4.83 30.56 12.87 8.58 33.25-10.18-3.22-28.43-38.07-.53zM1470.75 1699.27l-6.44 17.7 17.16 21.98 30.57-12.86 3.21-24.14-8.04-7.5-36.46 4.82zM1454.12 1728.77l-32.17 5.36-10.19 16.09 18.24 28.95 39.14-14.48.53-20.91-15.55-15.01zM1362.43 1769.52l38.07-12.34 19.84 27.89-5.9 12.87-36.46 15.01-15.55-30.03v-13.4zM1418.73 1808.13l-41.82 18.23 21.45 41.29 38.61-18.77.53-11.8-18.77-28.95zM1436.97 1787.75l-5.37 14.48 12.34 23.06 14.47 5.89 27.35-18.23 1.07-15.01-13.94-19.31-35.92 9.12zM1488.44 1747.53l-7.5 17.7 18.76 23.06 30.03-14.48 3.76-24.13-15.02-10.73-30.03 8.58zM1528.66 1706.78l-3.22 18.23 16.63 18.23 31.63-15.01 1.07-24.67-14.47-6.97-31.64 10.19M1568.34 1654.23l1.61 27.35 10.19 10.72 28.95-13.4-3.75-33.25-37 8.58zM1586.57 1699.81l.54 24.67 12.33 12.87 30.57-16.63-6.98-31.63-36.46 10.72zM1636.98 1689.09l8.04 28.42 13.4 6.97 27.35-21.99-15.55-28.95-33.24 15.55zM1580.67 1738.95l-31.63 16.09-1.08 19.84 18.77 15.55 28.96-19.3-1.08-19.31-13.94-12.87zM1536.17 1784l-32.18 19.3-1.07 11.8 23.06 25.2 29.49-20.91 2.15-19.84-21.45-15.55zM1492.2 1825.82l-35.39 17.16-2.69 8.58 25.21 35.93 35.39-23.6.53-15.55-23.05-22.52zM1520.08 1873.01l-34.85 21.98 28.41 42.37 33.79-27.89 2.14-12.33-29.49-24.13zM1532.41 1861.21l.54-10.72 27.35-16.09 7.5-1.61 18.77 16.09.54 11.8-27.35 24.66-27.35-24.13M1566.73 1896.6l-1.07 11.26 31.1 24.67 29.49-27.88-2.68-13.95-26.27-17.15-30.57 23.05M1605.34 1858l-1.07-12.34 27.34-21.98 26.28 13.94 1.61 15.01-24.13 24.13-30.03-18.76zM1572.63 1800.62l.54 16.09 21.98 18.76 28.42-18.76-2.15-23.6-20.91-11.26-27.88 18.77zM1609.63 1748.07l-.54 19.84 21.99 12.33 23.05-14.47 1.61-16.09-9.65-14.48-10.72-2.14-25.74 15.01zM1693.82 1713.22l-30.57 19.3 5.9 21.45 17.69 8.58 26.81-18.23-19.83-31.1zM1637.51 1792.58l1.08 16.08 23.59 15.55 26.27-23.05-3.75-18.24-19.3-14.47-27.89 24.13zM1673.44 1834.94l22.52-24.67 21.98 3.22 12.34 15.55-24.67 31.1-29.49-12.33-2.68-12.87zM1670.76 1860.68l-26.81 25.2v12.33l30.56 19.84 25.74-30.56-3.75-13.94-25.74-12.87zM1691.67 1922.34l-3.75 11.8 37.53 20.37 23.06-38.6-34.32-21.45-22.52 27.88zM1738.32 1838.15l-21.45 27.35 2.15 16.09 29.49 14.48 21.99-31.64-4.83-15.55-27.35-10.73zM1720.63 1749.14h10.72l7.51 6.97 12.33 15.55-22.52 26.28-23.06-3.22-8.58-20.91 23.6-24.67zM1712.58 1710l13.41 24.66 12.87 2.69 24.66-24.67-20.37-24.67-30.57 21.99zM1756.55 1781.32l21.99 1.6 11.8 20.92-18.77 28.42-8.58 1.61-19.84-7.51-7.51-19.31 20.91-25.73zM1755.48 1678.57l21.99-22.52 9.65 2.14 17.69 18.77-15.55 25.2-15.55 3.76-18.23-27.35zM1795.7 1712.35l18.77-25.2 10.18-2.14 21.99 17.69-16.62 30.03-16.63 1.61-17.69-21.99zM1771.57 1719.86l15.01 2.14 14.48 16.63-16.62 31.1-20.38-1.08-14.48-20.37 21.99-28.42zM1810.71 1749.35l16.09-1.07 15.01 16.62-13.94 30.03-22.52 1.61-15.01-18.23 20.37-28.96zM1799.99 1809.41l27.34 3.75 8.05 12.87-17.16 34.85-31.1-6.97-9.12-13.94 21.99-30.56zM1783.36 1867.32l28.96 9.11 9.12 10.19-18.24 37-39.68-15.55 19.84-40.75zM1844.49 1835.15l31.1.53 9.12 11.26-12.87 37-41.82-12.33 14.47-36.46zM1837.52 1806.19l11.26 13.41 27.35.53 14.48-31.63-12.33-17.7-24.67 1.07-16.09 34.32zM1854.68 1706.99l15.55.54 18.23 14.47-10.72 33.79-26.28-.54-12.86-16.62 16.08-31.64zM1904.01 1727.37l-16.08 29.49 10.72 16.62 32.17.54 5.9-34.86-12.87-11.26-19.84-.53zM1904.01 1790.1l24.67-2.68 11.8 10.73-9.66 39.68-32.17-1.07-9.11-12.87 14.47-33.79zM1897.04 1851.23l-13.4 38.08 6.43 5.89 39.15 5.9 9.11-39.68-6.43-10.72-34.86.53zM1952.27 1799.22l-9.11 39.14 9.11 11.26 39.15-1.6 6.43-40.76-9.65-8.58-35.93.54zM1947.98 1740.77l21.99-6.97 13.94 12.87 1.07 33.25-11.26 8.04-25.74-3.75-5.89-9.12 5.89-34.32zM2002.14 1747.74l-6.97 33.78 11.26 13.41 33.25-8.58v-38.07l-10.73-9.12-26.81 8.58zM1985.52 1687.69l21.98-8.58 13.41 8.04 2.68 34.32-24.67 11.8-15.01-10.19 1.61-35.39zM2011.79 1803.51l-8.58 46.11 48.8 1.61-1.07-41.29-6.44-8.57-32.71 2.14zM2053.08 1748.82l26.81-13.41 13.95 5.36 7.5 40.22-34.85 13.94-12.33-10.19-1.08-35.92zM2037 1689.83l19.84-12.33 10.18 1.61 6.97 7.5 5.37 30.57-3.22 9.11-21.98 8.05-16.09-7.51-1.07-37zM2027.88 1621.19l-16.09 10.73 1.61 31.1 18.77 12.33 21.45-14.47-4.29-32.18-21.45-7.51zM2062.2 1628.17l4.29 31.1 14.48 10.72 26.81-16.62-9.66-35.39-11.79-4.29-24.13 14.48zM2031.63 1574.01l10.73-9.65 21.98 1.6 9.65 34.32-17.15 16.09-20.38-8.58-4.83-33.78M2078.28 1565.43l17.16-12.87 18.77 1.07 13.94 33.25-16.62 13.4-11.26 4.29-11.8-7.5-10.19-31.64zM2110.99 1617.98l22.53-16.09 13.94.54 17.16 35.92-32.71 18.77-20.92-39.14zM2087.4 1681.79l24.13-13.41 12.87 2.15 15.01 40.75-37 16.09-12.33-8.58-2.68-37zM2140.49 1670.53l28.42-18.77 11.26-1.07 16.62 40.75-36.46 20.91-11.8-4.29-8.04-37.53zM2018.77 1291.96l25.73-20.92 23.6 19.31-.54 15.55-23.06 13.94-25.73-27.88zM2046.65 1337l25.2-19.31 24.67 18.77.53 14.48-27.88 16.62-22.52-30.56zM2071.85 1378.29l-3.75 12.33 13.94 20.38 12.87 5.36 16.62-4.83 5.9-15.55-19.84-23.06-25.74 5.37zM2079.36 1443.17l8.58-11.26 23.05-3.22 20.38 28.42-13.94 17.16h-23.06l-15.01-31.1zM2084.72 1501.08l10.19-11.26 25.2 2.15 15.55 28.95-18.77 15.02-19.3-.54-12.87-34.32zM2034.32 1191.68l-20.38 25.2 28.42 27.89 21.45-19.31v-16.08l-29.49-17.7zM2073.99 1234.58l-20.91 14.48-.53 13.94 23.05 20.91 25.21-14.48 3.21-17.15-30.03-17.7zM2107.78 1279.62l-25.74 15.02 1.07 16.62 23.59 21.99 25.21-12.87.53-20.38-24.66-20.38zM2132.44 1337.53l-20.37 10.19-2.68 15.55 19.3 25.21 21.45-4.83 9.11-19.3-26.81-26.82zM2144.24 1398.13l-14.48 7.5-6.43 15.55 18.23 26.82 18.23 1.6 15.01-23.05-19.84-27.89-10.72-.53zM2140.49 1463.01l22.52.54 21.45 31.1-21.45 19.84-18.23-1.08-16.63-29.49 12.34-20.91zM2142.63 1532.72l18.23 1.07 18.23 32.17-24.66 18.24-11.8-.54-17.16-32.17 17.16-18.77zM2187.67 1576.69l-24.13 20.38 11.26 36.46 13.41 5.36 30.57-24.13-18.77-34.32-12.34-3.75zM2236.47 1549.88h12.87l24.13 34.85-33.25 26.81-10.72 1.08-19.3-37.54 26.27-25.2zM2189.82 1505.37l17.16.54 21.45 28.95-23.6 25.74-15.55-2.68-19.84-31.64 20.38-20.91zM2190.36 1432.44l-20.38 21.45 21.45 32.18 16.08 1.07 19.84-24.67-21.44-28.95-15.55-1.08zM2161.4 1391.16l23.59 26.81 15.55-.54 14.48-28.95-21.45-22.53-18.77-1.6-13.4 26.81zM2216.63 1498.4l19.84 29.49 15.55 2.15 26.81-29.49-28.42-30.03-11.79 1.07-21.99 26.81zM2227.89 1395.98l-15.01 26.28 21.98 28.42 16.09 2.68 19.3-29.49-24.13-27.35-18.23-.54zM2208.05 1326.81l16.62-4.83 31.64 24.13-15.55 27.89-13.94 6.43-28.96-26.81 10.19-26.81zM2146.39 1309.12l-4.83 17.69 21.98 23.06h18.77l13.94-26.81-27.88-23.6-21.98 9.66zM2116.36 1272.12l1.07-18.77 15.55-11.26 33.78 18.23-5.36 23.59-19.3 10.19-25.74-21.98zM2053.08 1153.08l-15.55 15.54 2.15 15.02 27.34 15.01 20.38-13.4-1.61-21.99-32.71-10.18zM2098.66 1192.76l-21.98 15.01 2.68 18.77 29.49 17.16 16.62-11.8.54-23.06-27.35-16.08zM2067.56 1105.35l-17.16 16.09 3.76 17.16 35.39 11.79 15.01-12.87-4.83-27.88-32.17-4.29zM2113.68 1146.1l-12.87 12.87.53 21.99 33.25 16.09 13.94-11.8.54-28.96-35.39-10.19zM2158.18 1196.51l-15.01 10.72-1.07 25.74 29.49 17.7 16.62-9.65 3.22-28.42-33.25-16.09zM2181.78 1262.46l12.86-6.43 33.25 18.77-10.19 31.1-15.55 4.29-27.88-21.99 7.51-25.74zM2266.5 1352.55l11.26-3.22 33.78 26.28-27.35 36.46-34.85-28.42 17.16-31.1zM2239.69 1278.01l13.94-4.29 34.85 23.6-21.98 41.29-35.39-26.81 8.58-33.79zM2205.37 1211.52l17.69-2.68 33.25 17.16-17.16 37.54-38.61-20.92 4.83-31.1zM2164.62 1157.36l13.94-10.18 33.78 11.26-4.29 35.39-11.8 7.5-31.1-17.69-.53-26.28zM2226.82 1163.26l11.26-6.43 40.22 12.87-15.02 41.82-41.29-17.16 4.83-31.1zM2179.09 1102.67l8.58-7.51 39.68 8.05.54 28.42-11.26 15.55-35.93-12.34-1.61-32.17zM2125.47 1096.24l-10.19 10.72.54 25.74 35.93 13.94 13.94-8.58v-34.32l-40.22-7.5M2129.76 1084.44l37 8.58 8.58-11.8-3.22-34.32-39.68-1.07-6.97 5.9 4.29 32.71zM2114.21 1084.97l-11.26 13.95-34.85-8.05-3.76-17.69 8.05-15.55h34.85l6.97 27.34zM2185.46 1046.3l9.65-5.9 42.36 1.61-2.68 45.58-45.04-5.37-4.29-35.92M2124.33 997.5l6.44-8.58 43.43-2.145 5.36 34.315-8.04 11.8-37.53-2.68-9.66-32.71zM2120.58 1032.89l-9.12 11.8-38.07-2.68-8.04-24.67 8.04-15.01 36.47-2.15 10.72 32.71zM2068.03 949.24l-8.58 8.579 10.19 30.565 38.07 2.145 10.19-13.406-12.87-34.318-37 6.435zM1995.1 909.023l40.22-15.55-17.7-42.898-38.07 16.623-3.21 11.261 18.76 30.564zM1953.28 1004.47l37-8.579L2001 1016.8l-8.04 18.77-35.93 1.61-9.11-14.48 5.36-18.23zM1945.77 950.848l-4.29 20.913 12.34 18.768 33.78-5.899 7.5-15.014-14.47-27.347-34.86 8.579zM1927.54 903.661l-4.29 16.087 17.16 19.304 34.85-10.725 4.83-13.405-16.62-26.811-35.93 15.55zM1904.48 854.329l-2.68 14.478 22.52 25.738 34.86-17.159 4.29-13.941-24.67-26.811-34.32 17.695zM1905.02 783.548l-32.71 26.275v10.188l26.27 24.666 34.32-20.913-27.88-40.216zM1894.83 986.775l33.25-5.898 12.87 15.55v8.043l-5.37 17.16-33.78 3.22-7.5-9.12.53-28.955zM1879.82 946.559l1.6 19.304 11.27 10.724 35.39-8.043 4.29-18.768-17.16-19.304-35.39 16.087zM1860.51 894.545l-2.14 20.913 18.76 17.695 31.64-16.086 2.15-17.696-19.31-19.304-31.1 14.478zM1862.12 828.59l-32.71 24.666 1.61 17.159 20.91 16.087 33.25-20.913 2.68-11.26-25.74-25.739zM1828.34 783.548l29.49 25.202-1.07 9.652-33.78 25.739-25.2-20.913V808.75l30.56-25.202zM1784.37 741.186l-30.03 30.029.54 12.333 30.56 21.449 35.39-35.391-36.46-28.42zM1839.6 1016.8l-1.07-29.489 26.27-12.869 16.62 11.797 1.61 28.421-31.63 8.58-11.8-6.44zM1819.76 944.414l-1.07 17.159 16.62 15.014 28.96-13.942 3.21-20.912-18.76-15.551-28.96 18.232zM1792.95 900.98l1.61 19.304 18.23 11.26 30.56-13.941.54-19.84-20.38-18.232-30.56 21.449zM1787.05 836.634l-25.74 21.985 1.07 15.55 23.6 18.768 28.42-23.058-1.07-17.695-26.28-15.55zM1748.98 794.808l-26.28 25.739 1.61 16.623 29.5 15.014 27.34-26.811-1.07-12.869-31.1-17.696zM1704.47 754.056l-25.74 41.289 34.32 21.448 27.35-30.028-2.68-12.333-33.25-20.376zM1779.54 996.427l12.34 29.493 33.24-9.65 1.07-26.278-13.94-10.188-32.71 16.623zM1787.05 932.617l-26.81 19.304 13.94 33.245 34.32-17.695-1.61-22.521-19.84-12.333zM1758.1 889.719l-27.35 22.522 16.62 31.637 34.32-16.087-1.07-25.202-22.52-12.87zM1722.7 850.039l25.21 15.55 3.21 16.623-26.81 20.913-19.84-4.826-11.79-18.768 30.02-29.492zM1674.98 815.721l-23.59 27.347 11.26 20.377 24.66 5.898 25.21-28.42-5.9-12.333-31.64-12.869M1628.33 782.475l38.07 17.159-20.91 36.463-35.93-9.115-4.29-10.725 23.06-33.782zM1573.63 754.592l44.51 18.231-21.45 39.681-40.21-11.797 17.15-46.115zM1759.89 992.997l10.72 4.692 6.71 28.821-31.51 12.07-16.08-26.14 30.16-19.443zM1704.93 969.538l11.39 28.151 10.73 2.681 27.48-19.438-7.38-22.789-12.73-8.043-29.49 19.438zM1676.78 936.694l20.1-24.13 18.1 5.363 10.06 21.448-23.46 20.109-13.41-.671-11.39-22.119zM1656.67 875.699l-20.11 25.471 8.04 21.448 20.78 6.033 20.78-22.119-4.69-20.779-24.8-10.054zM1611.09 845.537l-18.77 28.822 8.71 17.427 24.13 7.373 22.79-30.833-8.71-16.086-28.15-6.703zM1562.16 818.726l30.16 9.384 8.71 11.394-17.42 30.163h-28.82l-10.73-12.065 18.1-38.876zM1503.84 800.628l41.56 6.703-7.37 39.546-37.54 2.681-10.72-10.054 14.07-38.876zM1444.19 783.872l48.93 6.032-12.06 46.249-38.21 2.681-6.03-10.724 7.37-44.238zM1383.19 844.196l-2.01 42.228 8.72 7.373 34.85-2.681 6.7-40.887-5.36-6.703-42.9.67zM1443.52 852.91l-8.71 35.524 10.72 10.055 31.5.67 12.74-37.536-11.4-10.724-34.85 2.011zM1499.15 864.975l-11.39 33.514 12.06 14.075 25.47-1.34 16.09-30.833-8.71-11.395-33.52-4.021zM1551.43 886.424h28.83l10.05 12.735-16.76 32.173-24.13-1.341-11.39-12.735 13.4-30.832zM1599.02 911.224l-17.42 26.811 14.74 19.438 19.44.67 16.76-26.141-8.05-20.778h-25.47zM1642.59 937.364l18.1 5.363 13.4 20.778-22.78 24.13-9.39.67-18.77-20.778 19.44-30.163zM1678.79 973.559l14.07 5.363 13.41 23.458-28.15 20.78-18.77-25.471 19.44-24.13zM1709.62 1013.78l11.39 3.35 12.74 28.82-28.82 14.08-19.44-26.82 24.13-19.43zM1671.41 1038.58l-24.13 24.8 23.46 19.43 21.45-10.05 2.01-10.05-22.79-24.13M1615.78 1029.19l21.45 21.45 29.49-18.77-17.43-26.14-12.06-4.69-21.45 28.15zM1597.01 973.559l17.43.671 13.41 22.789-18.1 23.461h-12.07l-17.42-16.76 2.01-10.723 14.74-19.438zM1554.12 948.089l17.42-1.341 14.75 16.757-15.42 32.844h-12.06l-20.78-16.757 16.09-31.503zM1501.83 927.981l-12.06 30.162 19.44 17.427 16.75-2.011 13.41-30.832-12.07-17.427-25.47 2.681zM1446.87 915.245l30.16-6.032 15.42 14.076-9.38 34.184-24.8 4.021-14.75-11.394 3.35-34.855zM1391.24 906.532l33.51-2.011 12.07 8.043-4.7 29.492-26.81 11.395-13.4-8.043-.67-38.876zM1334.27 907.202l35.52-8.043 10.05 8.713-1.34 36.866-21.45 10.724-14.74-2.011-8.04-46.249zM1275.28 913.905l40.89-10.725 10.72 46.92-38.2 12.735-13.41-48.93zM1606.4 1039.92l-22.12 24.8 22.12 22.12 23.46-24.8-23.46-22.12zM1556.8 1012.44l12.06-1.34 24.13 19.43-20.78 25.47-27.48-13.4 12.07-30.16M1509.88 988.976l22.79 2.01 14.74 14.744-16.76 36.2-30.16-18.1 9.39-34.854zM1483.07 974.23l16.75 13.405-10.05 32.845-12.74 6.03-20.11-14.75 2.69-32.168 23.46-5.362zM1408 970.878l28.15-8.043 10.72 11.395-2.01 29.49-17.43 13.41-18.77-9.39-.66-36.862zM1353.7 969.538l30.17-10.725 7.37 8.714 5.36 37.533-24.13 10.06-19.44-7.38.67-38.202zM1294.05 975.57l30.83-13.405 14.75 8.713 2.01 34.852-22.79 15.42-15.42-8.04-9.38-37.54zM1237.08 989.646l38.2-14.746 14.75 39.55-26.81 18.76-14.08-4.02-12.06-39.544M1477.7 1041.93l16.09-6.71 24.8 16.76-15.42 31.5-29.49-12.06 4.02-29.49zM1428.1 1029.19l14.08-7.37 21.45 12.73-.67 30.17-10.06 9.38-24.13-13.41-.67-31.5zM1374.48 1027.18l22.12-7.37 17.43 8.71.67 32.17-15.42 10.06-20.78-7.37-4.02-36.2M1347.67 1020.48l14.08 6.03 4.02 36.87-16.09 12.06-20.78-8.04-8.04-32.18 26.81-14.74zM1268.58 1045.28l23.46-16.09 13.4 6.03 13.41 33.52-18.77 15.41h-21.45l-10.05-38.87M1239.76 1045.95l12.06 2.68 14.75 34.85-22.12 21.45-16.76-3.35-17.43-36.19 29.5-19.44zM1191.5 1069.41l6.03 1.34 19.44 35.52-21.45 22.12-15.42-.67-22.12-33.51 33.52-24.8M1458.27 1086.84l9.38-6.04 31.5 15.42-12.06 30.83-32.18-7.37 3.36-32.84zM1408 1083.48l14.74-10.05 24.13 11.4-.67 30.16-6.7 10.05-28.15-8.71-3.35-32.85zM1356.38 1088.85l14.75-12.07 26.14 8.05 1.34 28.82-10.72 12.06-24.8-4.02-6.71-32.84zM1303.43 1098.23l19.44-13.4 20.78 5.36 7.37 28.15-12.06 16.76-25.47-4.03-10.06-32.84zM1444.86 1136.44l4.69-5.37 34.86 10.73-5.37 30.16h-34.85l.67-35.52zM1393.92 1138.45l12.73-8.72 27.49 6.04v36.19l-35.53.67-4.69-34.18zM1361.75 1134.42l-15.42 12.07 8.04 33.51h26.81l8.05-8.04-5.36-32.84-22.12-4.7zM1392.58 1190.06l8.71-6.03 31.51 4.02.66 30.16-29.49 6.7-11.39-34.85zM1343.65 1204.13l10.05-11.39h27.48l10.06 30.16-4.69 9.39-30.17 3.35-12.73-31.51zM1294.72 1161.91l13.4-15.42 26.15 4.02 8.04 30.16-8.04 14.75h-22.79l-16.76-33.51zM1251.82 1114.99l22.79-18.1 14.75 2.01 14.07 34.19-16.08 16.08h-22.12l-13.41-34.18zM1224.34 1119.01l15.42 4.02 15.41 31.5-17.42 18.77-17.43.67-20.78-32.17 24.8-22.79zM1176.08 1148.5l14.08 2.01 21.44 29.49-21.44 24.13-15.42.67-25.47-30.16 26.81-26.14zM1263.89 1166.6l-18.1 18.77 18.1 30.16 24.13.67 10.05-17.43-12.73-30.83-21.45-1.34zM1309.46 1208.83l-12.73 14.07 15.42 32.18 27.48-5.37 5.36-12.73-12.07-29.49-23.46 1.34zM1361.75 1244.35l-9.39 12.74 15.42 33.51 31.5-13.41-10.72-32.84h-26.81zM1316.84 1267.81l-9.39 16.76 20.78 25.47 26.81-13.41-13.4-32.17-24.8 3.35zM1265.9 1230.28l20.77-2.02 16.09 30.17-9.38 14.74-20.78 6.71-22.12-27.49 15.42-22.11zM1198.2 1212.85l21.45-19.44h15.41l19.44 30.16-16.75 18.1-19.44 2.01-20.11-30.83zM1135.86 1178.66l30.17 34.19-18.77 28.82-14.08-.67-30.16-30.16 32.84-32.18zM1176.75 1222.23h12.07l22.78 28.15-14.07 26.81-17.43 2.01-26.14-28.82 22.79-28.15zM1206.91 1287.92l14.75-28.82h22.12l18.77 25.47-9.39 21.45-18.77 5.36-27.48-23.46zM1273.27 1293.95l-7.37 18.1 22.79 26.81 23.46-8.04 5.36-15.42-20.11-26.81-24.13 5.36zM1237.08 1326.12l16.75-6.7 24.8 27.48-4.02 18.77-22.12 8.71-24.8-22.79 9.39-25.47zM1185.46 1297.3l16.76-2.01 24.13 26.14-13.41 22.79-18.76 5.36-24.13-26.81 15.41-25.47zM1135.19 1259.77l11.4.67 26.14 30.16-18.1 28.82-13.4 2.01-28.83-27.48 22.79-34.18zM1149.94 1338.19l11.39-3.35 28.83 24.8-10.06 28.82-14.07 8.04-32.85-27.48 16.76-30.83zM1118.44 1385.11l40.88 20.78-14.07 36.19-42.9-18.77 16.09-38.2zM1203.56 1365.67l12.74-6.7 27.48 22.79-.67 24.8-22.12 9.38-29.49-24.13 12.06-26.14zM1172.06 1409.24l12.73-4.02 32.85 22.12-9.39 26.81-10.72 6.7-34.86-20.11 9.39-31.5zM1147.93 1461.52l10.05-4.69 33.52 17.43-2.01 30.16-12.07 9.38-40.89-16.09 11.4-36.19zM2046.58 902.052l45.04-19.304 14.48 37-4.29 9.115-38.07 7.507-17.16-34.318zM2006.9 1038.25l8.04-15.01 35.4-1.61 8.57 19.84-9.11 21.45-33.78-2.68-9.12-21.99zM2010.65 972.297l-8.57 18.232 12.33 20.371 37.53 1.08 6.97-15.553-11.79-31.101-36.47 6.971zM1999.39 920.82l-4.29 15.55 13.41 22.522 33.25-6.435 8.58-10.724-15.02-32.71-35.93 11.797z" fill="#c4bdce" stroke="#c4bdce" transform="matrix(1 0 0 1 -1101.85 -740.686)"/>
</svg>
