<?xml version="1.0" encoding="UTF-8" standalone="no"?>
<!DOCTYPE svg PUBLIC "-//W3C//DTD SVG 1.1//EN" "http://www.w3.org/Graphics/SVG/1.1/DTD/svg11.dtd">
<svg width="100%" height="100%" viewBox="0 0 2919 2326" version="1.1" xmlns="http://www.w3.org/2000/svg" xmlns:xlink="http://www.w3.org/1999/xlink" xml:space="preserve" xmlns:serif="http://www.serif.com/" style="fill-rule:evenodd;clip-rule:evenodd;stroke-linejoin:round;stroke-miterlimit:2;">
    <g transform="matrix(1,0,0,1,-102.985,-112)">
        <g transform="matrix(2.04617,0,0,2.04617,-3746.57,-20.1135)">
            <g transform="matrix(0.541261,0,0,0.541261,1745.55,36.39)">
                <g>
                    <g transform="matrix(1.1232,0,0,1.1232,-978.564,-216.256)">
                        <text x="1339.93px" y="1293.99px" style="font-family:'Tree Hugger';font-weight:500;font-size:150px;fill:rgb(187,227,61);stroke:rgb(31,68,30);stroke-width:0.8px;">P<tspan x="1407.88px 1462.18px " y="1293.99px 1293.99px ">as</tspan>sion</text>
                    </g>
                    <g transform="matrix(1.1232,0,0,1.1232,-560.472,-361.711)">
                        <g transform="matrix(-0.520753,0.888496,-0.288767,-0.169248,3778.72,262.933)">
                            <path d="M1942.46,1514.96L2287.91,1514.96C2289.66,1514.96 2291.07,1510.6 2291.07,1505.23L2291.07,1480.56C2291.07,1475.18 2289.66,1470.83 2287.91,1470.83L1942.46,1470.83L1971.06,1426.59C1972.47,1424.41 1973.14,1419.38 1972.64,1414.79C1972.14,1410.2 1970.61,1407.44 1969.06,1408.32C1969.06,1408.32 1865.48,1467.3 1859.33,1470.8C1859.33,1470.8 1537.87,1470.8 1537.87,1470.8C1536.12,1470.8 1534.7,1475.16 1534.7,1480.54L1534.7,1505.25C1534.7,1510.63 1536.12,1514.99 1537.87,1514.99L1859.33,1514.99C1859.33,1514.99 1969.06,1577.47 1969.06,1577.47C1970.61,1578.35 1972.14,1575.59 1972.64,1571C1973.14,1566.4 1972.47,1561.37 1971.06,1559.2L1942.46,1514.96ZM1937.63,1480.51L1937.63,1480.5L1937.63,1480.56L1937.63,1480.51ZM1937.63,1480.56L1937.63,1480.56L1937.63,1480.56L1937.63,1480.56Z" style="fill:rgb(187,227,61);stroke:rgb(31,68,30);stroke-width:1.05px;stroke-linecap:round;stroke-miterlimit:1.5;"/>
                        </g>
                        <g transform="matrix(0.532417,0.881556,-0.286512,0.173039,968.439,-232.234)">
                            <path d="M1942.46,1514.96L2287.91,1514.96C2289.66,1514.96 2291.07,1510.6 2291.07,1505.23L2291.07,1480.56C2291.07,1475.18 2289.66,1470.83 2287.91,1470.83L1942.46,1470.83L1971.06,1426.59C1972.47,1424.41 1973.14,1419.38 1972.64,1414.79C1972.14,1410.2 1970.61,1407.44 1969.06,1408.32L1859.33,1470.8C1859.33,1470.8 1537.87,1470.8 1537.87,1470.8C1536.12,1470.8 1534.7,1475.16 1534.7,1480.54L1534.7,1505.25C1534.7,1510.63 1536.12,1514.99 1537.87,1514.99L1859.33,1514.99C1859.33,1514.99 1969.06,1577.47 1969.06,1577.47C1970.61,1578.35 1972.14,1575.59 1972.64,1571C1973.14,1566.4 1972.47,1561.37 1971.06,1559.2L1942.46,1514.96ZM1936.25,1505.23L1936.25,1505.23L1936.29,1505.41L1936.28,1505.4L1936.25,1505.23Z" style="fill:rgb(187,227,61);stroke:rgb(31,68,30);stroke-width:1.05px;stroke-linecap:round;stroke-miterlimit:1.5;"/>
                        </g>
                        <g transform="matrix(1.29228,0.480522,-0.116655,0.313724,-233.571,-188.95)">
                            <path d="M1942.14,1514.96L2287.91,1514.96C2289.22,1514.96 2290.27,1510.6 2290.27,1505.23L2290.27,1480.56C2290.27,1475.18 2289.22,1470.83 2287.91,1470.83L1942.14,1470.83L1970.47,1427.01C1971.6,1425.26 1972.23,1420.31 1971.93,1415.5C1971.63,1410.69 1970.51,1407.57 1969.32,1408.25L1859.45,1470.8C1851.28,1470.8 1537.87,1470.8 1537.87,1470.8C1536.56,1470.8 1535.5,1475.16 1535.5,1480.54L1535.5,1505.25C1535.5,1510.63 1536.56,1514.99 1537.87,1514.99L1859.45,1514.99C1864.13,1517.65 1969.32,1577.54 1969.32,1577.54C1970.51,1578.22 1971.63,1575.09 1971.93,1570.29C1972.23,1565.48 1971.6,1560.52 1970.47,1558.78L1942.14,1514.96Z" style="fill:rgb(187,227,61);stroke:rgb(31,68,30);stroke-width:0.8px;stroke-linecap:round;stroke-miterlimit:1.5;"/>
                        </g>
                        <g transform="matrix(-1.29192,0.481481,-0.116888,-0.313638,4500.55,746.159)">
                            <path d="M1942.14,1514.96L2287.91,1514.96C2289.22,1514.96 2290.27,1510.6 2290.27,1505.23L2290.27,1480.56C2290.27,1475.18 2289.22,1470.83 2287.91,1470.83L1942.14,1470.83L1970.47,1427.01C1971.6,1425.26 1972.23,1420.31 1971.93,1415.5C1971.63,1410.69 1970.51,1407.57 1969.32,1408.25L1859.45,1470.8C1851.28,1470.8 1537.87,1470.8 1537.87,1470.8C1536.56,1470.8 1535.5,1475.16 1535.5,1480.54L1535.5,1505.25C1535.5,1510.63 1536.56,1514.99 1537.87,1514.99L1859.45,1514.99C1859.45,1514.99 1969.32,1577.54 1969.32,1577.54C1970.51,1578.22 1971.63,1575.09 1971.93,1570.29C1972.23,1565.48 1971.6,1560.52 1970.47,1558.78L1942.14,1514.96ZM1936.83,1480.56L1936.83,1480.56L1936.83,1480.55L1936.83,1480.56Z" style="fill:rgb(187,227,61);stroke:rgb(31,68,30);stroke-width:0.8px;stroke-linecap:round;stroke-miterlimit:1.5;"/>
                        </g>
                        <g transform="matrix(-0.234694,-1.35861,0.329826,-0.0569762,1626.82,4208.64)">
                            <path d="M1942.14,1470.83L1970.47,1427.01C1971.6,1425.26 1972.23,1420.31 1971.93,1415.5C1971.63,1410.69 1970.51,1407.57 1969.32,1408.25L1859.45,1470.8C1859.45,1470.8 1537.87,1470.8 1537.87,1470.8C1536.56,1470.8 1535.5,1475.16 1535.5,1480.54L1535.5,1505.25C1535.5,1510.63 1536.56,1514.99 1537.87,1514.99L1859.45,1514.99C1859.45,1514.99 1969.32,1577.54 1969.32,1577.54C1970.51,1578.22 1971.63,1575.09 1971.93,1570.29C1972.23,1565.48 1971.6,1560.52 1970.47,1558.78L1942.14,1514.96L2287.91,1514.96C2289.22,1514.96 2290.27,1510.6 2290.27,1505.23L2290.27,1480.56C2290.27,1475.18 2289.22,1470.83 2287.91,1470.83L1942.14,1470.83ZM1936.83,1480.56L1936.83,1480.56C1936.83,1480.02 1936.82,1479.53 1936.81,1479.07L1935.85,1480.56L1936.83,1480.56ZM1935.85,1505.23L1936.5,1506.24C1936.71,1506.09 1936.83,1505.78 1936.83,1505.25L1936.83,1505.23L1935.85,1505.23Z" style="fill:rgb(187,227,61);stroke:rgb(31,68,30);stroke-width:0.8px;stroke-linecap:round;stroke-miterlimit:1.5;"/>
                        </g>
                        <g transform="matrix(0.242184,-1.35729,0.329507,0.0587945,1290.61,4043.98)">
                            <path d="M1942.14,1470.83L1970.47,1427.01C1971.6,1425.26 1972.23,1420.31 1971.93,1415.5C1971.63,1410.69 1970.51,1407.57 1969.32,1408.25L1859.45,1470.8C1859.45,1470.8 1537.87,1470.8 1537.87,1470.8C1536.56,1470.8 1535.5,1475.16 1535.5,1480.54L1535.5,1505.25C1535.5,1510.63 1536.56,1514.99 1537.87,1514.99L1859.45,1514.99C1864.13,1517.65 1969.32,1577.54 1969.32,1577.54C1970.51,1578.22 1971.63,1575.09 1971.93,1570.29C1972.23,1565.48 1971.6,1560.52 1970.47,1558.78L1942.14,1514.96L2287.91,1514.96C2289.22,1514.96 2290.27,1510.6 2290.27,1505.23L2290.27,1480.56C2290.27,1475.18 2289.22,1470.83 2287.91,1470.83L1942.14,1470.83Z" style="fill:rgb(187,227,61);stroke:rgb(31,68,30);stroke-width:0.8px;stroke-linecap:round;stroke-miterlimit:1.5;"/>
                        </g>
                        <g transform="matrix(0.803884,0,0,0.803884,2025.9,192.681)">
                            <circle cx="383.798" cy="1023.41" r="29.554" style="fill:rgb(187,227,61);stroke:rgb(31,68,30);stroke-width:1px;stroke-linecap:round;stroke-miterlimit:1.5;"/>
                        </g>
                        <g transform="matrix(0.803884,0,0,0.803884,1846.47,1225.71)">
                            <circle cx="383.798" cy="1023.41" r="29.554" style="fill:rgb(187,227,61);stroke:rgb(31,68,30);stroke-width:1px;stroke-linecap:round;stroke-miterlimit:1.5;"/>
                        </g>
                        <g transform="matrix(0.803884,0,0,0.803884,1454.68,1225.71)">
                            <circle cx="383.798" cy="1023.41" r="29.554" style="fill:rgb(187,227,61);stroke:rgb(31,68,30);stroke-width:1px;stroke-linecap:round;stroke-miterlimit:1.5;"/>
                        </g>
                        <g transform="matrix(0.803884,0,0,0.803884,1057.02,563.944)">
                            <circle cx="383.798" cy="1023.41" r="29.554" style="fill:rgb(187,227,61);stroke:rgb(31,68,30);stroke-width:1px;stroke-linecap:round;stroke-miterlimit:1.5;"/>
                        </g>
                        <g transform="matrix(0.803884,0,0,0.803884,2233,553.082)">
                            <circle cx="383.798" cy="1023.41" r="29.554" style="fill:rgb(187,227,61);stroke:rgb(31,68,30);stroke-width:1px;stroke-linecap:round;stroke-miterlimit:1.5;"/>
                        </g>
                        <g transform="matrix(0.803884,0,0,0.803884,1280.57,192.681)">
                            <circle cx="383.798" cy="1023.41" r="29.554" style="fill:rgb(187,227,61);stroke:rgb(31,68,30);stroke-width:1px;stroke-linecap:round;stroke-miterlimit:1.5;"/>
                        </g>
                    </g>
                    <g transform="matrix(1.1232,0,0,1.1232,-590.327,-296.852)">
                        <text x="2593.84px" y="1365.77px" style="font-family:'Tree Hugger';font-weight:500;font-size:150px;fill:rgb(187,227,61);stroke:rgb(31,68,30);stroke-width:0.8px;">Survival</text>
                    </g>
                    <g transform="matrix(1.1232,0,0,1.1232,-538.529,-277.72)">
                        <text x="2154.76px" y="2083.49px" style="font-family:'Tree Hugger';font-weight:500;font-size:150px;fill:rgb(187,227,61);stroke:rgb(31,68,30);stroke-width:0.8px;">Satisfaction</text>
                    </g>
                    <g transform="matrix(1.1232,0,0,1.1232,-516.765,-235.042)">
                        <text x="1329.38px" y="2045.49px" style="font-family:'Tree Hugger';font-weight:500;font-size:150px;fill:rgb(187,227,61);stroke:rgb(31,68,30);stroke-width:0.8px;">Sacrifice</text>
                    </g>
                    <g transform="matrix(1.1232,0,0,1.1232,-675.45,-323.707)">
                        <text x="1489.81px" y="981.573px" style="font-family:'Tree Hugger';font-weight:500;font-size:150px;fill:rgb(187,227,61);stroke:rgb(31,68,30);stroke-width:0.8px;">Duty</text>
                    </g>
                    <g transform="matrix(1.1232,0,0,1.1232,-590.691,-306.644)">
                        <text x="2380.63px" y="979.462px" style="font-family:'Tree Hugger';font-weight:500;font-size:150px;fill:rgb(187,227,61);stroke:rgb(0,68,0);stroke-width:0.8px;">Service</text>
                    </g>
                </g>
                <g>
                    <g transform="matrix(1.1232,0,0,1.1232,-560.472,-361.711)">
                        <g transform="matrix(-0.682914,-1.19771,0.34705,-0.197881,3001.1,3921.74)">
                            <path d="M1940.17,1472.4L1970.61,1425.34C1971.69,1423.66 1972.25,1419.47 1971.9,1415.54C1971.56,1411.62 1970.43,1409.18 1969.26,1409.85L1859.42,1472.38C1859.42,1472.38 1537.87,1472.38 1537.87,1472.38C1536.56,1472.38 1535.5,1476.03 1535.5,1480.54L1535.5,1505.25C1535.5,1509.76 1536.56,1513.41 1537.87,1513.41L1859.42,1513.41C1864.5,1516.3 1969.26,1575.94 1969.26,1575.94C1970.43,1576.61 1971.56,1574.17 1971.9,1570.25C1972.25,1566.32 1971.69,1562.13 1970.61,1560.45L1940.17,1513.38L2287.91,1513.38C2289.22,1513.38 2290.27,1509.73 2290.27,1505.23L2290.27,1480.56C2290.27,1476.06 2289.22,1472.4 2287.91,1472.4L1940.17,1472.4ZM1936.83,1480.56L1936.83,1480.56C1936.83,1479.46 1936.78,1478.55 1936.69,1477.8L1935.17,1480.15C1935.31,1480.3 1935.44,1480.44 1935.57,1480.56L1936.83,1480.56ZM1935.54,1505.23C1936.27,1505.94 1936.83,1506.19 1936.83,1505.25L1936.83,1505.23L1935.54,1505.23Z" style="fill:rgb(246,249,212);stroke:rgb(31,68,30);stroke-width:0.79px;stroke-linecap:round;stroke-miterlimit:1.5;"/>
                        </g>
                        <g transform="matrix(1.37873,1.34922e-16,1.94289e-16,0.406765,-685.013,1179.53)">
                            <path d="M1939.99,1513.24L2287.91,1513.24C2289.22,1513.24 2290.27,1509.65 2290.27,1505.23L2290.27,1480.56C2290.27,1476.14 2289.22,1472.55 2287.91,1472.55L1939.99,1472.55L1970.62,1425.18C1971.7,1423.51 1972.25,1419.39 1971.9,1415.55C1971.55,1411.7 1970.42,1409.33 1969.25,1409.99L1859.42,1472.53C1850.44,1472.53 1537.87,1472.53 1537.87,1472.53C1536.56,1472.53 1535.5,1476.11 1535.5,1480.54L1535.5,1505.25C1535.5,1509.67 1536.56,1513.26 1537.87,1513.26L1859.42,1513.26C1859.42,1513.26 1969.25,1575.79 1969.25,1575.79C1970.42,1576.46 1971.55,1574.08 1971.9,1570.24C1972.25,1566.4 1971.7,1562.28 1970.62,1560.61L1939.99,1513.24ZM1932.31,1480.54C1932.18,1480.24 1932.11,1480.2 1932.11,1480.54L1932.31,1480.54Z" style="fill:rgb(246,249,212);stroke:rgb(31,68,30);stroke-width:0.79px;stroke-linecap:round;stroke-miterlimit:1.5;"/>
                        </g>
                        <g transform="matrix(-0.688479,1.19452,-0.371355,-0.214035,3571.22,-627.887)">
                            <path d="M1939.49,1512.83L2287.91,1512.83C2289.22,1512.83 2290.27,1509.42 2290.27,1505.23L2290.27,1480.56C2290.27,1476.36 2289.22,1472.96 2287.91,1472.96L1939.49,1472.96L1970.66,1424.74C1971.73,1423.1 1972.25,1419.18 1971.89,1415.56C1971.53,1411.95 1970.39,1409.75 1969.23,1410.41L1859.41,1472.93C1850.2,1472.93 1537.87,1472.93 1537.87,1472.93C1536.56,1472.93 1535.5,1476.34 1535.5,1480.54L1535.5,1505.25C1535.5,1509.45 1536.56,1512.85 1537.87,1512.85L1859.41,1512.85C1859.41,1512.85 1969.23,1575.38 1969.23,1575.38C1970.39,1576.04 1971.53,1573.84 1971.89,1570.23C1972.25,1566.61 1971.73,1562.69 1970.66,1561.04L1939.49,1512.83ZM1936.83,1480.56L1936.83,1480.56L1936.83,1480.56L1936.83,1480.56Z" style="fill:rgb(246,249,212);stroke:rgb(31,68,30);stroke-width:0.79px;stroke-linecap:round;stroke-miterlimit:1.5;"/>
                        </g>
                        <g transform="matrix(0.803884,0,0,0.803884,1125.28,964.089)">
                            <circle cx="383.798" cy="1023.41" r="29.554" style="fill:rgb(246,249,212);stroke:rgb(31,68,30);stroke-width:1px;stroke-linecap:round;stroke-miterlimit:1.5;"/>
                        </g>
                        <g transform="matrix(0.803884,0,0,0.803884,1648.15,72.2604)">
                            <circle cx="383.798" cy="1023.41" r="29.554" style="fill:rgb(246,249,212);stroke:rgb(31,68,30);stroke-width:1px;stroke-linecap:round;stroke-miterlimit:1.5;"/>
                        </g>
                        <g transform="matrix(0.803884,0,0,0.803884,2164.12,964.089)">
                            <circle cx="383.798" cy="1023.41" r="29.554" style="fill:rgb(246,249,212);stroke:rgb(31,68,30);stroke-width:1px;stroke-linecap:round;stroke-miterlimit:1.5;"/>
                        </g>
                    </g>
                    <g transform="matrix(1.1232,0,0,1.1232,-584.857,-269.835)">
                        <text x="2513.62px" y="1796.4px" style="font-family:'Tree Hugger';font-weight:500;font-size:150px;fill:rgb(246,249,212);stroke:rgb(31,68,30);stroke-width:0.8px;">P<tspan x="2578.27px 2627.47px " y="1796.4px 1796.4px ">os</tspan>sessor</text>
                    </g>
                    <g transform="matrix(1.1232,0,0,1.1232,-959.013,-269.906)">
                        <text x="1329.38px" y="1798.51px" style="font-family:'Tree Hugger';font-weight:500;font-size:150px;fill:rgb(246,249,212);stroke:rgb(31,68,30);stroke-width:0.8px;">Conscience</text>
                    </g>
                    <g transform="matrix(1.1232,0,0,1.1232,-668.691,-339.821)">
                        <text x="1943.66px" y="844.361px" style="font-family:'Tree Hugger';font-weight:500;font-size:150px;fill:rgb(246,249,212);stroke:rgb(31,68,30);stroke-width:0.8px;">Spirit</text>
                    </g>
                </g>
                <g>
                    <g>
                        <g transform="matrix(0.40249,0,0,1.90062,975.378,-1844.31)">
                            <rect x="1632.4" y="1645.22" width="47.703" height="457.325" style="fill:rgb(155,44,44);stroke:rgb(31,68,30);stroke-width:0.66px;stroke-linecap:round;stroke-miterlimit:1.5;"/>
                        </g>
                        <g transform="matrix(0.202901,-0.347605,1.64144,0.958129,-2140.49,-144.012)">
                            <rect x="1632.4" y="1645.22" width="47.703" height="457.325" style="fill:rgb(155,44,44);stroke:rgb(31,68,30);stroke-width:0.66px;stroke-linecap:round;stroke-miterlimit:1.5;"/>
                        </g>
                        <g transform="matrix(0.199735,0.349434,-1.65008,0.943177,4784.24,-1265.65)">
                            <rect x="1632.4" y="1645.22" width="47.703" height="457.325" style="fill:rgb(155,44,44);stroke:rgb(31,68,30);stroke-width:0.66px;stroke-linecap:round;stroke-miterlimit:1.5;"/>
                        </g>
                        <g transform="matrix(0.902925,0,0,0.902925,1296.13,371.336)">
                            <circle cx="383.798" cy="1023.41" r="29.554" style="fill:rgb(155,44,44);stroke:rgb(31,68,30);stroke-width:1px;stroke-linecap:round;stroke-miterlimit:1.5;"/>
                        </g>
                    </g>
                    <g transform="matrix(1,0,0,1,23.3653,77.8842)">
                        <g transform="matrix(1,0,0,1,-346.025,239.514)">
                            <text x="1572.37px" y="1127.63px" style="font-family:'Tree Hugger';font-weight:500;font-size:125px;fill:rgb(155,44,44);stroke:rgb(31,68,30);stroke-width:0.9px;">Support</text>
                            <text x="1481.87px" y="1192.8px" style="font-family:'Tree Hugger';font-weight:500;font-size:125px;fill:rgb(155,44,44);stroke:rgb(31,68,30);stroke-width:0.9px;">Preservation</text>
                        </g>
                        <g transform="matrix(1,0,0,1,-346.025,365.527)">
                            <text x="1540.94px" y="1127.63px" style="font-family:'Tree Hugger';font-weight:500;font-size:52.671px;fill:rgb(155,44,44);stroke:rgb(31,68,30);stroke-width:0.9px;">Nullifies the Attackers</text>
                            <text x="1637.01px" y="1163.47px" style="font-family:'Tree Hugger';font-weight:500;font-size:52.671px;fill:rgb(155,44,44);stroke:rgb(31,68,30);stroke-width:0.9px;">F<tspan x="1660.93px 1666.46px " y="1163.47px 1163.47px ">ir</tspan>st W<tspan x="1760.32px 1765.85px " y="1163.47px 1163.47px ">in</tspan></text>
                        </g>
                    </g>
                    <g transform="matrix(1,0,0,1,537.608,64.5033)">
                        <g transform="matrix(1,0,0,1,-346.025,239.514)">
                            <text x="1632.06px" y="1127.63px" style="font-family:'Tree Hugger';font-weight:500;font-size:125px;fill:rgb(155,44,44);stroke:rgb(31,68,30);stroke-width:0.9px;">Self</text>
                            <text x="1481.87px" y="1192.8px" style="font-family:'Tree Hugger';font-weight:500;font-size:125px;fill:rgb(155,44,44);stroke:rgb(31,68,30);stroke-width:0.9px;">Preservation</text>
                        </g>
                        <g transform="matrix(1,0,0,1,-346.025,365.527)">
                            <text x="1553.95px" y="1127.63px" style="font-family:'Tree Hugger';font-weight:500;font-size:52.671px;fill:rgb(155,44,44);stroke:rgb(31,68,30);stroke-width:0.9px;">May Attempt Retreat</text>
                            <text x="1576.78px" y="1163.96px" style="font-family:'Tree Hugger';font-weight:500;font-size:52.671px;fill:rgb(155,44,44);stroke:rgb(31,68,30);stroke-width:0.9px;">Before F<tspan x="1717.84px 1723.37px " y="1163.96px 1163.96px ">in</tspan>al Blow</text>
                        </g>
                    </g>
                    <g transform="matrix(1,0,0,1,284.127,-332.869)">
                        <g transform="matrix(1,0,0,1,-346.025,239.514)">
                            <text x="1569.68px" y="1127.63px" style="font-family:'Tree Hugger';font-weight:500;font-size:125px;fill:rgb(155,44,44);stroke:rgb(31,68,30);stroke-width:0.9px;">Societal</text>
                            <text x="1481.87px" y="1192.8px" style="font-family:'Tree Hugger';font-weight:500;font-size:125px;fill:rgb(155,44,44);stroke:rgb(31,68,30);stroke-width:0.9px;">Preservation</text>
                        </g>
                        <g transform="matrix(1,0,0,1,-352.579,335.707)">
                            <text x="1538.97px" y="1127.63px" style="font-family:'Tree Hugger';font-weight:500;font-size:52.671px;fill:rgb(155,44,44);stroke:rgb(31,68,30);stroke-width:0.9px;">Nullifies the Defenders</text>
                            <text x="1637.01px" y="1163.47px" style="font-family:'Tree Hugger';font-weight:500;font-size:52.671px;fill:rgb(155,44,44);stroke:rgb(31,68,30);stroke-width:0.9px;">F<tspan x="1660.93px 1666.46px " y="1163.47px 1163.47px ">ir</tspan>st W<tspan x="1760.32px 1765.85px " y="1163.47px 1163.47px ">in</tspan></text>
                        </g>
                    </g>
                </g>
            </g>
            <g transform="matrix(0.641314,0,0,0.641314,486.706,-950.495)">
                <g>
                    <g transform="matrix(1.02333,0,0,1.02333,1595.99,223.928)">
                        <rect x="565.854" y="1328.24" width="73.29" height="73.29" style="fill:rgb(246,249,212);stroke:rgb(31,68,30);stroke-width:0.74px;stroke-linecap:round;stroke-miterlimit:1.5;"/>
                    </g>
                    <g transform="matrix(1,0,0,1,-8.89191,40.6485)">
                        <text x="2283.23px" y="1620.4px" style="font-family:'Tree Hugger';font-weight:500;font-size:125px;fill:rgb(246,249,212);stroke:rgb(31,68,30);stroke-width:0.76px;">= Spectral Motives</text>
                    </g>
                </g>
                <g transform="matrix(1,0,0,1,0,135.108)">
                    <g transform="matrix(1.02333,0,0,1.02333,1595.99,223.928)">
                        <rect x="565.854" y="1328.24" width="73.29" height="73.29" style="fill:rgb(187,227,61);stroke:rgb(31,68,30);stroke-width:0.74px;stroke-linecap:round;stroke-miterlimit:1.5;"/>
                    </g>
                    <g transform="matrix(1,0,0,1,-8.89191,40.6485)">
                        <text x="2283.23px" y="1620.4px" style="font-family:'Tree Hugger';font-weight:500;font-size:125px;fill:rgb(187,227,61);stroke:rgb(31,68,30);stroke-width:0.76px;">= Practical Motives</text>
                    </g>
                    <g transform="matrix(1,0,0,1,1058.22,114.599)">
                        <text x="2283.23px" y="1620.4px" style="font-family:'Tree Hugger';font-weight:500;font-size:125px;fill:rgb(52,28,23);stroke:rgb(31,68,30);stroke-width:0.76px;">Add 10 to roll when attacking</text>
                        <text x="2283.23px" y="1705.46px" style="font-family:'Tree Hugger';font-weight:500;font-size:125px;fill:rgb(52,28,23);stroke:rgb(31,68,30);stroke-width:0.76px;">In the direction of the arrow</text>
                    </g>
                </g>
                <g transform="matrix(1,0,0,1,0,270.216)">
                    <g transform="matrix(1.02333,0,0,1.02333,1595.99,223.928)">
                        <rect x="565.854" y="1328.24" width="73.29" height="73.29" style="fill:rgb(155,44,44);stroke:rgb(31,68,30);stroke-width:0.74px;stroke-linecap:round;stroke-miterlimit:1.5;"/>
                    </g>
                    <g transform="matrix(1,0,0,1,-8.89191,40.6485)">
                        <text x="2283.23px" y="1620.4px" style="font-family:'Tree Hugger';font-weight:500;font-size:125px;fill:rgb(155,44,44);stroke:rgb(31,68,30);stroke-width:0.76px;">= Principal Motive Group</text>
                    </g>
                </g>
            </g>
        </g>
    </g>
</svg>
