<?xml version="1.0" standalone="no"?>
<!DOCTYPE svg PUBLIC "-//W3C//DTD SVG 20010904//EN"
 "http://www.w3.org/TR/2001/REC-SVG-20010904/DTD/svg10.dtd">
<svg version="1.0" xmlns="http://www.w3.org/2000/svg"
 width="437.000000pt" height="437.000000pt" viewBox="0 0 437.000000 437.000000"
 preserveAspectRatio="xMidYMid meet">
<metadata>
Created by potrace 1.14, written by Peter Selinger 2001-2017
</metadata>
<g transform="translate(0.000000,437.000000) scale(0.100000,-0.100000)"
fill="#000000" stroke="none">
<path d="M1965 4359 c-680 -70 -1295 -461 -1652 -1052 -498 -826 -393 -1879
260 -2591 290 -317 664 -543 1068 -646 787 -201 1604 43 2156 646 653 712 758
1765 260 2591 -439 726 -1257 1138 -2092 1052z m510 -55 c871 -118 1596 -777
1793 -1629 73 -315 73 -665 0 -980 -87 -378 -288 -736 -572 -1020 -340 -339
-740 -539 -1221 -610 -226 -33 -540 -18 -780 37 -704 162 -1298 701 -1533
1388 -81 237 -113 435 -113 695 0 331 65 625 201 912 402 846 1299 1332 2225
1207z"/>
<path d="M1321 3893 c-1 -41 34 -249 55 -321 26 -91 98 -259 164 -384 33 -63
60 -120 60 -127 0 -8 -10 -7 -31 5 -24 12 -52 15 -108 12 -66 -3 -85 -8 -144
-41 l-68 -38 60 -39 c87 -56 116 -70 149 -70 40 0 94 24 135 59 l33 29 28
-131 c16 -73 31 -138 34 -146 3 -7 -14 -1 -38 15 -34 23 -57 29 -110 32 -65 4
-110 -8 -110 -28 0 -6 20 -10 45 -10 35 0 51 -6 79 -30 46 -41 63 -89 87 -244
29 -184 18 -363 -31 -491 -11 -29 -13 -25 -41 85 -34 132 -62 186 -116 223
-164 113 -357 -35 -232 -178 56 -64 140 -69 155 -9 9 34 -2 41 -26 19 -11 -10
-23 -15 -27 -12 -11 11 -5 70 8 78 17 10 63 -8 87 -34 42 -46 97 -219 108
-347 l7 -75 -59 63 c-67 70 -90 76 -145 39 -42 -28 -103 -107 -91 -119 5 -5
31 -3 61 4 51 11 54 11 72 -13 23 -29 45 -102 93 -304 46 -197 86 -277 179
-368 l71 -69 -40 -34 c-53 -45 -108 -71 -171 -79 -60 -8 -75 -21 -47 -42 26
-20 170 -12 245 14 l56 19 24 -44 c42 -81 148 -169 226 -188 33 -9 30 16 -8
52 -54 50 -89 113 -89 160 0 45 15 67 24 37 3 -10 32 -46 63 -79 50 -53 70
-66 141 -93 130 -49 214 -37 110 15 -74 37 -159 130 -204 223 -45 91 -52 145
-31 243 29 130 37 226 38 423 l0 193 30 6 c17 3 44 19 60 35 34 34 38 74 13
128 -18 36 -77 83 -106 83 -10 0 -18 7 -18 15 0 12 7 14 28 9 38 -8 139 -33
187 -46 69 -18 185 -143 185 -200 0 -9 5 -20 10 -23 19 -11 10 -32 -17 -44
-42 -17 -73 -71 -83 -140 -5 -33 -16 -75 -24 -92 -20 -40 -20 -39 3 -39 64 0
158 63 186 125 7 17 14 24 14 16 1 -8 16 -37 33 -65 30 -46 32 -56 31 -125 -1
-42 -9 -98 -17 -126 -20 -64 -20 -105 0 -133 14 -20 14 -22 -1 -22 -9 0 -33
-9 -53 -19 -46 -24 -81 -83 -89 -152 l-6 -52 59 7 c73 9 96 24 130 81 l27 46
43 -64 c44 -66 86 -107 110 -107 19 0 18 19 -1 26 -17 7 -73 94 -139 216 l-47
86 15 89 c15 96 30 143 45 143 21 0 113 -118 152 -194 22 -44 49 -91 60 -104
23 -30 24 -60 2 -84 -14 -16 -14 -18 0 -18 20 0 46 26 53 54 3 12 -4 47 -15
76 -11 30 -18 56 -16 59 17 17 168 -87 230 -158 47 -54 218 -181 243 -181 24
0 10 17 -50 60 -34 25 -91 73 -127 107 -61 58 -64 63 -40 63 15 0 47 -11 72
-26 104 -57 217 -16 217 81 0 30 2 29 -39 9 -31 -16 -57 -15 -138 2 -28 5 -37
2 -63 -26 -28 -30 -31 -31 -65 -20 -24 8 -47 27 -65 53 -82 118 -87 123 -146
146 -45 17 -75 39 -134 99 -42 42 -89 89 -105 103 -47 42 -74 83 -84 130 -6
24 -18 76 -27 114 -9 39 -22 98 -29 131 -8 34 -25 84 -39 112 -24 47 -76 102
-97 102 -22 0 4 20 39 30 20 5 59 27 87 48 40 30 59 56 100 137 46 91 54 101
100 124 38 20 68 27 130 29 l80 4 0 -49 c0 -33 8 -64 28 -100 15 -29 27 -61
27 -72 0 -36 17 -31 64 19 39 42 46 55 46 91 0 24 -8 55 -20 74 l-20 32 23 -4
c13 -3 70 12 128 32 57 20 151 51 208 68 58 18 106 38 109 46 4 11 -3 13 -29
7 -41 -8 -189 -52 -241 -72 -21 -7 -38 -10 -38 -5 0 4 19 26 43 48 23 22 65
67 94 100 51 59 144 133 212 167 23 12 30 21 23 28 -15 15 -107 -30 -168 -83
-28 -24 -93 -89 -145 -144 -51 -55 -104 -106 -118 -114 -41 -22 -166 -31 -243
-16 -37 7 -88 11 -113 9 -41 -2 -44 -1 -35 16 24 45 79 66 246 95 147 26 227
66 328 164 30 28 59 51 65 51 6 0 11 5 11 10 0 23 -42 7 -94 -35 -58 -48 -101
-67 -175 -80 l-44 -7 17 23 c29 42 14 179 -20 179 -8 0 -14 -7 -14 -15 0 -8
-12 -21 -27 -29 -68 -35 -92 -92 -63 -147 14 -25 8 -26 -96 -32 l-81 -4 24 61
c45 111 71 153 124 200 52 46 52 47 73 28 54 -50 102 -54 196 -17 35 14 68 29
73 34 12 12 -19 40 -51 47 -15 3 -37 10 -50 15 -13 5 -40 9 -60 9 l-37 0 52
51 c50 48 54 50 70 33 29 -28 83 -46 121 -39 44 8 115 52 106 66 -3 6 -27 24
-52 40 -34 22 -58 29 -94 29 l-49 0 16 31 c30 57 9 53 -31 -7 -43 -66 -119
-144 -139 -144 -20 0 -65 98 -65 141 l0 37 43 -5 c73 -8 167 55 167 111 0 12
-12 43 -26 70 -21 40 -25 56 -19 92 8 58 -6 57 -61 -1 -46 -50 -57 -86 -48
-154 5 -43 4 -48 -25 -69 l-31 -23 0 23 c0 13 4 49 10 82 6 38 6 65 -1 77 -12
23 -34 25 -25 2 5 -13 -20 -148 -30 -161 -1 -2 -22 6 -47 17 -25 12 -62 21
-82 21 -42 0 -135 -39 -135 -57 0 -7 4 -13 9 -13 5 0 23 -13 41 -30 40 -37 98
-53 161 -45 47 7 49 6 49 -17 0 -13 14 -46 31 -72 16 -27 28 -54 25 -61 -2 -7
-29 -20 -59 -29 -30 -9 -66 -25 -80 -36 -30 -24 -78 -106 -100 -170 -29 -85
-88 -205 -117 -235 -41 -44 -113 -153 -159 -242 -44 -85 -92 -147 -159 -207
-45 -41 -50 -42 -157 -31 -49 6 -75 2 -139 -19 -44 -14 -83 -23 -87 -21 -3 3
-12 26 -18 52 -7 27 -51 129 -99 228 l-87 180 0 345 c0 190 -4 378 -9 417 -10
79 -1 103 36 103 11 0 16 4 12 11 -4 7 -21 9 -43 6 -35 -6 -36 -5 -58 44 -27
61 -47 58 -26 -3 22 -65 21 -417 -2 -533 -2 -11 -4 -32 -4 -47 -1 -43 -15 -33
-35 25 -10 28 -43 98 -73 155 -41 78 -55 115 -57 152 -3 46 -1 51 37 81 79 63
109 196 69 301 l-18 47 -29 -15 c-17 -8 -45 -30 -63 -47 -82 -78 -98 -174 -46
-267 32 -57 49 -104 34 -95 -15 9 -69 109 -98 181 -38 93 -59 173 -87 334 -12
74 -23 121 -24 103z m279 -366 c0 -60 -34 -140 -62 -145 -14 -3 -18 4 -18 30
0 65 44 168 72 168 4 0 8 -24 8 -53z m1329 -171 c15 -8 33 -22 40 -30 12 -14
7 -16 -40 -16 -56 0 -126 31 -114 50 9 15 82 12 114 -4z m472 -135 l24 -19
-42 -11 c-56 -15 -117 9 -98 39 11 18 91 11 116 -9z m-1624 -168 c-3 -10 -5
-4 -5 12 0 17 2 24 5 18 2 -7 2 -21 0 -30z m1430 5 c42 -15 42 -24 -2 -38 -42
-14 -64 -8 -95 25 l-23 25 43 0 c24 0 59 -5 77 -12z m-1653 -39 c32 -15 29
-28 -12 -52 -45 -26 -129 -24 -183 4 -39 19 -41 22 -23 32 62 35 160 42 218
16z m1540 -242 c-16 -36 -19 -37 -31 -21 -21 29 -15 70 15 105 l27 33 3 -39
c2 -22 -4 -55 -14 -78z m-1370 -102 c5 -22 4 -26 -4 -15 -5 8 -10 24 -10 34 0
26 6 18 14 -19z m1173 -11 c-3 -3 -12 -4 -19 -1 -8 3 -5 6 6 6 11 1 17 -2 13
-5z m-77 -24 c-8 -5 -19 -10 -25 -10 -5 0 -3 5 5 10 8 5 20 10 25 10 6 0 3 -5
-5 -10z m-135 -117 c-14 -27 -39 -64 -56 -83 -18 -19 -28 -28 -24 -20 13 25
97 150 101 150 2 0 -8 -21 -21 -47z m375 -151 c0 -28 -29 -80 -30 -54 0 7 -11
30 -25 50 -28 41 -31 62 -12 81 17 17 67 -39 67 -77z m-416 26 c-15 -44 -74
-142 -80 -135 -5 4 85 177 91 177 2 0 -3 -19 -11 -42z m-754 -203 c0 -5 -5 -3
-10 5 -5 8 -10 20 -10 25 0 6 5 3 10 -5 5 -8 10 -19 10 -25z m520 -40 c-14 -8
-32 -14 -40 -14 -8 0 -1 7 15 14 39 18 57 18 25 0z m-547 -132 l15 -52 -30
-10 c-17 -6 -34 -11 -38 -11 -3 0 1 34 9 75 16 80 20 79 44 -2z m423 46 c47
-28 43 -33 -6 -8 -38 20 -48 29 -34 29 4 0 22 -9 40 -21z m-397 -11 c15 -43
22 -80 13 -74 -5 3 -12 18 -15 33 -3 16 -9 36 -12 46 -4 9 -4 17 -1 17 4 0 10
-10 15 -22z m38 -30 c-3 -7 -5 -2 -5 12 0 14 2 19 5 13 2 -7 2 -19 0 -25z
m524 -20 c15 -28 5 -21 -21 15 -15 20 -17 27 -6 18 9 -8 22 -23 27 -33z m-56
-3 c39 -32 28 -32 -15 0 -19 14 -30 25 -24 25 5 0 23 -11 39 -25z m-488 -132
c21 -74 8 -216 -40 -438 -27 -121 -57 -263 -69 -315 -11 -52 -24 -99 -28 -103
-11 -12 -65 79 -91 153 -19 55 -23 86 -23 205 -1 159 19 252 80 381 56 119
152 185 171 117z m593 -27 c0 -12 -5 -7 -19 24 -11 24 -11 24 3 6 9 -11 16
-24 16 -30z m-531 -99 c1 -5 -3 -5 -9 -2 -5 3 -10 16 -9 28 0 21 1 21 9 2 5
-11 9 -24 9 -28z m560 -42 c0 -5 -6 1 -14 15 -8 14 -14 30 -14 35 0 6 6 -1 14
-15 8 -14 14 -29 14 -35z m-69 -60 c0 -44 -21 -86 -56 -114 -38 -30 -46 -26
-39 17 12 70 15 79 39 105 36 39 56 35 56 -8z m-533 -27 c-3 -7 -5 -2 -5 12 0
14 2 19 5 13 2 -7 2 -19 0 -25z m43 -64 c-18 -52 -22 -35 -8 27 9 35 14 46 16
31 2 -12 -2 -38 -8 -58z m620 12 c0 -12 -5 -7 -19 24 -11 24 -11 24 3 6 9 -11
16 -24 16 -30z m71 -103 c13 -16 12 -17 -3 -4 -10 7 -18 15 -18 17 0 8 8 3 21
-13z m-735 -196 c-19 -63 -42 -128 -51 -144 -15 -27 -15 -27 -10 -3 3 14 12
41 20 60 8 19 26 75 40 124 14 48 28 86 30 84 3 -2 -11 -57 -29 -121z m15
-143 c-12 -26 -24 -45 -27 -42 -3 4 5 30 17 59 13 29 25 47 27 41 2 -6 -6 -32
-17 -58z m1332 19 c-7 -2 -19 -2 -25 0 -7 3 -2 5 12 5 14 0 19 -2 13 -5z m127
-34 c0 -12 -55 -39 -81 -39 -30 0 -99 21 -99 31 0 4 6 10 13 12 21 9 167 6
167 -4z m-820 -73 c0 -42 -31 -82 -71 -91 -17 -4 -32 -5 -35 -2 -11 11 37 97
63 111 40 21 43 20 43 -18z m-840 -141 c-7 -9 -23 -21 -34 -27 -16 -8 -14 -3
8 21 29 31 51 36 26 6z m20 -49 c0 -2 -7 -7 -16 -10 -8 -3 -12 -2 -9 4 6 10
25 14 25 6z"/>
<path d="M1236 3763 c4 -10 10 -66 13 -124 7 -116 22 -153 84 -196 42 -30 51
-20 25 30 -12 23 -27 76 -34 118 -13 83 -59 189 -82 189 -10 0 -12 -5 -6 -17z"/>
<path d="M1198 3374 c-14 -13 -8 -24 13 -24 23 0 66 -41 90 -86 22 -41 108
-84 168 -84 l45 0 -26 28 c-15 15 -39 49 -55 76 -42 73 -71 90 -156 94 -40 2
-75 0 -79 -4z"/>
<path d="M2925 2253 c-3 -16 -18 -53 -33 -83 -22 -44 -39 -63 -91 -97 -148
-97 -201 -187 -201 -338 0 -101 10 -109 59 -53 31 35 67 59 153 100 80 39 124
67 150 96 45 50 64 105 49 145 -13 33 -39 35 -47 3 -6 -26 -41 -62 -88 -92
l-29 -18 8 24 c4 14 21 44 37 68 46 67 68 123 68 177 0 85 -23 129 -35 68z"/>
</g>
</svg>
