<?xml version="1.0" encoding="UTF-8" standalone="no"?>
<!-- Created with Inkscape (http://www.inkscape.org/) -->

<svg
   version="1.1"
   id="svg870"
   width="128"
   height="127.99998"
   viewBox="0 0 128 127.99998"
   sodipodi:docname="qr_ico.svg"
   inkscape:version="1.1.2 (0a00cf5339, 2022-02-04)"
   xmlns:inkscape="http://www.inkscape.org/namespaces/inkscape"
   xmlns:sodipodi="http://sodipodi.sourceforge.net/DTD/sodipodi-0.dtd"
   xmlns="http://www.w3.org/2000/svg"
   xmlns:svg="http://www.w3.org/2000/svg">
  <defs
     id="defs874" />
  <sodipodi:namedview
     id="namedview872"
     pagecolor="#505050"
     bordercolor="#eeeeee"
     borderopacity="1"
     inkscape:pageshadow="0"
     inkscape:pageopacity="0"
     inkscape:pagecheckerboard="0"
     showgrid="false"
     inkscape:zoom="1.7792969"
     inkscape:cx="24.447859"
     inkscape:cy="64.913281"
     inkscape:window-width="1920"
     inkscape:window-height="1133"
     inkscape:window-x="3280"
     inkscape:window-y="37"
     inkscape:window-maximized="1"
     inkscape:current-layer="g876" />
  <g
     inkscape:groupmode="layer"
     inkscape:label="Image"
     id="g876"
     transform="translate(-187.31712,-191.8925)">
    <g
       id="g9479"
       transform="matrix(2.2068954,0,0,2.2068954,-418.89869,-145.21633)">
      <path
         id="path8947"
         style="fill:#ffffff;stroke:none"
         d="m 306.69172,182.75252 c -1.10457,0 -2,0.89543 -2,2 v 16 c 0,1.10457 0.89543,2 2,2 h 16 c 1.10457,0 2,-0.89543 2,-2 v -16 c 0,-1.10457 -0.89543,-2 -2,-2 z m 4,4 h 8 c 1.10457,0 2,0.89543 2,2 v 8 c 0,1.10457 -0.89543,2 -2,2 h -8 c -1.10457,0 -2,-0.89543 -2,-2 v -8 c 0,-1.10457 0.89543,-2 2,-2 z" />
      <path
         id="path3395"
         style="fill:#ffffff;stroke:none"
         d="m 276.69172,152.75252 c -0.13807,0 -0.2741,0.0124 -0.4043,0.0391 -0.78117,0.15985 -1.39679,0.77547 -1.55664,1.55664 -0.0266,0.1302 -0.0391,0.26623 -0.0391,0.4043 v 24 c 0,0.13807 0.0124,0.27215 0.0391,0.40234 0.15985,0.78117 0.77547,1.39679 1.55664,1.55664 0.1302,0.0266 0.26623,0.041 0.4043,0.041 h 24 c 0.13807,0 0.27215,-0.0144 0.40234,-0.041 0.78118,-0.15985 1.39679,-0.77547 1.55665,-1.55664 0.0266,-0.13019 0.041,-0.26427 0.041,-0.40234 v -24 c 0,-0.13807 -0.0144,-0.2741 -0.041,-0.4043 -0.15986,-0.78117 -0.77547,-1.39679 -1.55665,-1.55664 -0.13019,-0.0266 -0.26427,-0.0391 -0.40234,-0.0391 z m 4,4 h 16 c 1.10457,0 2,0.89543 2,2 v 16 c 0,1.10457 -0.89543,2 -2,2 h -16 c -1.10457,0 -2,-0.89543 -2,-2 v -16 c 0,-1.10457 0.89543,-2 2,-2 z m 4,4 c -1.10457,0 -2,0.89543 -2,2 v 8 c 0,1.10457 0.89543,2 2,2 h 8 c 1.10457,0 2,-0.89543 2,-2 v -8 c 0,-1.10457 -0.89543,-2 -2,-2 z" />
      <path
         id="path3395-7"
         style="fill:#ffffff;stroke:none"
         d="m 306.69172,152.75252 c -0.13807,0 -0.2741,0.0124 -0.4043,0.0391 -0.78117,0.15985 -1.39679,0.77547 -1.55664,1.55664 -0.0266,0.1302 -0.0391,0.26623 -0.0391,0.4043 v 24 c 0,0.13807 0.0124,0.27215 0.0391,0.40234 0.15985,0.78117 0.77547,1.39679 1.55664,1.55664 0.1302,0.0266 0.26623,0.041 0.4043,0.041 h 24 c 0.13807,0 0.27215,-0.0144 0.40234,-0.041 0.78118,-0.15985 1.39679,-0.77547 1.55665,-1.55664 0.0266,-0.13019 0.041,-0.26427 0.041,-0.40234 v -24 c 0,-0.13807 -0.0144,-0.2741 -0.041,-0.4043 -0.15986,-0.78117 -0.77547,-1.39679 -1.55665,-1.55664 -0.13019,-0.0266 -0.26427,-0.0391 -0.40234,-0.0391 z m 4,4 h 16 c 1.10457,0 2,0.89543 2,2 v 16 c 0,1.10457 -0.89543,2 -2,2 h -16 c -1.10457,0 -2,-0.89543 -2,-2 v -16 c 0,-1.10457 0.89543,-2 2,-2 z m 4,4 c -1.10457,0 -2,0.89543 -2,2 v 8 c 0,1.10457 0.89543,2 2,2 h 8 c 1.10457,0 2,-0.89543 2,-2 v -8 c 0,-1.10457 -0.89543,-2 -2,-2 z" />
      <path
         id="path3395-7-9"
         style="fill:#ffffff;stroke:none"
         d="m 276.69172,182.75252 c -0.13807,0 -0.2741,0.0124 -0.4043,0.0391 -0.78117,0.15985 -1.39679,0.77547 -1.55664,1.55664 -0.0266,0.1302 -0.0391,0.26623 -0.0391,0.4043 v 24 c 0,0.13807 0.0124,0.27215 0.0391,0.40234 0.15985,0.78117 0.77547,1.39679 1.55664,1.55664 0.1302,0.0266 0.26623,0.041 0.4043,0.041 h 24 c 0.13807,0 0.27215,-0.0144 0.40234,-0.041 0.78118,-0.15985 1.39679,-0.77547 1.55665,-1.55664 0.0266,-0.13019 0.041,-0.26427 0.041,-0.40234 v -24 c 0,-0.13807 -0.0144,-0.2741 -0.041,-0.4043 -0.15986,-0.78117 -0.77547,-1.39679 -1.55665,-1.55664 -0.13019,-0.0266 -0.26427,-0.0391 -0.40234,-0.0391 z m 4,4 h 16 c 1.10457,0 2,0.89543 2,2 v 16 c 0,1.10457 -0.89543,2 -2,2 h -16 c -1.10457,0 -2,-0.89543 -2,-2 v -16 c 0,-1.10457 0.89543,-2 2,-2 z m 4,4 c -1.10457,0 -2,0.89543 -2,2 v 8 c 0,1.10457 0.89543,2 2,2 h 8 c 1.10457,0 2,-0.89543 2,-2 v -8 c 0,-1.10457 -0.89543,-2 -2,-2 z" />
    </g>
    <g
       inkscape:label="QR Code: kpks.us/gife"
       transform="translate(292.89,218.773)"
       id="g2487" />
  </g>
</svg>
